SplineFontDB: 3.2
FontName: EZSpecial-I
FullName: EZ Special-I
FamilyName: EZ Special-I
Weight: Book
Copyright: 
Version: 1.0
ItalicAngle: 0
UnderlinePosition: 0
UnderlineWidth: 0
Ascent: 800
Descent: 200
InvalidEm: 0
sfntRevision: 0x00000000
LayerCount: 2
Layer: 0 1 "Back" 1
Layer: 1 1 "Fore" 0
XUID: [1021 904 -49705511 16680]
StyleMap: 0x0040
FSType: 0
OS2Version: 0
OS2_WeightWidthSlopeOnly: 0
OS2_UseTypoMetrics: 0
CreationTime: -2082844800
ModificationTime: 1647065221
PfmFamily: 17
TTFWeight: 400
TTFWidth: 5
LineGap: 0
VLineGap: 0
Panose: 2 11 6 3 5 3 2 2 2 4
OS2TypoAscent: 2030
OS2TypoAOffset: 0
OS2TypoDescent: 122
OS2TypoDOffset: 0
OS2TypoLinegap: 0
OS2WinAscent: 2030
OS2WinAOffset: 0
OS2WinDescent: -122
OS2WinDOffset: 0
HheadAscent: 2030
HheadAOffset: 0
HheadDescent: 122
HheadDOffset: 0
OS2SubXSize: 0
OS2SubYSize: 0
OS2SubXOff: 0
OS2SubYOff: 0
OS2SupXSize: 0
OS2SupYSize: 0
OS2SupXOff: 0
OS2SupYOff: 0
OS2StrikeYSize: 0
OS2StrikeYPos: 0
OS2UnicodeRanges: 00000000.00000000.00000000.00000000
MarkAttachClasses: 1
DEI: 91125
ShortTable: maxp 16
  1
  0
  97
  212
  6
  0
  0
  1
  0
  16
  0
  0
  0
  0
  0
  0
EndShort
LangName: 1033 "" "" "Regular" "EZ Special-I"
Encoding: Mac
UnicodeInterp: none
NameList: AGL For New Fonts
DisplaySize: -48
AntiAlias: 1
FitToEm: 0
WinInfo: 0 38 12
BeginPrivate: 0
EndPrivate
BeginChars: 256 97

StartChar: .notdef
Encoding: 255 711 0
AltUni2: 0002db.ffffffff.0 0002dd.ffffffff.0 0000b8.ffffffff.0 0002da.ffffffff.0 0002d9.ffffffff.0 0002d8.ffffffff.0 0000af.ffffffff.0 0002dc.ffffffff.0 0002c6.ffffffff.0 000131.ffffffff.0 0000d9.ffffffff.0 0000db.ffffffff.0 0000da.ffffffff.0 0000d2.ffffffff.0 0000d4.ffffffff.0 0000d3.ffffffff.0 0000cc.ffffffff.0 0000cf.ffffffff.0 0000ce.ffffffff.0 0000cd.ffffffff.0 0000c8.ffffffff.0 0000cb.ffffffff.0 0000c1.ffffffff.0 0000ca.ffffffff.0 0000c2.ffffffff.0 002030.ffffffff.0 00201e.ffffffff.0 00201a.ffffffff.0 0000b7.ffffffff.0 002021.ffffffff.0 00fb02.ffffffff.0 00fb01.ffffffff.0 00203a.ffffffff.0 002039.ffffffff.0 0000a4.ffffffff.0 002044.ffffffff.0 000178.ffffffff.0 0000ff.ffffffff.0 0025ca.ffffffff.0 0000f7.ffffffff.0 002019.ffffffff.0 002018.ffffffff.0 00201d.ffffffff.0 00201c.ffffffff.0 002014.ffffffff.0 002013.ffffffff.0 000153.ffffffff.0 000152.ffffffff.0 0000d5.ffffffff.0 0000c3.ffffffff.0 0000c0.ffffffff.0 002026.ffffffff.0 0000bb.ffffffff.0 0000ab.ffffffff.0 002206.ffffffff.0 002248.ffffffff.0 000192.ffffffff.0 00221a.ffffffff.0 0000ac.ffffffff.0 0000a1.ffffffff.0 0000bf.ffffffff.0 0000f8.ffffffff.0 0000e6.ffffffff.0 002126.ffffffff.0 0000ba.ffffffff.0 0000aa.ffffffff.0 00222b.ffffffff.0 0003c0.ffffffff.0 00220f.ffffffff.0 002211.ffffffff.0 002202.ffffffff.0 0000b5.ffffffff.0 0000a5.ffffffff.0 002265.ffffffff.0 002264.ffffffff.0 0000b1.ffffffff.0 00221e.ffffffff.0 0000d8.ffffffff.0 0000c6.ffffffff.0 002260.ffffffff.0 0000a8.ffffffff.0 0000b4.ffffffff.0 002122.ffffffff.0 0000a9.ffffffff.0 0000ae.ffffffff.0 0000df.ffffffff.0 0000b6.ffffffff.0 002022.ffffffff.0 0000a7.ffffffff.0 0000a3.ffffffff.0 0000a2.ffffffff.0 0000b0.ffffffff.0 002020.ffffffff.0 0000fc.ffffffff.0 0000fb.ffffffff.0 0000f9.ffffffff.0 0000fa.ffffffff.0 0000f5.ffffffff.0 0000f6.ffffffff.0 0000f4.ffffffff.0 0000f2.ffffffff.0 0000f3.ffffffff.0 0000f1.ffffffff.0 0000ef.ffffffff.0 0000ee.ffffffff.0 0000ec.ffffffff.0 0000ed.ffffffff.0 0000eb.ffffffff.0 0000ea.ffffffff.0 0000e8.ffffffff.0 0000e9.ffffffff.0 0000e7.ffffffff.0 0000e5.ffffffff.0 0000e3.ffffffff.0 0000e4.ffffffff.0 0000e2.ffffffff.0 0000e0.ffffffff.0 0000e1.ffffffff.0 0000dc.ffffffff.0 0000d6.ffffffff.0 0000d1.ffffffff.0 0000c9.ffffffff.0 0000c7.ffffffff.0 0000c5.ffffffff.0 0000c4.ffffffff.0 00007f.ffffffff.0 000026.ffffffff.0 00001f.ffffffff.0 00001e.ffffffff.0 00001c.ffffffff.0 00001b.ffffffff.0 00001a.ffffffff.0 000019.ffffffff.0 000018.ffffffff.0 000017.ffffffff.0 000016.ffffffff.0 000015.ffffffff.0 000014.ffffffff.0 000013.ffffffff.0 000012.ffffffff.0 000011.ffffffff.0 000010.ffffffff.0 00000f.ffffffff.0 00000e.ffffffff.0 00000c.ffffffff.0 00000b.ffffffff.0 00000a.ffffffff.0 000007.ffffffff.0 000006.ffffffff.0 000005.ffffffff.0 000004.ffffffff.0 000003.ffffffff.0 000002.ffffffff.0 000001.ffffffff.0
Width: 185
VWidth: 345
Flags: W
LayerCount: 2
Fore
SplineSet
-198 785 m 0,0,1
 -125 785 -125 785 -50.5 786 c 128,-1,2
 24 787 24 787 98 788 c 1,3,4
 103 781 103 781 102 770 c 128,-1,5
 101 759 101 759 98 751 c 1,6,7
 83 748 83 748 0 748 c 128,-1,8
 -83 748 -83 748 -145 748 c 1,9,10
 -145 696 -145 696 -143 631.5 c 128,-1,11
 -141 567 -141 567 -146 566 c 0,12,13
 -162 566 -162 566 -179.5 564 c 128,-1,14
 -197 562 -197 562 -209 566 c 0,15,16
 -210 566 -210 566 -210 576 c 0,17,18
 -209.5 576.5 l 0,19,20
 -209 577 -209 577 -209 578 c 0,21,22
 -209 631 -209 631 -208.5 674.5 c 128,-1,23
 -208 718 -208 718 -208 770 c 0,24,25
 -207 784 -207 784 -198 785 c 0,0,1
190 759 m 2,26,-1
 232 759 l 2,27,28
 235 759 235 759 243 758.5 c 128,-1,29
 251 758 251 758 254 756 c 0,30,31
 257 753 257 753 253 753 c 128,-1,32
 249 753 249 753 247 737 c 2,33,-1
 243 703 l 2,34,35
 240 681 240 681 222 681 c 2,36,-1
 180 681 l 2,37,38
 176 681 176 681 166.5 681.5 c 128,-1,39
 157 682 157 682 157 686 c 0,40,41
 156 690 156 690 160 691.5 c 128,-1,42
 164 693 164 693 165 703 c 2,43,-1
 169 737 l 2,44,45
 173 759 173 759 190 759 c 2,26,-1
EndSplineSet
EndChar

StartChar: j
Encoding: 106 106 4
Width: 233
VWidth: 345
Flags: W
LayerCount: 2
Fore
SplineSet
83 474 m 2,0,-1
 143 474 l 2,1,2
 148 474 148 474 159 473.5 c 128,-1,3
 170 473 170 473 173 470 c 0,4,5
 177 466 177 466 171.5 466 c 128,-1,6
 166 466 166 466 163 444 c 2,7,-1
 157 396 l 2,8,9
 152 366 152 366 128 366 c 2,10,-1
 69 366 l 2,11,12
 64 366 64 366 51 366.5 c 128,-1,13
 38 367 38 367 38 373 c 0,14,15
 38 379 38 379 42.5 381 c 128,-1,16
 47 383 47 383 49 396 c 2,17,-1
 55 444 l 2,18,19
 59 474 59 474 83 474 c 2,0,-1
EndSplineSet
EndChar

StartChar: bar
Encoding: 124 124 5
Width: 0
VWidth: 345
Flags: W
LayerCount: 2
Fore
SplineSet
-1173 1010 m 0,0,1
 -1173 1023 -1173 1023 -1164 1024 c 0,2,3
 -1105 1024 -1105 1024 -1045.5 1024.5 c 128,-1,4
 -986 1025 -986 1025 -928 1026 c 1,5,6
 -928 1062 -928 1062 -927.5 1073 c 128,-1,7
 -927 1084 -927 1084 -927 1124 c 0,8,9
 -927 1137 -927 1137 -917 1139 c 0,10,11
 -844 1139 -844 1139 -769.5 1139.5 c 128,-1,12
 -695 1140 -695 1140 -621 1141 c 1,13,14
 -616 1135 -616 1135 -617.5 1124.5 c 128,-1,15
 -619 1114 -619 1114 -621 1106 c 1,16,17
 -636 1103 -636 1103 -719.5 1103 c 128,-1,18
 -803 1103 -803 1103 -864 1103 c 1,19,20
 -864 1053 -864 1053 -861.5 1024 c 128,-1,21
 -859 995 -859 995 -865 995 c 0,22,23
 -874 993 -874 993 -881 991.5 c 128,-1,24
 -888 990 -888 990 -926 991 c 1,25,26
 -967 990 -967 990 -1019 989 c 128,-1,27
 -1071 988 -1071 988 -1110 988 c 1,28,29
 -1110 985 -1110 985 -1110 981.5 c 128,-1,30
 -1110 978 -1110 978 -1110 975 c 1,31,-1
 -1110 975 l 1,32,33
 -1110 880 -1110 880 -1111 880 c 0,34,35
 -1120 879 -1120 879 -1127.5 877 c 128,-1,36
 -1135 875 -1135 875 -1173 876 c 0,37,38
 -1214 876 -1214 876 -1266 874.5 c 128,-1,39
 -1318 873 -1318 873 -1357 873 c 1,40,41
 -1358 766 -1358 766 -1359 766 c 0,42,43
 -1375 766 -1375 766 -1392.5 764 c 128,-1,44
 -1410 762 -1410 762 -1422 766 c 0,45,46
 -1423 766 -1423 766 -1423 776 c 1,47,48
 -1422.5 776.5 l 0,49,50
 -1422 777 -1422 777 -1422 778 c 0,51,52
 -1422 829 -1422 829 -1420.5 836.5 c 128,-1,53
 -1419 844 -1419 844 -1419 895 c 0,54,55
 -1419 908 -1419 908 -1410 909 c 0,56,57
 -1351 909 -1351 909 -1292 909.5 c 128,-1,58
 -1233 910 -1233 910 -1174 910 c 1,59,60
 -1174 935 -1174 935 -1173.5 960 c 128,-1,61
 -1173 985 -1173 985 -1173 1010 c 0,0,1
EndSplineSet
EndChar

StartChar: o
Encoding: 111 111 6
Width: 1575
VWidth: 345
Flags: W
LayerCount: 2
Fore
SplineSet
176 -84 m 0,0,1
 326 -77 326 -77 529 -66 c 128,-1,2
 732 -55 732 -55 881 -60 c 0,3,4
 1010 -64 1010 -64 1130.5 -76 c 128,-1,5
 1251 -88 1251 -88 1314 -102 c 0,6,7
 1378 -117 1378 -117 1431 -151.5 c 128,-1,8
 1484 -186 1484 -186 1493 -221 c 0,9,10
 1501 -256 1501 -256 1494 -280 c 128,-1,11
 1487 -304 1487 -304 1416 -336 c 1,12,13
 1365 -347 1365 -347 1309.5 -350.5 c 128,-1,14
 1254 -354 1254 -354 1213 -353 c 1,15,16
 1196 -347 1196 -347 1210.5 -339 c 128,-1,17
 1225 -331 1225 -331 1250.5 -318.5 c 128,-1,18
 1276 -306 1276 -306 1303 -286.5 c 128,-1,19
 1330 -267 1330 -267 1338 -237 c 0,20,21
 1354 -182 1354 -182 1289.5 -153 c 128,-1,22
 1225 -124 1225 -124 1135.5 -111 c 128,-1,23
 1046 -98 1046 -98 959 -96.5 c 128,-1,24
 872 -95 872 -95 842 -93 c 0,25,26
 779 -90 779 -90 667 -94 c 128,-1,27
 555 -98 555 -98 445.5 -104.5 c 128,-1,28
 336 -111 336 -111 256 -116 c 0,29,-1
 176 -121 l 1,30,31
 160 -118 160 -118 160.5 -101.5 c 128,-1,32
 161 -85 161 -85 176 -84 c 0,0,1
746 -167 m 2,33,-1
 805 -167 l 2,34,35
 810 -167 810 -167 821.5 -167 c 128,-1,36
 833 -167 833 -167 835 -170 c 0,37,38
 839 -174 839 -174 833.5 -174.5 c 128,-1,39
 828 -175 828 -175 825 -197 c 2,40,-1
 819 -244 l 2,41,42
 815 -275 815 -275 791 -275 c 2,43,-1
 731 -275 l 2,44,45
 726 -275 726 -275 713.5 -274 c 128,-1,46
 701 -273 701 -273 700 -268 c 0,47,48
 699 -262 699 -262 704 -260.5 c 128,-1,49
 709 -259 709 -259 711 -244 c 2,50,-1
 718 -197 l 2,51,52
 722 -167 722 -167 746 -167 c 2,33,-1
807 181 m 0,53,54
 837 181 837 181 870 180.5 c 128,-1,55
 903 180 903 180 929 176 c 1,56,57
 948 176 948 176 969 123.5 c 128,-1,58
 990 71 990 71 1019 20 c 0,59,60
 1028 3 1028 3 1038 1 c 0,61,62
 1046 -1 1046 -1 1050 -7 c 128,-1,63
 1054 -13 1054 -13 1041 -18 c 1,64,65
 1011 -23 1011 -23 979.5 -22.5 c 128,-1,66
 948 -22 948 -22 920 -18 c 1,67,68
 894 -8 894 -8 879 29 c 128,-1,69
 864 66 864 66 833 137 c 0,70,71
 831 141 831 141 822.5 150 c 128,-1,72
 814 159 814 159 804 161 c 0,73,74
 790 163 790 163 788 172 c 128,-1,75
 786 181 786 181 807 181 c 0,53,54
1044 180 m 0,76,77
 1078 180 1078 180 1115.5 179.5 c 128,-1,78
 1153 179 1153 179 1184 175 c 1,79,80
 1205 175 1205 175 1224 124 c 128,-1,81
 1243 73 1243 73 1277 22 c 0,82,83
 1289 4 1289 4 1299 2 c 0,84,85
 1308 0 1308 0 1313 -6 c 128,-1,86
 1318 -12 1318 -12 1304 -17 c 1,87,88
 1269 -22 1269 -22 1233.5 -21 c 128,-1,89
 1198 -20 1198 -20 1166 -17 c 1,90,91
 1136 -7 1136 -7 1122.5 29.5 c 128,-1,92
 1109 66 1109 66 1074 137 c 1,93,94
 1063 154 1063 154 1041 157 c 0,95,96
 1025 159 1025 159 1022.5 169.5 c 128,-1,97
 1020 180 1020 180 1044 180 c 0,76,77
85 384 m 128,-1,99
 90 392 90 392 96.5 392.5 c 128,-1,100
 103 393 103 393 110 389 c 128,-1,101
 117 385 117 385 128 379.5 c 128,-1,102
 139 374 139 374 156 370.5 c 128,-1,103
 173 367 173 367 204 367 c 2,104,-1
 1228 367 l 2,105,106
 1256 367 1256 367 1279 362.5 c 128,-1,107
 1302 358 1302 358 1321 348 c 128,-1,108
 1340 338 1340 338 1350.5 330 c 128,-1,109
 1361 322 1361 322 1379 302.5 c 128,-1,110
 1397 283 1397 283 1410.5 265 c 128,-1,111
 1424 247 1424 247 1416 230 c 1,112,113
 1408 218 1408 218 1397.5 225 c 128,-1,114
 1387 232 1387 232 1373 237 c 128,-1,115
 1359 242 1359 242 1342.5 244 c 128,-1,116
 1326 246 1326 246 1291 246 c 2,117,-1
 282 246 l 2,118,119
 259 246 259 246 240 249 c 128,-1,120
 221 252 221 252 210.5 255.5 c 128,-1,121
 200 259 200 259 188 265 c 128,-1,122
 176 271 176 271 162.5 279.5 c 128,-1,123
 149 288 149 288 134 303.5 c 128,-1,124
 119 319 119 319 103.5 339.5 c 128,-1,125
 88 360 88 360 84 368 c 128,-1,98
 80 376 80 376 85 384 c 128,-1,99
EndSplineSet
EndChar

StartChar: four
Encoding: 52 52 7
Width: 1580
VWidth: 345
Flags: W
LayerCount: 2
Fore
SplineSet
657 697 m 0,0,1
 687 697 687 697 719.5 696 c 128,-1,2
 752 695 752 695 779 690 c 1,3,4
 798 690 798 690 818.5 626 c 128,-1,5
 839 562 839 562 868 501 c 0,6,7
 877 480 877 480 887 477 c 0,8,9
 895 474 895 474 899 466.5 c 128,-1,10
 903 459 903 459 891 453 c 1,11,12
 861 447 861 447 829.5 448 c 128,-1,13
 798 449 798 449 770 453 c 1,14,15
 744 465 744 465 729 510.5 c 128,-1,16
 714 556 714 556 683 643 c 0,17,18
 680 648 680 648 672 658.5 c 128,-1,19
 664 669 664 669 653 671 c 0,20,21
 639 673 639 673 637.5 684.5 c 128,-1,22
 636 696 636 696 657 697 c 0,0,1
85 384 m 128,-1,24
 90 392 90 392 96.5 392.5 c 128,-1,25
 103 393 103 393 110 389 c 128,-1,26
 117 385 117 385 128 379.5 c 128,-1,27
 139 374 139 374 156 370.5 c 128,-1,28
 173 367 173 367 204 367 c 2,29,-1
 1228 367 l 2,30,31
 1256 367 1256 367 1279 362.5 c 128,-1,32
 1302 358 1302 358 1321 348 c 128,-1,33
 1340 338 1340 338 1350.5 330 c 128,-1,34
 1361 322 1361 322 1379 302.5 c 128,-1,35
 1397 283 1397 283 1410.5 265 c 128,-1,36
 1424 247 1424 247 1416 230 c 1,37,38
 1408 218 1408 218 1397.5 225 c 128,-1,39
 1387 232 1387 232 1373 237 c 128,-1,40
 1359 242 1359 242 1342.5 244 c 128,-1,41
 1326 246 1326 246 1291 246 c 2,42,-1
 282 246 l 2,43,44
 259 246 259 246 240 249 c 128,-1,45
 221 252 221 252 210.5 255.5 c 128,-1,46
 200 259 200 259 188 265 c 128,-1,47
 176 271 176 271 162.5 279.5 c 128,-1,48
 149 288 149 288 134 303.5 c 128,-1,49
 119 319 119 319 103.5 339.5 c 128,-1,50
 88 360 88 360 84 368 c 128,-1,23
 80 376 80 376 85 384 c 128,-1,24
1486 1163 m 1,51,52
 1502 1160 1502 1160 1500 1146.5 c 128,-1,53
 1498 1133 1498 1133 1479 1132 c 1,54,55
 1458 1125 1458 1125 1445.5 1079 c 128,-1,56
 1433 1033 1433 1033 1418 982 c 0,57,58
 1384 863 1384 863 1356.5 789 c 128,-1,59
 1329 715 1329 715 1303.5 685.5 c 128,-1,60
 1278 656 1278 656 1243 640 c 0,61,62
 1189 617 1189 617 1136.5 606 c 128,-1,63
 1084 595 1084 595 1045 595 c 1,64,65
 1064 550 1064 550 1109 532 c 128,-1,66
 1154 514 1154 514 1135 494 c 0,67,68
 1124 483 1124 483 1066 523 c 128,-1,69
 1008 563 1008 563 986 602 c 1,70,71
 986 627 986 627 1006.5 623 c 128,-1,72
 1027 619 1027 619 1050 617 c 256,73,74
 1073 616 1073 616 1098 620 c 128,-1,75
 1123 624 1123 624 1164 645 c 0,76,77
 1184 655 1184 655 1201.5 690.5 c 128,-1,78
 1219 726 1219 726 1233.5 769 c 128,-1,79
 1248 812 1248 812 1258 854.5 c 128,-1,80
 1268 897 1268 897 1284.5 977 c 128,-1,81
 1301 1057 1301 1057 1312.5 1084 c 128,-1,82
 1324 1111 1324 1111 1345.5 1128 c 128,-1,83
 1367 1145 1367 1145 1386.5 1150 c 128,-1,84
 1406 1155 1406 1155 1430 1157 c 128,-1,85
 1454 1159 1454 1159 1486 1163 c 1,51,52
558 1163 m 1,86,87
 574 1160 574 1160 572 1146.5 c 128,-1,88
 570 1133 570 1133 552 1132 c 1,89,90
 531 1125 531 1125 518 1079 c 128,-1,91
 505 1033 505 1033 491 982 c 0,92,93
 457 863 457 863 429 789 c 128,-1,94
 401 715 401 715 376 685.5 c 128,-1,95
 351 656 351 656 315 640 c 0,96,97
 261 617 261 617 208.5 606 c 128,-1,98
 156 595 156 595 118 595 c 1,99,100
 137 550 137 550 182 532 c 128,-1,101
 227 514 227 514 208 494 c 0,102,103
 197 483 197 483 138.5 523 c 128,-1,104
 80 563 80 563 59 602 c 1,105,106
 59 627 59 627 79 623 c 128,-1,107
 99 619 99 619 123 617 c 256,108,109
 146 616 146 616 170.5 620 c 128,-1,110
 195 624 195 624 236 645 c 0,111,112
 256 655 256 655 274 690.5 c 128,-1,113
 292 726 292 726 306 769 c 128,-1,114
 320 812 320 812 330 854.5 c 128,-1,115
 340 897 340 897 356.5 977 c 128,-1,116
 373 1057 373 1057 384.5 1084 c 128,-1,117
 396 1111 396 1111 417.5 1128 c 128,-1,118
 439 1145 439 1145 459 1150 c 128,-1,119
 479 1155 479 1155 502.5 1157 c 128,-1,120
 526 1159 526 1159 558 1163 c 1,86,87
1063 1338 m 1,121,122
 1078 1336 1078 1336 1076.5 1324.5 c 128,-1,123
 1075 1313 1075 1313 1058 1311 c 1,124,125
 1039 1305 1039 1305 1027 1266.5 c 128,-1,126
 1015 1228 1015 1228 1001 1185 c 0,127,128
 970 1084 970 1084 944 1022 c 128,-1,129
 918 960 918 960 895 935 c 128,-1,130
 872 910 872 910 839 897 c 0,131,132
 789 877 789 877 740.5 868 c 128,-1,133
 692 859 692 859 656 859 c 1,134,135
 674 820 674 820 715.5 805.5 c 128,-1,136
 757 791 757 791 739 774 c 0,137,138
 729 765 729 765 675.5 798.5 c 128,-1,139
 622 832 622 832 602 865 c 1,140,141
 602 886 602 886 620.5 882.5 c 128,-1,142
 639 879 639 879 661 878 c 0,143,144
 683 877 683 877 705.5 880 c 128,-1,145
 728 883 728 883 766 901 c 0,146,147
 785 910 785 910 801 939.5 c 128,-1,148
 817 969 817 969 830.5 1005.5 c 128,-1,149
 844 1042 844 1042 853 1078 c 128,-1,150
 862 1114 862 1114 877 1181 c 128,-1,151
 892 1248 892 1248 903 1271 c 128,-1,152
 914 1294 914 1294 934 1308.5 c 128,-1,153
 954 1323 954 1323 972 1327 c 128,-1,154
 990 1331 990 1331 1012 1333 c 128,-1,155
 1034 1335 1034 1335 1063 1338 c 1,121,122
EndSplineSet
EndChar

StartChar: three
Encoding: 51 51 8
Width: 1580
VWidth: 345
Flags: W
LayerCount: 2
Fore
SplineSet
461 697 m 0,0,1
 491 697 491 697 524 696 c 128,-1,2
 557 695 557 695 583 690 c 1,3,4
 602 690 602 690 623.5 626 c 128,-1,5
 645 562 645 562 673 501 c 0,6,7
 681 480 681 480 692 477 c 0,8,9
 699 474 699 474 703.5 466.5 c 128,-1,10
 708 459 708 459 695 453 c 1,11,12
 665 447 665 447 634 448 c 128,-1,13
 603 449 603 449 575 453 c 1,14,15
 549 465 549 465 534 510.5 c 128,-1,16
 519 556 519 556 488 643 c 0,17,18
 485 648 485 648 477 658.5 c 128,-1,19
 469 669 469 669 458 671 c 0,20,21
 444 673 444 673 442 684.5 c 128,-1,22
 440 696 440 696 461 697 c 0,0,1
731 697 m 0,23,24
 761 697 761 697 794.5 696 c 128,-1,25
 828 695 828 695 854 690 c 1,26,27
 873 690 873 690 894 626 c 128,-1,28
 915 562 915 562 943 501 c 0,29,30
 952 480 952 480 962 477 c 0,31,32
 970 474 970 474 974.5 466.5 c 128,-1,33
 979 459 979 459 966 453 c 1,34,35
 935 447 935 447 904 448 c 128,-1,36
 873 449 873 449 845 453 c 1,37,38
 818 465 818 465 803.5 510.5 c 128,-1,39
 789 556 789 556 758 643 c 0,40,41
 756 648 756 648 747.5 658.5 c 128,-1,42
 739 669 739 669 729 671 c 0,43,44
 715 673 715 673 712.5 684.5 c 128,-1,45
 710 696 710 696 731 697 c 0,23,24
85 384 m 128,-1,47
 90 392 90 392 96.5 392.5 c 128,-1,48
 103 393 103 393 110 389 c 128,-1,49
 117 385 117 385 128 379.5 c 128,-1,50
 139 374 139 374 156 370.5 c 128,-1,51
 173 367 173 367 204 367 c 2,52,-1
 1228 367 l 2,53,54
 1256 367 1256 367 1279 362.5 c 128,-1,55
 1302 358 1302 358 1321 348 c 128,-1,56
 1340 338 1340 338 1350.5 330 c 128,-1,57
 1361 322 1361 322 1379 302.5 c 128,-1,58
 1397 283 1397 283 1410.5 265 c 128,-1,59
 1424 247 1424 247 1416 230 c 1,60,61
 1408 218 1408 218 1397.5 225 c 128,-1,62
 1387 232 1387 232 1373 237 c 128,-1,63
 1359 242 1359 242 1342.5 244 c 128,-1,64
 1326 246 1326 246 1291 246 c 2,65,-1
 282 246 l 2,66,67
 259 246 259 246 240 249 c 128,-1,68
 221 252 221 252 210.5 255.5 c 128,-1,69
 200 259 200 259 188 265 c 128,-1,70
 176 271 176 271 162.5 279.5 c 128,-1,71
 149 288 149 288 134 303.5 c 128,-1,72
 119 319 119 319 103.5 339.5 c 128,-1,73
 88 360 88 360 84 368 c 128,-1,46
 80 376 80 376 85 384 c 128,-1,47
1486 1163 m 1,74,75
 1502 1160 1502 1160 1500 1146.5 c 128,-1,76
 1498 1133 1498 1133 1479 1132 c 1,77,78
 1458 1125 1458 1125 1445.5 1079 c 128,-1,79
 1433 1033 1433 1033 1418 982 c 0,80,81
 1384 863 1384 863 1356.5 789 c 128,-1,82
 1329 715 1329 715 1303.5 685.5 c 128,-1,83
 1278 656 1278 656 1243 640 c 0,84,85
 1189 617 1189 617 1136.5 606 c 128,-1,86
 1084 595 1084 595 1045 595 c 1,87,88
 1064 550 1064 550 1109 532 c 128,-1,89
 1154 514 1154 514 1135 494 c 0,90,91
 1124 483 1124 483 1066 523 c 128,-1,92
 1008 563 1008 563 986 602 c 1,93,94
 986 627 986 627 1006.5 623 c 128,-1,95
 1027 619 1027 619 1050 617 c 256,96,97
 1073 616 1073 616 1098 620 c 128,-1,98
 1123 624 1123 624 1164 645 c 0,99,100
 1184 655 1184 655 1201.5 690.5 c 128,-1,101
 1219 726 1219 726 1233.5 769 c 128,-1,102
 1248 812 1248 812 1258 854.5 c 128,-1,103
 1268 897 1268 897 1284.5 977 c 128,-1,104
 1301 1057 1301 1057 1312.5 1084 c 128,-1,105
 1324 1111 1324 1111 1345.5 1128 c 128,-1,106
 1367 1145 1367 1145 1386.5 1150 c 128,-1,107
 1406 1155 1406 1155 1430 1157 c 128,-1,108
 1454 1159 1454 1159 1486 1163 c 1,74,75
558 1163 m 1,109,110
 574 1160 574 1160 572 1146.5 c 128,-1,111
 570 1133 570 1133 552 1132 c 1,112,113
 531 1125 531 1125 518 1079 c 128,-1,114
 505 1033 505 1033 491 982 c 0,115,116
 457 863 457 863 429 789 c 128,-1,117
 401 715 401 715 376 685.5 c 128,-1,118
 351 656 351 656 315 640 c 0,119,120
 261 617 261 617 208.5 606 c 128,-1,121
 156 595 156 595 118 595 c 1,122,123
 137 550 137 550 182 532 c 128,-1,124
 227 514 227 514 208 494 c 0,125,126
 197 483 197 483 138.5 523 c 128,-1,127
 80 563 80 563 59 602 c 1,128,129
 59 627 59 627 79 623 c 128,-1,130
 99 619 99 619 123 617 c 256,131,132
 146 616 146 616 170.5 620 c 128,-1,133
 195 624 195 624 236 645 c 0,134,135
 256 655 256 655 274 690.5 c 128,-1,136
 292 726 292 726 306 769 c 128,-1,137
 320 812 320 812 330 854.5 c 128,-1,138
 340 897 340 897 356.5 977 c 128,-1,139
 373 1057 373 1057 384.5 1084 c 128,-1,140
 396 1111 396 1111 417.5 1128 c 128,-1,141
 439 1145 439 1145 459 1150 c 128,-1,142
 479 1155 479 1155 502.5 1157 c 128,-1,143
 526 1159 526 1159 558 1163 c 1,109,110
1000 1338 m 1,144,145
 1015 1336 1015 1336 1013 1324.5 c 128,-1,146
 1011 1313 1011 1313 994 1311 c 1,147,148
 975 1305 975 1305 963 1266.5 c 128,-1,149
 951 1228 951 1228 938 1185 c 0,150,151
 907 1084 907 1084 880.5 1022 c 128,-1,152
 854 960 854 960 831 935 c 128,-1,153
 808 910 808 910 776 897 c 0,154,155
 726 877 726 877 677 868 c 128,-1,156
 628 859 628 859 593 859 c 1,157,158
 611 820 611 820 652 805.5 c 128,-1,159
 693 791 693 791 676 774 c 0,160,161
 666 765 666 765 612 798.5 c 128,-1,162
 558 832 558 832 538 865 c 1,163,164
 538 886 538 886 557 882.5 c 128,-1,165
 576 879 576 879 597 878 c 0,166,167
 619 877 619 877 641.5 880 c 128,-1,168
 664 883 664 883 702 901 c 0,169,170
 721 910 721 910 737 939.5 c 128,-1,171
 753 969 753 969 766.5 1005.5 c 128,-1,172
 780 1042 780 1042 789.5 1078 c 128,-1,173
 799 1114 799 1114 814 1181 c 128,-1,174
 829 1248 829 1248 840 1271 c 128,-1,175
 851 1294 851 1294 870.5 1308.5 c 128,-1,176
 890 1323 890 1323 908 1327 c 128,-1,177
 926 1331 926 1331 948.5 1333 c 128,-1,178
 971 1335 971 1335 1000 1338 c 1,144,145
EndSplineSet
EndChar

StartChar: two
Encoding: 50 50 9
Width: 1580
VWidth: 345
Flags: W
LayerCount: 2
Fore
SplineSet
85 384 m 128,-1,1
 90 392 90 392 96.5 392.5 c 128,-1,2
 103 393 103 393 110 389 c 128,-1,3
 117 385 117 385 128 379.5 c 128,-1,4
 139 374 139 374 156 370.5 c 128,-1,5
 173 367 173 367 204 367 c 2,6,-1
 1228 367 l 2,7,8
 1256 367 1256 367 1279 362.5 c 128,-1,9
 1302 358 1302 358 1321 348 c 128,-1,10
 1340 338 1340 338 1350.5 330 c 128,-1,11
 1361 322 1361 322 1379 302.5 c 128,-1,12
 1397 283 1397 283 1410.5 265 c 128,-1,13
 1424 247 1424 247 1416 230 c 1,14,15
 1408 218 1408 218 1397.5 225 c 128,-1,16
 1387 232 1387 232 1373 237 c 128,-1,17
 1359 242 1359 242 1342.5 244 c 128,-1,18
 1326 246 1326 246 1291 246 c 2,19,-1
 282 246 l 2,20,21
 259 246 259 246 240 249 c 128,-1,22
 221 252 221 252 210.5 255.5 c 128,-1,23
 200 259 200 259 188 265 c 128,-1,24
 176 271 176 271 162.5 279.5 c 128,-1,25
 149 288 149 288 134 303.5 c 128,-1,26
 119 319 119 319 103.5 339.5 c 128,-1,27
 88 360 88 360 84 368 c 128,-1,0
 80 376 80 376 85 384 c 128,-1,1
1486 1163 m 1,28,29
 1502 1160 1502 1160 1500 1146.5 c 128,-1,30
 1498 1133 1498 1133 1479 1132 c 1,31,32
 1458 1125 1458 1125 1445.5 1079 c 128,-1,33
 1433 1033 1433 1033 1418 982 c 0,34,35
 1384 863 1384 863 1356.5 789 c 128,-1,36
 1329 715 1329 715 1303.5 685.5 c 128,-1,37
 1278 656 1278 656 1243 640 c 0,38,39
 1189 617 1189 617 1136.5 606 c 128,-1,40
 1084 595 1084 595 1045 595 c 1,41,42
 1064 550 1064 550 1109 532 c 128,-1,43
 1154 514 1154 514 1135 494 c 0,44,45
 1124 483 1124 483 1066 523 c 128,-1,46
 1008 563 1008 563 986 602 c 1,47,48
 986 627 986 627 1006.5 623 c 128,-1,49
 1027 619 1027 619 1050 617 c 256,50,51
 1073 616 1073 616 1098 620 c 128,-1,52
 1123 624 1123 624 1164 645 c 0,53,54
 1184 655 1184 655 1201.5 690.5 c 128,-1,55
 1219 726 1219 726 1233.5 769 c 128,-1,56
 1248 812 1248 812 1258 854.5 c 128,-1,57
 1268 897 1268 897 1284.5 977 c 128,-1,58
 1301 1057 1301 1057 1312.5 1084 c 128,-1,59
 1324 1111 1324 1111 1345.5 1128 c 128,-1,60
 1367 1145 1367 1145 1386.5 1150 c 128,-1,61
 1406 1155 1406 1155 1430 1157 c 128,-1,62
 1454 1159 1454 1159 1486 1163 c 1,28,29
1022 1163 m 1,63,64
 1038 1160 1038 1160 1036 1146.5 c 128,-1,65
 1034 1133 1034 1133 1016 1132 c 1,66,67
 995 1125 995 1125 982 1079 c 128,-1,68
 969 1033 969 1033 955 982 c 0,69,70
 921 863 921 863 893 789 c 128,-1,71
 865 715 865 715 839.5 685.5 c 128,-1,72
 814 656 814 656 779 640 c 0,73,74
 725 617 725 617 672.5 606 c 128,-1,75
 620 595 620 595 582 595 c 1,76,77
 601 550 601 550 645.5 532 c 128,-1,78
 690 514 690 514 671 494 c 0,79,80
 660 483 660 483 602 523 c 128,-1,81
 544 563 544 563 522 602 c 1,82,83
 522 627 522 627 542.5 623 c 128,-1,84
 563 619 563 619 586 617 c 256,85,86
 609 616 609 616 634 620 c 128,-1,87
 659 624 659 624 700 645 c 0,88,89
 720 655 720 655 737.5 690.5 c 128,-1,90
 755 726 755 726 769.5 769 c 128,-1,91
 784 812 784 812 794 854.5 c 128,-1,92
 804 897 804 897 820.5 977 c 128,-1,93
 837 1057 837 1057 848.5 1084 c 128,-1,94
 860 1111 860 1111 881.5 1128 c 128,-1,95
 903 1145 903 1145 922.5 1150 c 128,-1,96
 942 1155 942 1155 966 1157 c 128,-1,97
 990 1159 990 1159 1022 1163 c 1,63,64
558 1163 m 1,98,99
 574 1160 574 1160 572 1146.5 c 128,-1,100
 570 1133 570 1133 552 1132 c 1,101,102
 531 1125 531 1125 518 1079 c 128,-1,103
 505 1033 505 1033 491 982 c 0,104,105
 457 863 457 863 429 789 c 128,-1,106
 401 715 401 715 376 685.5 c 128,-1,107
 351 656 351 656 315 640 c 0,108,109
 261 617 261 617 208.5 606 c 128,-1,110
 156 595 156 595 118 595 c 1,111,112
 137 550 137 550 182 532 c 128,-1,113
 227 514 227 514 208 494 c 0,114,115
 197 483 197 483 138.5 523 c 128,-1,116
 80 563 80 563 59 602 c 1,117,118
 59 627 59 627 79 623 c 128,-1,119
 99 619 99 619 123 617 c 256,120,121
 146 616 146 616 170.5 620 c 128,-1,122
 195 624 195 624 236 645 c 0,123,124
 256 655 256 655 274 690.5 c 128,-1,125
 292 726 292 726 306 769 c 128,-1,126
 320 812 320 812 330 854.5 c 128,-1,127
 340 897 340 897 356.5 977 c 128,-1,128
 373 1057 373 1057 384.5 1084 c 128,-1,129
 396 1111 396 1111 417.5 1128 c 128,-1,130
 439 1145 439 1145 459 1150 c 128,-1,131
 479 1155 479 1155 502.5 1157 c 128,-1,132
 526 1159 526 1159 558 1163 c 1,98,99
EndSplineSet
EndChar

StartChar: one
Encoding: 49 49 10
Width: 1517
VWidth: 345
Flags: W
LayerCount: 2
Fore
SplineSet
657 697 m 0,0,1
 687 697 687 697 719.5 696 c 128,-1,2
 752 695 752 695 779 690 c 1,3,4
 798 690 798 690 818.5 626 c 128,-1,5
 839 562 839 562 868 501 c 0,6,7
 877 480 877 480 887 477 c 0,8,9
 895 474 895 474 899 466.5 c 128,-1,10
 903 459 903 459 891 453 c 1,11,12
 861 447 861 447 829.5 448 c 128,-1,13
 798 449 798 449 770 453 c 1,14,15
 744 465 744 465 729 510.5 c 128,-1,16
 714 556 714 556 683 643 c 0,17,18
 680 648 680 648 672 658.5 c 128,-1,19
 664 669 664 669 653 671 c 0,20,21
 639 673 639 673 637.5 684.5 c 128,-1,22
 636 696 636 696 657 697 c 0,0,1
85 384 m 128,-1,24
 90 392 90 392 96.5 392.5 c 128,-1,25
 103 393 103 393 110 389 c 128,-1,26
 117 385 117 385 128 379.5 c 128,-1,27
 139 374 139 374 156 370.5 c 128,-1,28
 173 367 173 367 204 367 c 2,29,-1
 1228 367 l 2,30,31
 1256 367 1256 367 1279 362.5 c 128,-1,32
 1302 358 1302 358 1321 348 c 128,-1,33
 1340 338 1340 338 1350.5 330 c 128,-1,34
 1361 322 1361 322 1379 302.5 c 128,-1,35
 1397 283 1397 283 1410.5 265 c 128,-1,36
 1424 247 1424 247 1416 230 c 1,37,38
 1408 218 1408 218 1397.5 225 c 128,-1,39
 1387 232 1387 232 1373 237 c 128,-1,40
 1359 242 1359 242 1342.5 244 c 128,-1,41
 1326 246 1326 246 1291 246 c 2,42,-1
 282 246 l 2,43,44
 259 246 259 246 240 249 c 128,-1,45
 221 252 221 252 210.5 255.5 c 128,-1,46
 200 259 200 259 188 265 c 128,-1,47
 176 271 176 271 162.5 279.5 c 128,-1,48
 149 288 149 288 134 303.5 c 128,-1,49
 119 319 119 319 103.5 339.5 c 128,-1,50
 88 360 88 360 84 368 c 128,-1,23
 80 376 80 376 85 384 c 128,-1,24
558 1163 m 1,51,52
 574 1160 574 1160 572 1146.5 c 128,-1,53
 570 1133 570 1133 552 1132 c 1,54,55
 531 1125 531 1125 518 1079 c 128,-1,56
 505 1033 505 1033 491 982 c 0,57,58
 457 863 457 863 429 789 c 128,-1,59
 401 715 401 715 376 685.5 c 128,-1,60
 351 656 351 656 315 640 c 0,61,62
 261 617 261 617 208.5 606 c 128,-1,63
 156 595 156 595 118 595 c 1,64,65
 137 550 137 550 182 532 c 128,-1,66
 227 514 227 514 208 494 c 0,67,68
 197 483 197 483 138.5 523 c 128,-1,69
 80 563 80 563 59 602 c 1,70,71
 59 627 59 627 79 623 c 128,-1,72
 99 619 99 619 123 617 c 256,73,74
 146 616 146 616 170.5 620 c 128,-1,75
 195 624 195 624 236 645 c 0,76,77
 256 655 256 655 274 690.5 c 128,-1,78
 292 726 292 726 306 769 c 128,-1,79
 320 812 320 812 330 854.5 c 128,-1,80
 340 897 340 897 356.5 977 c 128,-1,81
 373 1057 373 1057 384.5 1084 c 128,-1,82
 396 1111 396 1111 417.5 1128 c 128,-1,83
 439 1145 439 1145 459 1150 c 128,-1,84
 479 1155 479 1155 502.5 1157 c 128,-1,85
 526 1159 526 1159 558 1163 c 1,51,52
1063 1338 m 1,86,87
 1078 1336 1078 1336 1076.5 1324.5 c 128,-1,88
 1075 1313 1075 1313 1058 1311 c 1,89,90
 1039 1305 1039 1305 1027 1266.5 c 128,-1,91
 1015 1228 1015 1228 1001 1185 c 0,92,93
 970 1084 970 1084 944 1022 c 128,-1,94
 918 960 918 960 895 935 c 128,-1,95
 872 910 872 910 839 897 c 0,96,97
 789 877 789 877 740.5 868 c 128,-1,98
 692 859 692 859 656 859 c 1,99,100
 674 820 674 820 715.5 805.5 c 128,-1,101
 757 791 757 791 739 774 c 0,102,103
 729 765 729 765 675.5 798.5 c 128,-1,104
 622 832 622 832 602 865 c 1,105,106
 602 886 602 886 620.5 882.5 c 128,-1,107
 639 879 639 879 661 878 c 0,108,109
 683 877 683 877 705.5 880 c 128,-1,110
 728 883 728 883 766 901 c 0,111,112
 785 910 785 910 801 939.5 c 128,-1,113
 817 969 817 969 830.5 1005.5 c 128,-1,114
 844 1042 844 1042 853 1078 c 128,-1,115
 862 1114 862 1114 877 1181 c 128,-1,116
 892 1248 892 1248 903 1271 c 128,-1,117
 914 1294 914 1294 934 1308.5 c 128,-1,118
 954 1323 954 1323 972 1327 c 128,-1,119
 990 1331 990 1331 1012 1333 c 128,-1,120
 1034 1335 1034 1335 1063 1338 c 1,86,87
EndSplineSet
EndChar

StartChar: p
Encoding: 112 112 11
Width: 1313
VWidth: 345
Flags: W
LayerCount: 2
Fore
SplineSet
456 707 m 0,0,1
 486 707 486 707 519 706 c 128,-1,2
 552 705 552 705 578 700 c 1,3,4
 597 700 597 700 618 636 c 128,-1,5
 639 572 639 572 667 512 c 0,6,7
 676 491 676 491 686 488 c 0,8,9
 694 486 694 486 698.5 478 c 128,-1,10
 703 470 703 470 690 464 c 1,11,12
 659 458 659 458 628 459 c 128,-1,13
 597 460 597 460 569 464 c 1,14,15
 543 476 543 476 528 521.5 c 128,-1,16
 513 567 513 567 482 654 c 0,17,18
 480 659 480 659 471.5 669 c 128,-1,19
 463 679 463 679 453 681 c 0,20,21
 439 684 439 684 437 695.5 c 128,-1,22
 435 707 435 707 456 707 c 0,0,1
880 498 m 1,23,24
 918 512 918 512 1009 496 c 1,25,26
 1062 483 1062 483 1102.5 461 c 128,-1,27
 1143 439 1143 439 1165 384 c 1,28,29
 1180 331 1180 331 1175 299.5 c 128,-1,30
 1170 268 1170 268 1140 226 c 1,31,32
 1111 191 1111 191 1072.5 173.5 c 128,-1,33
 1034 156 1034 156 978 144 c 0,34,35
 922 133 922 133 887 133.5 c 128,-1,36
 852 134 852 134 811 135 c 0,37,38
 771 137 771 137 736.5 141.5 c 128,-1,39
 702 146 702 146 653 161 c 0,40,41
 572 183 572 183 493 222 c 0,42,43
 449 244 449 244 399.5 269.5 c 128,-1,44
 350 295 350 295 289 330 c 0,45,46
 261 347 261 347 227.5 366.5 c 128,-1,47
 194 386 194 386 156 406 c 1,48,49
 127 424 127 424 98.5 442 c 128,-1,50
 70 460 70 460 74.5 478.5 c 128,-1,51
 79 497 79 497 96 496 c 128,-1,52
 113 495 113 495 203 497 c 128,-1,53
 293 499 293 499 361 498 c 1,54,55
 388 478 388 478 360.5 469.5 c 128,-1,56
 333 461 333 461 319 448 c 0,57,58
 294 422 294 422 297 406.5 c 128,-1,59
 300 391 300 391 305.5 382.5 c 128,-1,60
 311 374 311 374 322 364.5 c 128,-1,61
 333 355 333 355 376 325 c 128,-1,62
 419 295 419 295 484 262 c 1,63,64
 542 237 542 237 575 221 c 128,-1,65
 608 205 608 205 682 185 c 1,66,67
 737 174 737 174 794 171.5 c 128,-1,68
 851 169 851 169 910 188 c 1,69,70
 951 206 951 206 967.5 219 c 128,-1,71
 984 232 984 232 1005 263 c 0,72,73
 1023 293 1023 293 1025.5 314 c 128,-1,74
 1028 335 1028 335 1026 362 c 0,75,76
 1025 390 1025 390 1019.5 402.5 c 128,-1,77
 1014 415 1014 415 1005.5 428 c 128,-1,78
 997 441 997 441 983.5 451.5 c 128,-1,79
 970 462 970 462 942 466 c 128,-1,80
 914 470 914 470 887 473 c 0,81,82
 875 475 875 475 871.5 483 c 128,-1,83
 868 491 868 491 880 498 c 1,23,24
1237 1222 m 1,84,85
 1253 1219 1253 1219 1251 1205.5 c 128,-1,86
 1249 1192 1249 1192 1230 1190 c 1,87,88
 1209 1183 1209 1183 1196.5 1137.5 c 128,-1,89
 1184 1092 1184 1092 1169 1041 c 0,90,91
 1135 922 1135 922 1107.5 848 c 128,-1,92
 1080 774 1080 774 1054.5 744 c 128,-1,93
 1029 714 1029 714 994 699 c 0,94,95
 940 676 940 676 887.5 664.5 c 128,-1,96
 835 653 835 653 796 653 c 1,97,98
 815 608 815 608 860 590.5 c 128,-1,99
 905 573 905 573 886 553 c 0,100,101
 875 542 875 542 817 582 c 128,-1,102
 759 622 759 622 737 661 c 1,103,104
 737 686 737 686 757.5 682 c 128,-1,105
 778 678 778 678 801 676 c 256,106,107
 824 675 824 675 849 678.5 c 128,-1,108
 874 682 874 682 915 703 c 0,109,110
 935 713 935 713 952.5 748.5 c 128,-1,111
 970 784 970 784 984.5 827.5 c 128,-1,112
 999 871 999 871 1009 913.5 c 128,-1,113
 1019 956 1019 956 1035.5 1036 c 128,-1,114
 1052 1116 1052 1116 1063.5 1143 c 128,-1,115
 1075 1170 1075 1170 1096.5 1186.5 c 128,-1,116
 1118 1203 1118 1203 1137.5 1208 c 128,-1,117
 1157 1213 1157 1213 1181 1215.5 c 128,-1,118
 1205 1218 1205 1218 1237 1222 c 1,84,85
863 1343 m 1,119,120
 878 1341 878 1341 876.5 1329.5 c 128,-1,121
 875 1318 875 1318 857 1316 c 1,122,123
 838 1310 838 1310 826 1271.5 c 128,-1,124
 814 1233 814 1233 801 1190 c 0,125,126
 770 1089 770 1089 744 1027 c 128,-1,127
 718 965 718 965 694.5 940 c 128,-1,128
 671 915 671 915 639 902 c 0,129,130
 589 882 589 882 540.5 873 c 128,-1,131
 492 864 492 864 456 864 c 1,132,133
 474 825 474 825 515.5 810.5 c 128,-1,134
 557 796 557 796 539 779 c 0,135,136
 529 770 529 770 475 803.5 c 128,-1,137
 421 837 421 837 401 870 c 1,138,139
 401 891 401 891 420 887.5 c 128,-1,140
 439 884 439 884 460 883 c 0,141,142
 482 882 482 882 504.5 885 c 128,-1,143
 527 888 527 888 565 906 c 0,144,145
 584 915 584 915 600.5 944.5 c 128,-1,146
 617 974 617 974 630.5 1010.5 c 128,-1,147
 644 1047 644 1047 653 1082.5 c 128,-1,148
 662 1118 662 1118 677 1185.5 c 128,-1,149
 692 1253 692 1253 703 1276 c 128,-1,150
 714 1299 714 1299 733.5 1313 c 128,-1,151
 753 1327 753 1327 771.5 1331.5 c 128,-1,152
 790 1336 790 1336 812 1338 c 128,-1,153
 834 1340 834 1340 863 1343 c 1,119,120
EndSplineSet
EndChar

StartChar: zero
Encoding: 48 48 12
Width: 1577
VWidth: 345
Flags: W
LayerCount: 2
Fore
SplineSet
492 697 m 0,0,1
 522 697 522 697 554.5 696 c 128,-1,2
 587 695 587 695 614 690 c 1,3,4
 633 690 633 690 653.5 626 c 128,-1,5
 674 562 674 562 703 501 c 0,6,7
 712 480 712 480 722 477 c 0,8,9
 730 474 730 474 734 466.5 c 128,-1,10
 738 459 738 459 726 453 c 1,11,12
 695 447 695 447 664 448 c 128,-1,13
 633 449 633 449 605 453 c 1,14,15
 578 465 578 465 563.5 510.5 c 128,-1,16
 549 556 549 556 518 643 c 0,17,18
 515 648 515 648 507 658.5 c 128,-1,19
 499 669 499 669 488 671 c 0,20,21
 474 673 474 673 472.5 684.5 c 128,-1,22
 471 696 471 696 492 697 c 0,0,1
85 384 m 128,-1,24
 90 392 90 392 96.5 392.5 c 128,-1,25
 103 393 103 393 110 389 c 128,-1,26
 117 385 117 385 128 379.5 c 128,-1,27
 139 374 139 374 156 370.5 c 128,-1,28
 173 367 173 367 204 367 c 2,29,-1
 1228 367 l 2,30,31
 1256 367 1256 367 1279 362.5 c 128,-1,32
 1302 358 1302 358 1321 348 c 128,-1,33
 1340 338 1340 338 1350.5 330 c 128,-1,34
 1361 322 1361 322 1379 302.5 c 128,-1,35
 1397 283 1397 283 1410.5 265 c 128,-1,36
 1424 247 1424 247 1416 230 c 1,37,38
 1408 218 1408 218 1397.5 225 c 128,-1,39
 1387 232 1387 232 1373 237 c 128,-1,40
 1359 242 1359 242 1342.5 244 c 128,-1,41
 1326 246 1326 246 1291 246 c 2,42,-1
 282 246 l 2,43,44
 259 246 259 246 240 249 c 128,-1,45
 221 252 221 252 210.5 255.5 c 128,-1,46
 200 259 200 259 188 265 c 128,-1,47
 176 271 176 271 162.5 279.5 c 128,-1,48
 149 288 149 288 134 303.5 c 128,-1,49
 119 319 119 319 103.5 339.5 c 128,-1,50
 88 360 88 360 84 368 c 128,-1,23
 80 376 80 376 85 384 c 128,-1,24
1486 1163 m 1,51,52
 1502 1160 1502 1160 1500 1146.5 c 128,-1,53
 1498 1133 1498 1133 1479 1132 c 1,54,55
 1458 1125 1458 1125 1445.5 1079 c 128,-1,56
 1433 1033 1433 1033 1418 982 c 0,57,58
 1384 863 1384 863 1356.5 789 c 128,-1,59
 1329 715 1329 715 1303.5 685.5 c 128,-1,60
 1278 656 1278 656 1243 640 c 0,61,62
 1189 617 1189 617 1136.5 606 c 128,-1,63
 1084 595 1084 595 1045 595 c 1,64,65
 1064 550 1064 550 1109 532 c 128,-1,66
 1154 514 1154 514 1135 494 c 0,67,68
 1124 483 1124 483 1066 523 c 128,-1,69
 1008 563 1008 563 986 602 c 1,70,71
 986 627 986 627 1006.5 623 c 128,-1,72
 1027 619 1027 619 1050 617 c 256,73,74
 1073 616 1073 616 1098 620 c 128,-1,75
 1123 624 1123 624 1164 645 c 0,76,77
 1184 655 1184 655 1201.5 690.5 c 128,-1,78
 1219 726 1219 726 1233.5 769 c 128,-1,79
 1248 812 1248 812 1258 854.5 c 128,-1,80
 1268 897 1268 897 1284.5 977 c 128,-1,81
 1301 1057 1301 1057 1312.5 1084 c 128,-1,82
 1324 1111 1324 1111 1345.5 1128 c 128,-1,83
 1367 1145 1367 1145 1386.5 1150 c 128,-1,84
 1406 1155 1406 1155 1430 1157 c 128,-1,85
 1454 1159 1454 1159 1486 1163 c 1,51,52
897 1338 m 1,86,87
 912 1336 912 1336 910.5 1324.5 c 128,-1,88
 909 1313 909 1313 892 1311 c 1,89,90
 873 1305 873 1305 861 1266.5 c 128,-1,91
 849 1228 849 1228 835 1185 c 0,92,93
 804 1084 804 1084 778 1022 c 128,-1,94
 752 960 752 960 729 935 c 128,-1,95
 706 910 706 910 673 897 c 0,96,97
 623 877 623 877 574.5 868 c 128,-1,98
 526 859 526 859 490 859 c 1,99,100
 508 820 508 820 549.5 805.5 c 128,-1,101
 591 791 591 791 573 774 c 0,102,103
 563 765 563 765 509.5 798.5 c 128,-1,104
 456 832 456 832 436 865 c 1,105,106
 436 886 436 886 454.5 882.5 c 128,-1,107
 473 879 473 879 495 878 c 0,108,109
 517 877 517 877 539.5 880 c 128,-1,110
 562 883 562 883 600 901 c 0,111,112
 619 910 619 910 635 939.5 c 128,-1,113
 651 969 651 969 664.5 1005.5 c 128,-1,114
 678 1042 678 1042 687 1078 c 128,-1,115
 696 1114 696 1114 711 1181 c 128,-1,116
 726 1248 726 1248 737 1271 c 128,-1,117
 748 1294 748 1294 768 1308.5 c 128,-1,118
 788 1323 788 1323 806 1327 c 128,-1,119
 824 1331 824 1331 846 1333 c 128,-1,120
 868 1335 868 1335 897 1338 c 1,86,87
EndSplineSet
EndChar

StartChar: d
Encoding: 100 100 13
Width: 2
VWidth: 345
Flags: W
LayerCount: 2
Fore
SplineSet
-561 772 m 1,0,1
 -561 809 -561 809 -560 844 c 128,-1,2
 -559 879 -559 879 -559 921 c 0,3,4
 -559 935 -559 935 -549 936 c 0,5,6
 -475 936 -475 936 -400.5 936.5 c 128,-1,7
 -326 937 -326 937 -253 938 c 1,8,9
 -244 926 -244 926 -252 902 c 1,10,11
 -267 898 -267 898 -350.5 898 c 128,-1,12
 -434 898 -434 898 -496 898 c 1,13,14
 -496 847 -496 847 -494 794 c 128,-1,15
 -492 741 -492 741 -498 740 c 0,16,17
 -506 739 -506 739 -513.5 737 c 128,-1,18
 -521 735 -521 735 -560 736 c 0,19,20
 -600 736 -600 736 -652 734.5 c 128,-1,21
 -704 733 -704 733 -743 733 c 1,22,23
 -743 682 -743 682 -741.5 628 c 128,-1,24
 -740 574 -740 574 -746 574 c 0,25,26
 -761 574 -761 574 -778.5 571.5 c 128,-1,27
 -796 569 -796 569 -809 574 c 0,28,29
 -811 574 -811 574 -811 584 c 0,30,31
 -810 584.5 l 0,32,33
 -809 585 -809 585 -809 586 c 0,34,35
 -809 639 -809 639 -807.5 670.5 c 128,-1,36
 -806 702 -806 702 -806 755 c 0,37,38
 -806 769 -806 769 -797 770 c 0,39,40
 -738 770 -738 770 -679 770.5 c 128,-1,41
 -620 771 -620 771 -561 772 c 1,0,1
-940 738 m 2,42,-1
 -897 738 l 2,43,44
 -893 738 -893 738 -885 737.5 c 128,-1,45
 -877 737 -877 737 -875 735 c 0,46,47
 -872 732 -872 732 -876 732 c 128,-1,48
 -880 732 -880 732 -883 716 c 2,49,-1
 -887 682 l 2,50,51
 -889 660 -889 660 -908 660 c 2,52,-1
 -950 660 l 2,53,54
 -953 660 -953 660 -962.5 660.5 c 128,-1,55
 -972 661 -972 661 -973 665 c 0,56,57
 -973 669 -973 669 -969.5 670.5 c 128,-1,58
 -966 672 -966 672 -965 682 c 2,59,-1
 -960 716 l 2,60,61
 -957 738 -957 738 -940 738 c 2,42,-1
EndSplineSet
EndChar

StartChar: D
Encoding: 68 68 14
Width: 0
VWidth: 345
Flags: W
LayerCount: 2
Fore
SplineSet
-257 953 m 1,0,1
 -257 988 -257 988 -256 1020 c 128,-1,2
 -255 1052 -255 1052 -255 1091 c 0,3,4
 -255 1103 -255 1103 -246 1105 c 0,5,6
 -172 1105 -172 1105 -97.5 1105.5 c 128,-1,7
 -23 1106 -23 1106 50 1107 c 1,8,9
 55 1101 55 1101 53.5 1090.5 c 128,-1,10
 52 1080 52 1080 50 1074 c 1,11,12
 35 1071 35 1071 -48 1071 c 128,-1,13
 -131 1071 -131 1071 -192 1071 c 1,14,15
 -192 1023 -192 1023 -190 973.5 c 128,-1,16
 -188 924 -188 924 -194 924 c 0,17,18
 -202 923 -202 923 -210 921 c 128,-1,19
 -218 919 -218 919 -256 920 c 1,20,21
 -296 919 -296 919 -348.5 918 c 128,-1,22
 -401 917 -401 917 -440 917 c 1,23,24
 -440 869 -440 869 -438.5 819.5 c 128,-1,25
 -437 770 -437 770 -443 769 c 0,26,27
 -458 769 -458 769 -475.5 767 c 128,-1,28
 -493 765 -493 765 -506 769 c 0,29,30
 -507 769 -507 769 -507 779 c 1,31,32
 -506.5 779.5 l 0,33,34
 -506 780 -506 780 -506 781 c 0,35,36
 -506 830 -506 830 -504.5 859 c 128,-1,37
 -503 888 -503 888 -503 938 c 0,38,39
 -503 950 -503 950 -494 951 c 0,40,41
 -435 951 -435 951 -375.5 951.5 c 128,-1,42
 -316 952 -316 952 -257 953 c 1,0,1
-628 913 m 2,43,-1
 -585 913 l 2,44,45
 -582 913 -582 913 -574 912.5 c 128,-1,46
 -566 912 -566 912 -564 910 c 0,47,48
 -561 907 -561 907 -565 907 c 128,-1,49
 -569 907 -569 907 -571 891 c 2,50,-1
 -576 857 l 2,51,52
 -578 835 -578 835 -596 835 c 2,53,-1
 -639 835 l 2,54,55
 -642 835 -642 835 -651.5 835.5 c 128,-1,56
 -661 836 -661 836 -661 840 c 128,-1,57
 -661 844 -661 844 -657.5 845 c 128,-1,58
 -654 846 -654 846 -653 857 c 2,59,-1
 -649 891 l 2,60,61
 -645 913 -645 913 -628 913 c 2,43,-1
EndSplineSet
EndChar

StartChar: F
Encoding: 70 70 15
Width: 0
VWidth: 345
Flags: W
LayerCount: 2
Fore
SplineSet
-271 1009 m 0,0,1
 -271 1022 -271 1022 -262 1024 c 1,2,3
 -203 1024 -203 1024 -143.5 1024.5 c 128,-1,4
 -84 1025 -84 1025 -25 1025 c 1,5,6
 -25 1061 -25 1061 -24.5 1072.5 c 128,-1,7
 -24 1084 -24 1084 -24 1124 c 0,8,9
 -24 1137 -24 1137 -15 1138 c 0,10,11
 58 1138 58 1138 132.5 1138.5 c 128,-1,12
 207 1139 207 1139 281 1141 c 1,13,14
 289 1129 289 1129 281 1106 c 1,15,16
 266 1103 266 1103 182.5 1103 c 128,-1,17
 99 1103 99 1103 38 1103 c 1,18,19
 38 1053 38 1053 40 1024 c 128,-1,20
 42 995 42 995 37 994 c 0,21,22
 29 993 29 993 21.5 991.5 c 128,-1,23
 14 990 14 990 -24 991 c 1,24,25
 -64 990 -64 990 -116.5 989 c 128,-1,26
 -169 988 -169 988 -208 988 c 1,27,28
 -208 981 -208 981 -208 975 c 1,29,-1
 -208 975 l 1,30,31
 -207 880 -207 880 -209 880 c 0,32,33
 -217 878 -217 878 -224.5 876.5 c 128,-1,34
 -232 875 -232 875 -271 876 c 1,35,36
 -311 875 -311 875 -363 874 c 128,-1,37
 -415 873 -415 873 -455 873 c 1,38,39
 -455 766 -455 766 -457 765 c 0,40,41
 -472 765 -472 765 -489.5 763 c 128,-1,42
 -507 761 -507 761 -520 765 c 0,43,44
 -521 765 -521 765 -521 775 c 0,45,46
 -520.5 776 l 0,47,48
 -520 777 -520 777 -520 778 c 0,49,50
 -520 828 -520 828 -519 835.5 c 128,-1,51
 -518 843 -518 843 -518 894 c 0,52,53
 -518 907 -518 907 -508 908 c 0,54,55
 -449 908 -449 908 -390 909 c 128,-1,56
 -331 910 -331 910 -272 910 c 1,57,58
 -272 935 -272 935 -271.5 959.5 c 128,-1,59
 -271 984 -271 984 -271 1009 c 0,0,1
-630 874 m 2,60,-1
 -588 874 l 2,61,62
 -584 874 -584 874 -576 873.5 c 128,-1,63
 -568 873 -568 873 -566 871 c 0,64,65
 -563 868 -563 868 -567 868 c 128,-1,66
 -571 868 -571 868 -573 852 c 2,67,-1
 -578 818 l 2,68,69
 -580 796 -580 796 -599 796 c 2,70,-1
 -641 796 l 2,71,72
 -644 796 -644 796 -653.5 796.5 c 128,-1,73
 -663 797 -663 797 -663 801 c 128,-1,74
 -663 805 -663 805 -660 806.5 c 128,-1,75
 -657 808 -657 808 -655 818 c 2,76,-1
 -651 852 l 2,77,78
 -648 874 -648 874 -630 874 c 2,60,-1
EndSplineSet
EndChar

StartChar: f
Encoding: 102 102 16
Width: 4
VWidth: 345
Flags: W
LayerCount: 2
Fore
SplineSet
-443 827 m 0,0,1
 -443 840 -443 840 -433 842 c 0,2,3
 -374 842 -374 842 -315 842.5 c 128,-1,4
 -256 843 -256 843 -197 844 c 1,5,6
 -196 881 -196 881 -196 892.5 c 128,-1,7
 -196 904 -196 904 -196 946 c 0,8,9
 -196 959 -196 959 -187 961 c 0,10,11
 -113 961 -113 961 -38.5 961.5 c 128,-1,12
 36 962 36 962 109 963 c 1,13,14
 114 956 114 956 113 945 c 128,-1,15
 112 934 112 934 110 927 c 1,16,17
 95 923 95 923 11.5 923.5 c 128,-1,18
 -72 924 -72 924 -133 924 c 1,19,20
 -133 873 -133 873 -130.5 842.5 c 128,-1,21
 -128 812 -128 812 -134 811 c 0,22,23
 -142 810 -142 810 -150 808 c 128,-1,24
 -158 806 -158 806 -196 808 c 1,25,26
 -236 807 -236 807 -288 805.5 c 128,-1,27
 -340 804 -340 804 -380 804 c 1,28,29
 -380 800 -380 800 -380 797 c 128,-1,30
 -380 794 -380 794 -380 791 c 1,31,-1
 -380 791 l 1,32,33
 -379 692 -379 692 -381 692 c 0,34,35
 -389 691 -389 691 -396.5 689 c 128,-1,36
 -404 687 -404 687 -442 688 c 1,37,38
 -482 687 -482 687 -534.5 686 c 128,-1,39
 -587 685 -587 685 -626 685 c 1,40,41
 -626 574 -626 574 -629 574 c 0,42,43
 -644 574 -644 574 -661.5 571.5 c 128,-1,44
 -679 569 -679 569 -691 574 c 0,45,46
 -693 574 -693 574 -693 584 c 0,47,48
 -692 584.5 l 0,49,50
 -691 585 -691 585 -691 586 c 0,51,52
 -691 639 -691 639 -690 646.5 c 128,-1,53
 -689 654 -689 654 -689 707 c 0,54,55
 -689 720 -689 720 -680 722 c 1,56,57
 -621 722 -621 722 -561.5 722.5 c 128,-1,58
 -502 723 -502 723 -444 724 c 1,59,60
 -444 750 -444 750 -443.5 775.5 c 128,-1,61
 -443 801 -443 801 -443 827 c 0,0,1
-824 699 m 2,62,-1
 -782 699 l 2,63,64
 -778 699 -778 699 -770 699 c 128,-1,65
 -762 699 -762 699 -760 697 c 0,66,67
 -757 694 -757 694 -761 693.5 c 128,-1,68
 -765 693 -765 693 -767 677 c 2,69,-1
 -772 643 l 2,70,71
 -774 621 -774 621 -792 621 c 2,72,-1
 -834 621 l 2,73,74
 -837 621 -837 621 -847 621.5 c 128,-1,75
 -857 622 -857 622 -857 626 c 128,-1,76
 -857 630 -857 630 -854 631.5 c 128,-1,77
 -851 633 -851 633 -850 643 c 2,78,-1
 -845 677 l 2,79,80
 -842 699 -842 699 -824 699 c 2,62,-1
EndSplineSet
EndChar

StartChar: v
Encoding: 118 118 17
Width: 0
VWidth: 345
Flags: W
LayerCount: 2
Fore
SplineSet
-560 827 m 0,0,1
 -560 840 -560 840 -550 842 c 0,2,3
 -491 842 -491 842 -432 842.5 c 128,-1,4
 -373 843 -373 843 -314 844 c 1,5,6
 -313 881 -313 881 -313 892.5 c 128,-1,7
 -313 904 -313 904 -313 946 c 0,8,9
 -313 959 -313 959 -304 961 c 0,10,11
 -230 961 -230 961 -155.5 961.5 c 128,-1,12
 -81 962 -81 962 -8 963 c 1,13,14
 -3 956 -3 956 -4 945 c 128,-1,15
 -5 934 -5 934 -7 927 c 1,16,17
 -22 923 -22 923 -105.5 923.5 c 128,-1,18
 -189 924 -189 924 -250 924 c 1,19,20
 -250 873 -250 873 -248 842.5 c 128,-1,21
 -246 812 -246 812 -251 811 c 0,22,23
 -259 810 -259 810 -267 808 c 128,-1,24
 -275 806 -275 806 -313 808 c 1,25,26
 -353 807 -353 807 -405.5 805.5 c 128,-1,27
 -458 804 -458 804 -497 804 c 1,28,29
 -497 800 -497 800 -497 797 c 128,-1,30
 -497 794 -497 794 -497 791 c 1,31,-1
 -497 791 l 1,32,33
 -496 692 -496 692 -498 692 c 0,34,35
 -506 691 -506 691 -513.5 689 c 128,-1,36
 -521 687 -521 687 -560 688 c 1,37,38
 -600 687 -600 687 -652 686 c 128,-1,39
 -704 685 -704 685 -744 685 c 1,40,41
 -744 574 -744 574 -746 574 c 0,42,43
 -761 574 -761 574 -778.5 571.5 c 128,-1,44
 -796 569 -796 569 -809 574 c 0,45,46
 -811 574 -811 574 -811 584 c 0,47,48
 -810 584.5 l 0,49,50
 -809 585 -809 585 -809 586 c 0,51,52
 -809 639 -809 639 -808 646.5 c 128,-1,53
 -807 654 -807 654 -807 707 c 0,54,55
 -807 720 -807 720 -797 722 c 1,56,57
 -738 722 -738 722 -679 722.5 c 128,-1,58
 -620 723 -620 723 -561 724 c 1,59,60
 -561 750 -561 750 -560.5 775.5 c 128,-1,61
 -560 801 -560 801 -560 827 c 0,0,1
85 943 m 2,62,-1
 127 943 l 2,63,64
 130 943 130 943 138 942.5 c 128,-1,65
 146 942 146 942 149 940 c 0,66,67
 151 937 151 937 147.5 937 c 128,-1,68
 144 937 144 937 142 921 c 2,69,-1
 137 887 l 2,70,71
 134 866 134 866 117 865 c 2,72,-1
 75 865 l 2,73,74
 71 865 71 865 61.5 865.5 c 128,-1,75
 52 866 52 866 52 869 c 0,76,77
 52 873 52 873 55 874.5 c 128,-1,78
 58 876 58 876 60 887 c 2,79,-1
 64 921 l 2,80,81
 67 943 67 943 85 943 c 2,62,-1
EndSplineSet
EndChar

StartChar: V
Encoding: 86 86 18
Width: 0
VWidth: 345
Flags: W
LayerCount: 2
Fore
SplineSet
-271 1009 m 0,0,1
 -271 1022 -271 1022 -262 1024 c 1,2,3
 -203 1024 -203 1024 -143.5 1024.5 c 128,-1,4
 -84 1025 -84 1025 -25 1025 c 1,5,6
 -25 1061 -25 1061 -24.5 1072.5 c 128,-1,7
 -24 1084 -24 1084 -24 1124 c 0,8,9
 -24 1137 -24 1137 -15 1138 c 0,10,11
 58 1138 58 1138 132.5 1138.5 c 128,-1,12
 207 1139 207 1139 281 1141 c 1,13,14
 289 1129 289 1129 281 1106 c 1,15,16
 266 1103 266 1103 182.5 1103 c 128,-1,17
 99 1103 99 1103 38 1103 c 1,18,19
 38 1053 38 1053 40 1024 c 128,-1,20
 42 995 42 995 37 994 c 0,21,22
 29 993 29 993 21.5 991.5 c 128,-1,23
 14 990 14 990 -24 991 c 1,24,25
 -64 990 -64 990 -116.5 989 c 128,-1,26
 -169 988 -169 988 -208 988 c 1,27,28
 -208 981 -208 981 -208 975 c 1,29,-1
 -208 975 l 1,30,31
 -207 880 -207 880 -209 880 c 0,32,33
 -217 878 -217 878 -224.5 876.5 c 128,-1,34
 -232 875 -232 875 -271 876 c 1,35,36
 -311 875 -311 875 -363 874 c 128,-1,37
 -415 873 -415 873 -455 873 c 1,38,39
 -455 766 -455 766 -457 765 c 0,40,41
 -472 765 -472 765 -489.5 763 c 128,-1,42
 -507 761 -507 761 -520 765 c 0,43,44
 -521 765 -521 765 -521 775 c 0,45,46
 -520.5 776 l 0,47,48
 -520 777 -520 777 -520 778 c 0,49,50
 -520 828 -520 828 -519 835.5 c 128,-1,51
 -518 843 -518 843 -518 894 c 0,52,53
 -518 907 -518 907 -508 908 c 0,54,55
 -449 908 -449 908 -390 909 c 128,-1,56
 -331 910 -331 910 -272 910 c 1,57,58
 -272 935 -272 935 -271.5 959.5 c 128,-1,59
 -271 984 -271 984 -271 1009 c 0,0,1
357 1114 m 2,60,-1
 399 1114 l 2,61,62
 402 1114 402 1114 410 1114 c 128,-1,63
 418 1114 418 1114 421 1111 c 0,64,65
 423 1108 423 1108 419.5 1108 c 128,-1,66
 416 1108 416 1108 414 1092 c 2,67,-1
 409 1058 l 2,68,69
 406 1036 406 1036 389 1036 c 2,70,-1
 347 1036 l 2,71,72
 343 1036 343 1036 333.5 1036.5 c 128,-1,73
 324 1037 324 1037 324 1041 c 128,-1,74
 324 1045 324 1045 327 1046.5 c 128,-1,75
 330 1048 330 1048 332 1058 c 2,76,-1
 336 1092 l 2,77,78
 339 1114 339 1114 357 1114 c 2,60,-1
EndSplineSet
EndChar

StartChar: C
Encoding: 67 67 19
Width: 0
VWidth: 345
Flags: W
LayerCount: 2
Fore
SplineSet
-257 953 m 1,0,1
 -257 988 -257 988 -256 1020 c 128,-1,2
 -255 1052 -255 1052 -255 1091 c 0,3,4
 -255 1103 -255 1103 -246 1105 c 0,5,6
 -172 1105 -172 1105 -97.5 1105.5 c 128,-1,7
 -23 1106 -23 1106 50 1107 c 1,8,9
 55 1101 55 1101 53.5 1090.5 c 128,-1,10
 52 1080 52 1080 50 1074 c 1,11,12
 35 1071 35 1071 -48 1071 c 128,-1,13
 -131 1071 -131 1071 -192 1071 c 1,14,15
 -192 1023 -192 1023 -190 973.5 c 128,-1,16
 -188 924 -188 924 -194 924 c 0,17,18
 -202 923 -202 923 -210 921 c 128,-1,19
 -218 919 -218 919 -256 920 c 1,20,21
 -296 919 -296 919 -348.5 918 c 128,-1,22
 -401 917 -401 917 -440 917 c 1,23,24
 -440 869 -440 869 -438.5 819.5 c 128,-1,25
 -437 770 -437 770 -443 769 c 0,26,27
 -458 769 -458 769 -475.5 767 c 128,-1,28
 -493 765 -493 765 -506 769 c 0,29,30
 -507 769 -507 769 -507 779 c 1,31,32
 -506.5 779.5 l 0,33,34
 -506 780 -506 780 -506 781 c 0,35,36
 -506 830 -506 830 -504.5 859 c 128,-1,37
 -503 888 -503 888 -503 938 c 0,38,39
 -503 950 -503 950 -494 951 c 0,40,41
 -435 951 -435 951 -375.5 951.5 c 128,-1,42
 -316 952 -316 952 -257 953 c 1,0,1
142 1087 m 2,43,-1
 185 1087 l 2,44,45
 188 1087 188 1087 196 1086.5 c 128,-1,46
 204 1086 204 1086 207 1084 c 0,47,48
 209 1081 209 1081 205 1081 c 128,-1,49
 201 1081 201 1081 199 1065 c 2,50,-1
 195 1031 l 2,51,52
 191 1009 191 1009 174 1009 c 2,53,-1
 132 1009 l 2,54,55
 128 1009 128 1009 118.5 1009.5 c 128,-1,56
 109 1010 109 1010 109 1013 c 0,57,58
 108 1017 108 1017 112 1018.5 c 128,-1,59
 116 1020 116 1020 117 1031 c 2,60,-1
 122 1065 l 2,61,62
 124 1087 124 1087 142 1087 c 2,43,-1
EndSplineSet
EndChar

StartChar: c
Encoding: 99 99 20
Width: 0
VWidth: 345
Flags: W
LayerCount: 2
Fore
SplineSet
-561 759 m 1,0,1
 -561 794 -561 794 -560 826 c 128,-1,2
 -559 858 -559 858 -559 897 c 0,3,4
 -559 909 -559 909 -549 910 c 0,5,6
 -475 910 -475 910 -400.5 911 c 128,-1,7
 -326 912 -326 912 -253 913 c 1,8,9
 -248 907 -248 907 -249.5 896.5 c 128,-1,10
 -251 886 -251 886 -253 879 c 1,11,12
 -268 876 -268 876 -351 876 c 128,-1,13
 -434 876 -434 876 -496 876 c 1,14,15
 -496 828 -496 828 -494 778.5 c 128,-1,16
 -492 729 -492 729 -498 729 c 0,17,18
 -506 728 -506 728 -513.5 726 c 128,-1,19
 -521 724 -521 724 -560 726 c 1,20,21
 -600 725 -600 725 -652 723.5 c 128,-1,22
 -704 722 -704 722 -743 722 c 1,23,24
 -743 674 -743 674 -741.5 624.5 c 128,-1,25
 -740 575 -740 575 -746 575 c 0,26,27
 -761 575 -761 575 -778.5 573 c 128,-1,28
 -796 571 -796 571 -809 575 c 0,29,30
 -810 575 -810 575 -811 584 c 1,31,32
 -810 584.5 l 0,33,34
 -809 585 -809 585 -809 586 c 0,35,36
 -809 635 -809 635 -807.5 664.5 c 128,-1,37
 -806 694 -806 694 -806 743 c 0,38,39
 -806 755 -806 755 -797 757 c 0,40,41
 -738 757 -738 757 -679 757.5 c 128,-1,42
 -620 758 -620 758 -561 759 c 1,0,1
-161 892 m 2,43,-1
 -119 892 l 2,44,45
 -116 892 -116 892 -108 892 c 128,-1,46
 -100 892 -100 892 -97 890 c 0,47,48
 -95 887 -95 887 -98.5 887 c 128,-1,49
 -102 887 -102 887 -104 870 c 2,50,-1
 -108 836 l 2,51,52
 -112 814 -112 814 -129 814 c 2,53,-1
 -171 814 l 2,54,55
 -175 814 -175 814 -184.5 814.5 c 128,-1,56
 -194 815 -194 815 -194 819 c 0,57,58
 -195 823 -195 823 -191.5 824.5 c 128,-1,59
 -188 826 -188 826 -186 836 c 2,60,-1
 -182 870 l 2,61,62
 -179 892 -179 892 -161 892 c 2,43,-1
EndSplineSet
EndChar

StartChar: hyphen
Encoding: 45 45 21
Width: 546
VWidth: 345
Flags: W
LayerCount: 2
Fore
SplineSet
340 725 m 1,0,1
 340 760 340 760 341.5 792 c 128,-1,2
 343 824 343 824 343 863 c 0,3,4
 343 875 343 875 352 877 c 0,5,6
 425 878 425 878 500 878 c 128,-1,7
 575 878 575 878 648 879 c 1,8,9
 656 868 656 868 648 845 c 1,10,11
 633 842 633 842 550 842.5 c 128,-1,12
 467 843 467 843 406 843 c 1,13,14
 406 795 406 795 407.5 745.5 c 128,-1,15
 409 696 409 696 403 696 c 0,16,17
 394 694 394 694 387 692.5 c 128,-1,18
 380 691 380 691 342 692 c 1,19,20
 301 691 301 691 249 690 c 128,-1,21
 197 689 197 689 158 689 c 1,22,23
 158 641 158 641 159.5 591 c 128,-1,24
 161 541 161 541 155 541 c 0,25,26
 139 541 139 541 122 539 c 128,-1,27
 105 537 105 537 92 541 c 0,28,29
 91 541 91 541 91 551 c 1,30,31
 92 551.5 l 0,32,33
 93 552 93 552 93 553 c 0,34,35
 93 602 93 602 94 631 c 128,-1,36
 95 660 95 660 95 710 c 0,37,38
 95 722 95 722 104 723 c 0,39,40
 163 723 163 723 222 724 c 128,-1,41
 281 725 281 725 340 725 c 1,0,1
358 447 m 0,42,43
 381 447 381 447 380.5 433 c 128,-1,44
 380 419 380 419 364 417 c 0,45,46
 337 411 337 411 328 394 c 0,47,48
 292 308 292 308 272.5 243 c 128,-1,49
 253 178 253 178 223 166 c 1,50,51
 191 162 191 162 155.5 161 c 128,-1,52
 120 160 120 160 85 166 c 1,53,54
 70 172 70 172 75 179 c 128,-1,55
 80 186 80 186 90 189 c 0,56,57
 100 191 100 191 111 213 c 0,58,59
 146 275 146 275 169.5 353.5 c 128,-1,60
 193 432 193 432 219 441 c 0,61,62
 253 451 253 451 288 449 c 128,-1,63
 323 447 323 447 358 447 c 0,42,43
EndSplineSet
EndChar

StartChar: braceleft
Encoding: 123 123 22
Width: 587
VWidth: 345
Flags: W
LayerCount: 2
Fore
SplineSet
358 447 m 0,0,1
 381 447 381 447 380.5 433 c 128,-1,2
 380 419 380 419 364 417 c 0,3,4
 337 411 337 411 328 394 c 0,5,6
 292 308 292 308 272.5 243 c 128,-1,7
 253 178 253 178 223 166 c 1,8,9
 191 162 191 162 155.5 161 c 128,-1,10
 120 160 120 160 85 166 c 1,11,12
 70 172 70 172 75 179 c 128,-1,13
 80 186 80 186 90 189 c 0,14,15
 100 191 100 191 111 213 c 0,16,17
 146 275 146 275 169.5 353.5 c 128,-1,18
 193 432 193 432 219 441 c 0,19,20
 253 451 253 451 288 449 c 128,-1,21
 323 447 323 447 358 447 c 0,0,1
-113 640 m 2,22,-1
 -70 640 l 2,23,24
 -67 640 -67 640 -58.5 639.5 c 128,-1,25
 -50 639 -50 639 -48 637 c 0,26,27
 -45 634 -45 634 -49 634 c 128,-1,28
 -53 634 -53 634 -56 618 c 2,29,-1
 -60 584 l 2,30,31
 -62 562 -62 562 -81 562 c 2,32,-1
 -123 562 l 2,33,34
 -127 562 -127 562 -136 562.5 c 128,-1,35
 -145 563 -145 563 -146 567 c 0,36,37
 -146 571 -146 571 -142.5 572.5 c 128,-1,38
 -139 574 -139 574 -138 584 c 2,39,-1
 -133 618 l 2,40,41
 -130 640 -130 640 -113 640 c 2,22,-1
264 769 m 0,42,43
 264 782 264 782 273 783 c 0,44,45
 332 783 332 783 391.5 783.5 c 128,-1,46
 451 784 451 784 510 785 c 1,47,48
 510 821 510 821 510 832 c 128,-1,49
 510 843 510 843 510 884 c 0,50,51
 510 897 510 897 520 898 c 0,52,53
 593 898 593 898 668 898.5 c 128,-1,54
 743 899 743 899 816 901 c 1,55,56
 824 889 824 889 816 866 c 1,57,58
 801 863 801 863 717.5 862.5 c 128,-1,59
 634 862 634 862 573 862 c 1,60,61
 573 812 573 812 575.5 783.5 c 128,-1,62
 578 755 578 755 573 754 c 0,63,64
 564 753 564 753 556.5 751 c 128,-1,65
 549 749 549 749 511 751 c 1,66,67
 470 750 470 750 418 748.5 c 128,-1,68
 366 747 366 747 327 747 c 1,69,70
 326 740 326 740 327 735 c 1,71,-1
 327 735 l 1,72,73
 327 639 327 639 326 639 c 0,74,75
 317 638 317 638 309.5 636 c 128,-1,76
 302 634 302 634 264 636 c 1,77,78
 223 635 223 635 171 633.5 c 128,-1,79
 119 632 119 632 81 632 c 1,80,81
 80 525 80 525 78 525 c 0,82,83
 62 525 62 525 44.5 523 c 128,-1,84
 27 521 27 521 15 525 c 0,85,86
 14 525 14 525 14 535 c 1,87,88
 14.5 535.5 l 0,89,90
 15 536 15 536 15 537 c 0,91,92
 15 588 15 588 16.5 595 c 128,-1,93
 18 602 18 602 18 654 c 0,94,95
 18 667 18 667 27 668 c 0,96,97
 86 668 86 668 145 668.5 c 128,-1,98
 204 669 204 669 263 670 c 1,99,100
 263 694 263 694 263.5 719 c 128,-1,101
 264 744 264 744 264 769 c 0,42,43
EndSplineSet
EndChar

StartChar: semicolon
Encoding: 59 59 23
Width: 0
VWidth: 345
Flags: W
LayerCount: 2
Fore
SplineSet
-460 -1 m 2,0,-1
 -401 -1 l 2,1,2
 -396 -1 -396 -1 -385 -1 c 128,-1,3
 -374 -1 -374 -1 -371 -4 c 0,4,5
 -367 -8 -367 -8 -372.5 -8.5 c 128,-1,6
 -378 -9 -378 -9 -381 -31 c 2,7,-1
 -388 -78 l 2,8,9
 -391 -108 -391 -108 -416 -109 c 2,10,-1
 -475 -109 l 2,11,12
 -479 -109 -479 -109 -492 -108 c 128,-1,13
 -505 -107 -505 -107 -506 -102 c 0,14,15
 -506 -96 -506 -96 -501.5 -94 c 128,-1,16
 -497 -92 -497 -92 -495 -78 c 2,17,-1
 -489 -31 l 2,18,19
 -484 -1 -484 -1 -460 -1 c 2,0,-1
-701 -1 m 2,20,-1
 -642 -1 l 2,21,22
 -637 -1 -637 -1 -625.5 -1 c 128,-1,23
 -614 -1 -614 -1 -611 -4 c 0,24,25
 -607 -8 -607 -8 -612.5 -8.5 c 128,-1,26
 -618 -9 -618 -9 -622 -31 c 2,27,-1
 -628 -78 l 2,28,29
 -631 -108 -631 -108 -656 -109 c 2,30,-1
 -715 -109 l 2,31,32
 -719 -109 -719 -109 -732.5 -108 c 128,-1,33
 -746 -107 -746 -107 -747 -102 c 0,34,35
 -747 -96 -747 -96 -742 -94 c 128,-1,36
 -737 -92 -737 -92 -735 -78 c 2,37,-1
 -729 -31 l 2,38,39
 -724 -1 -724 -1 -701 -1 c 2,20,-1
-941 -1 m 2,40,-1
 -882 -1 l 2,41,42
 -877 -1 -877 -1 -865.5 -1 c 128,-1,43
 -854 -1 -854 -1 -852 -4 c 0,44,45
 -848 -8 -848 -8 -853 -8.5 c 128,-1,46
 -858 -9 -858 -9 -862 -31 c 2,47,-1
 -868 -78 l 2,48,49
 -871 -108 -871 -108 -896 -109 c 2,50,-1
 -956 -109 l 2,51,52
 -960 -109 -960 -109 -973 -108 c 128,-1,53
 -986 -107 -986 -107 -987 -102 c 0,54,55
 -987 -96 -987 -96 -982 -94 c 128,-1,56
 -977 -92 -977 -92 -976 -78 c 2,57,-1
 -969 -31 l 2,58,59
 -964 -1 -964 -1 -941 -1 c 2,40,-1
EndSplineSet
EndChar

StartChar: colon
Encoding: 58 58 24
Width: 108
VWidth: 345
Flags: W
LayerCount: 2
Fore
SplineSet
-211 -1 m 2,0,-1
 -153 -1 l 2,1,2
 -148 -1 -148 -1 -136.5 -1 c 128,-1,3
 -125 -1 -125 -1 -123 -4 c 0,4,5
 -119 -8 -119 -8 -124 -8.5 c 128,-1,6
 -129 -9 -129 -9 -132 -31 c 2,7,-1
 -139 -78 l 2,8,9
 -143 -108 -143 -108 -167 -109 c 2,10,-1
 -226 -109 l 2,11,12
 -231 -109 -231 -109 -244 -108 c 128,-1,13
 -257 -107 -257 -107 -257 -102 c 0,14,15
 -257 -96 -257 -96 -252.5 -94 c 128,-1,16
 -248 -92 -248 -92 -247 -78 c 2,17,-1
 -240 -31 l 2,18,19
 -235 -1 -235 -1 -211 -1 c 2,0,-1
7 -1 m 2,20,-1
 66 -1 l 2,21,22
 71 -1 71 -1 82 -1 c 128,-1,23
 93 -1 93 -1 96 -4 c 0,24,25
 100 -8 100 -8 94.5 -8.5 c 128,-1,26
 89 -9 89 -9 86 -31 c 2,27,-1
 80 -78 l 2,28,29
 75 -108 75 -108 52 -109 c 2,30,-1
 -7 -109 l 2,31,32
 -12 -109 -12 -109 -25.5 -108 c 128,-1,33
 -39 -107 -39 -107 -39 -102 c 0,34,35
 -40 -96 -40 -96 -35 -94 c 128,-1,36
 -30 -92 -30 -92 -28 -78 c 2,37,-1
 -21 -31 l 2,38,39
 -17 -1 -17 -1 7 -1 c 2,20,-1
-431 -1 m 2,40,-1
 -372 -1 l 2,41,42
 -367 -1 -367 -1 -356 -1 c 128,-1,43
 -345 -1 -345 -1 -342 -4 c 0,44,45
 -338 -8 -338 -8 -343.5 -8.5 c 128,-1,46
 -349 -9 -349 -9 -352 -31 c 2,47,-1
 -358 -78 l 2,48,49
 -361 -108 -361 -108 -387 -109 c 2,50,-1
 -446 -109 l 2,51,52
 -450 -109 -450 -109 -463 -108 c 128,-1,53
 -476 -107 -476 -107 -477 -102 c 0,54,55
 -477 -96 -477 -96 -472 -94 c 128,-1,56
 -467 -92 -467 -92 -466 -78 c 2,57,-1
 -459 -31 l 2,58,59
 -455 -1 -455 -1 -431 -1 c 2,40,-1
EndSplineSet
EndChar

StartChar: numbersign
Encoding: 35 35 25
Width: 0
VWidth: 345
Flags: W
LayerCount: 2
Fore
SplineSet
-1183 965 m 1,0,1
 -1111 965 -1111 965 -1038.5 966.5 c 128,-1,2
 -966 968 -966 968 -893 969 c 1,3,4
 -886 960 -886 960 -893 940 c 1,5,6
 -908 937 -908 937 -989 937 c 128,-1,7
 -1070 937 -1070 937 -1130 937 c 1,8,9
 -1130 891 -1130 891 -1130 856.5 c 128,-1,10
 -1130 822 -1130 822 -1130 776 c 1,11,12
 -1146 776 -1146 776 -1163 774 c 128,-1,13
 -1180 772 -1180 772 -1192 776 c 1,14,15
 -1192 826 -1192 826 -1192 863.5 c 128,-1,16
 -1192 901 -1192 901 -1192 951 c 0,17,18
 -1192 963 -1192 963 -1183 965 c 1,0,1
-1318 935 m 2,19,-1
 -1276 935 l 2,20,21
 -1273 935 -1273 935 -1265 934.5 c 128,-1,22
 -1257 934 -1257 934 -1254 932 c 0,23,24
 -1252 929 -1252 929 -1255.5 928.5 c 128,-1,25
 -1259 928 -1259 928 -1261 912 c 2,26,-1
 -1266 879 l 2,27,28
 -1270 857 -1270 857 -1286 857 c 2,29,-1
 -1329 857 l 2,30,31
 -1333 857 -1333 857 -1342 857.5 c 128,-1,32
 -1351 858 -1351 858 -1351 862 c 0,33,34
 -1352 866 -1352 866 -1348.5 867 c 128,-1,35
 -1345 868 -1345 868 -1343 879 c 2,36,-1
 -1339 912 l 2,37,38
 -1336 935 -1336 935 -1318 935 c 2,19,-1
EndSplineSet
EndChar

StartChar: exclam
Encoding: 33 33 26
Width: 1174
VWidth: 345
Flags: W
LayerCount: 2
Fore
SplineSet
899 711 m 1,0,-1
 908 673 l 2,1,2
 908 669 908 669 918.5 653.5 c 128,-1,3
 929 638 929 638 929 634 c 0,4,5
 929 630 929 630 912.5 626.5 c 128,-1,6
 896 623 896 623 890 623 c 2,7,-1
 829 623 l 2,8,9
 817 623 817 623 806.5 640 c 128,-1,10
 796 657 796 657 793 673 c 2,11,-1
 785 711 l 1,12,13
 668 711 668 711 570 720 c 128,-1,14
 472 729 472 729 431 736 c 0,15,16
 355 748 355 748 305.5 778 c 128,-1,17
 256 808 256 808 240 846 c 0,18,19
 232 865 232 865 211 902.5 c 128,-1,20
 190 940 190 940 167 978 c 128,-1,21
 144 1016 144 1016 123.5 1046 c 128,-1,22
 103 1076 103 1076 95 1080 c 0,23,24
 53 1094 53 1094 77 1111 c 1,25,26
 127 1115 127 1115 173 1116 c 128,-1,27
 219 1117 219 1117 267 1113 c 0,28,29
 315 1110 315 1110 335.5 1058.5 c 128,-1,30
 356 1007 356 1007 377 923 c 0,31,32
 398 838 398 838 428.5 807.5 c 128,-1,33
 459 777 459 777 534 758 c 0,34,35
 610 737 610 737 781 741 c 1,36,-1
 769 809 l 2,37,38
 768 814 768 814 759 822.5 c 128,-1,39
 750 831 750 831 750 836 c 0,40,41
 750 842 750 842 766 844 c 128,-1,42
 782 846 782 846 789 846 c 2,43,-1
 850 846 l 2,44,45
 861 846 861 846 871.5 830.5 c 128,-1,46
 882 815 882 815 886 797 c 2,47,-1
 896 741 l 1,48,49
 963 742 963 742 987 745.5 c 128,-1,50
 1011 749 1011 749 1040 753 c 1,51,52
 1051 752 1051 752 1053 743 c 128,-1,53
 1055 734 1055 734 1048 727 c 0,54,55
 1038 719 1038 719 1007 715 c 128,-1,56
 976 711 976 711 899 711 c 1,0,-1
899 290 m 1,57,-1
 908 252 l 2,58,59
 908 248 908 248 918.5 232.5 c 128,-1,60
 929 217 929 217 929 213 c 256,61,62
 929 209 929 209 912.5 206 c 128,-1,63
 896 203 896 203 890 203 c 2,64,-1
 829 203 l 2,65,66
 817 203 817 203 806.5 220 c 128,-1,67
 796 237 796 237 793 252 c 2,68,-1
 785 290 l 1,69,70
 668 290 668 290 570 299.5 c 128,-1,71
 472 309 472 309 431 316 c 0,72,73
 355 328 355 328 305.5 358 c 128,-1,74
 256 388 256 388 240 426 c 0,75,76
 232 445 232 445 211 482.5 c 128,-1,77
 190 520 190 520 167 558 c 128,-1,78
 144 596 144 596 123.5 626 c 128,-1,79
 103 656 103 656 95 659 c 0,80,81
 54 673 54 673 77 690 c 1,82,83
 127 694 127 694 173 695.5 c 128,-1,84
 219 697 219 697 267 693 c 0,85,86
 315 690 315 690 335.5 638 c 128,-1,87
 356 586 356 586 377 502 c 0,88,89
 398 418 398 418 428.5 387.5 c 128,-1,90
 459 357 459 357 534 337 c 0,91,92
 610 316 610 316 781 320 c 1,93,-1
 769 389 l 2,94,95
 768 394 768 394 759 402 c 128,-1,96
 750 410 750 410 750 415 c 0,97,98
 750 421 750 421 766 423 c 128,-1,99
 782 425 782 425 789 425 c 2,100,-1
 850 425 l 2,101,102
 861 425 861 425 871.5 409.5 c 128,-1,103
 882 394 882 394 886 376 c 2,104,-1
 896 321 l 1,105,106
 963 322 963 322 987 325.5 c 128,-1,107
 1011 329 1011 329 1040 333 c 1,108,109
 1051 332 1051 332 1053 323 c 128,-1,110
 1055 314 1055 314 1048 306 c 0,111,112
 1038 298 1038 298 1007 294 c 128,-1,113
 976 290 976 290 899 290 c 1,57,-1
400 -96 m 1,114,115
 366 -109 366 -109 285 -95 c 1,116,117
 238 -83 238 -83 201.5 -63.5 c 128,-1,118
 165 -44 165 -44 146 6 c 1,119,120
 133 53 133 53 137 81 c 128,-1,121
 141 109 141 109 168 146 c 1,122,123
 194 177 194 177 228.5 193.5 c 128,-1,124
 263 210 263 210 313 220 c 0,125,126
 363 230 363 230 394 229.5 c 128,-1,127
 425 229 425 229 461 228 c 256,128,129
 497 227 497 227 528 222.5 c 128,-1,130
 559 218 559 218 603 204 c 0,131,132
 676 184 676 184 746 150 c 0,133,134
 786 130 786 130 830 107.5 c 128,-1,135
 874 85 874 85 929 54 c 0,136,137
 954 39 954 39 983.5 21.5 c 128,-1,138
 1013 4 1013 4 1047 -14 c 1,139,140
 1073 -30 1073 -30 1098.5 -46.5 c 128,-1,141
 1124 -63 1124 -63 1120 -79.5 c 128,-1,142
 1116 -96 1116 -96 1100.5 -95 c 128,-1,143
 1085 -94 1085 -94 1004.5 -95.5 c 128,-1,144
 924 -97 924 -97 864 -96 c 1,145,146
 840 -78 840 -78 864.5 -70.5 c 128,-1,147
 889 -63 889 -63 901 -51 c 0,148,149
 923 -28 923 -28 920.5 -14.5 c 128,-1,150
 918 -1 918 -1 913.5 6.5 c 128,-1,151
 909 14 909 14 899 23 c 128,-1,152
 889 32 889 32 850.5 58.5 c 128,-1,153
 812 85 812 85 754 115 c 1,154,155
 703 138 703 138 673 152 c 128,-1,156
 643 166 643 166 577 183 c 1,157,158
 528 193 528 193 477 195.5 c 128,-1,159
 426 198 426 198 374 180 c 1,160,161
 337 164 337 164 322 152.5 c 128,-1,162
 307 141 307 141 289 114 c 0,163,164
 273 87 273 87 270.5 68.5 c 128,-1,165
 268 50 268 50 269 25 c 0,166,167
 270 0 270 0 275 -11 c 128,-1,168
 280 -22 280 -22 288 -33.5 c 128,-1,169
 296 -45 296 -45 308 -54.5 c 128,-1,170
 320 -64 320 -64 345 -68 c 128,-1,171
 370 -72 370 -72 394 -74 c 0,172,173
 404 -76 404 -76 407 -83 c 128,-1,174
 410 -90 410 -90 400 -96 c 1,114,115
590 -195 m 1,175,176
 580 -187 580 -187 588.5 -180 c 128,-1,177
 597 -173 597 -173 609 -173 c 0,178,179
 623 -173 623 -173 648 -146.5 c 128,-1,180
 673 -120 673 -120 681 -81 c 0,181,182
 694 -15 694 -15 616 27 c 0,183,184
 587 42 587 42 541.5 54 c 128,-1,185
 496 66 496 66 452 75 c 128,-1,186
 408 84 408 84 374 89.5 c 128,-1,187
 340 95 340 95 334 98 c 0,188,189
 323 103 323 103 325.5 111 c 128,-1,190
 328 119 328 119 337 119 c 0,191,192
 342 119 342 119 375.5 115 c 128,-1,193
 409 111 409 111 455 103 c 128,-1,194
 501 95 501 95 552.5 82 c 128,-1,195
 604 69 604 69 646 52 c 0,196,197
 696 31 696 31 726 10 c 128,-1,198
 756 -11 756 -11 781 -46 c 0,199,200
 806 -82 806 -82 802 -117 c 128,-1,201
 798 -152 798 -152 773 -171 c 0,202,203
 750 -189 750 -189 720.5 -195 c 128,-1,204
 691 -201 691 -201 665 -201 c 0,205,206
 638 -201 638 -201 627 -201 c 128,-1,207
 616 -201 616 -201 590 -195 c 1,175,176
EndSplineSet
EndChar

StartChar: parenright
Encoding: 41 41 27
Width: 1174
VWidth: 345
Flags: W
LayerCount: 2
Fore
SplineSet
899 290 m 1,0,-1
 908 252 l 2,1,2
 908 248 908 248 918.5 232.5 c 128,-1,3
 929 217 929 217 929 213 c 256,4,5
 929 209 929 209 912.5 206 c 128,-1,6
 896 203 896 203 890 203 c 2,7,-1
 829 203 l 2,8,9
 817 203 817 203 806.5 220 c 128,-1,10
 796 237 796 237 793 252 c 2,11,-1
 785 290 l 1,12,13
 668 290 668 290 570 299.5 c 128,-1,14
 472 309 472 309 431 316 c 0,15,16
 355 328 355 328 305.5 358 c 128,-1,17
 256 388 256 388 240 426 c 0,18,19
 232 445 232 445 211 482.5 c 128,-1,20
 190 520 190 520 167 558 c 128,-1,21
 144 596 144 596 123.5 626 c 128,-1,22
 103 656 103 656 95 659 c 0,23,24
 54 673 54 673 77 690 c 1,25,26
 127 694 127 694 173 695.5 c 128,-1,27
 219 697 219 697 267 693 c 0,28,29
 315 690 315 690 335.5 638 c 128,-1,30
 356 586 356 586 377 502 c 0,31,32
 398 418 398 418 428.5 387.5 c 128,-1,33
 459 357 459 357 534 337 c 0,34,35
 610 316 610 316 781 320 c 1,36,-1
 769 389 l 2,37,38
 768 394 768 394 759 402 c 128,-1,39
 750 410 750 410 750 415 c 0,40,41
 750 421 750 421 766 423 c 128,-1,42
 782 425 782 425 789 425 c 2,43,-1
 850 425 l 2,44,45
 861 425 861 425 871.5 409.5 c 128,-1,46
 882 394 882 394 886 376 c 2,47,-1
 896 321 l 1,48,49
 963 322 963 322 987 325.5 c 128,-1,50
 1011 329 1011 329 1040 333 c 1,51,52
 1051 332 1051 332 1053 323 c 128,-1,53
 1055 314 1055 314 1048 306 c 0,54,55
 1038 298 1038 298 1007 294 c 128,-1,56
 976 290 976 290 899 290 c 1,0,-1
899 711 m 1,57,-1
 908 673 l 2,58,59
 908 669 908 669 918.5 653.5 c 128,-1,60
 929 638 929 638 929 634 c 0,61,62
 929 630 929 630 912.5 626.5 c 128,-1,63
 896 623 896 623 890 623 c 2,64,-1
 829 623 l 2,65,66
 817 623 817 623 806.5 640 c 128,-1,67
 796 657 796 657 793 673 c 2,68,-1
 785 711 l 1,69,70
 668 711 668 711 570 720 c 128,-1,71
 472 729 472 729 431 736 c 0,72,73
 355 748 355 748 305.5 778 c 128,-1,74
 256 808 256 808 240 846 c 0,75,76
 232 865 232 865 211 902.5 c 128,-1,77
 190 940 190 940 167 978 c 128,-1,78
 144 1016 144 1016 123.5 1046 c 128,-1,79
 103 1076 103 1076 95 1080 c 0,80,81
 53 1094 53 1094 77 1111 c 1,82,83
 127 1115 127 1115 173 1116 c 128,-1,84
 219 1117 219 1117 267 1113 c 0,85,86
 315 1110 315 1110 335.5 1058.5 c 128,-1,87
 356 1007 356 1007 377 923 c 0,88,89
 398 838 398 838 428.5 807.5 c 128,-1,90
 459 777 459 777 534 758 c 0,91,92
 610 737 610 737 781 741 c 1,93,-1
 769 809 l 2,94,95
 768 814 768 814 759 822.5 c 128,-1,96
 750 831 750 831 750 836 c 0,97,98
 750 842 750 842 766 844 c 128,-1,99
 782 846 782 846 789 846 c 2,100,-1
 850 846 l 2,101,102
 861 846 861 846 871.5 830.5 c 128,-1,103
 882 815 882 815 886 797 c 2,104,-1
 896 741 l 1,105,106
 963 742 963 742 987 745.5 c 128,-1,107
 1011 749 1011 749 1040 753 c 1,108,109
 1051 752 1051 752 1053 743 c 128,-1,110
 1055 734 1055 734 1048 727 c 0,111,112
 1038 719 1038 719 1007 715 c 128,-1,113
 976 711 976 711 899 711 c 1,57,-1
400 -96 m 1,114,115
 366 -109 366 -109 285 -95 c 1,116,117
 238 -83 238 -83 201.5 -63.5 c 128,-1,118
 165 -44 165 -44 146 6 c 1,119,120
 133 53 133 53 137 81 c 128,-1,121
 141 109 141 109 168 146 c 1,122,123
 194 177 194 177 228.5 193.5 c 128,-1,124
 263 210 263 210 313 220 c 0,125,126
 363 230 363 230 394 229.5 c 128,-1,127
 425 229 425 229 461 228 c 256,128,129
 497 227 497 227 528 222.5 c 128,-1,130
 559 218 559 218 603 204 c 0,131,132
 676 184 676 184 746 150 c 0,133,134
 786 130 786 130 830 107.5 c 128,-1,135
 874 85 874 85 929 54 c 0,136,137
 954 39 954 39 983.5 21.5 c 128,-1,138
 1013 4 1013 4 1047 -14 c 1,139,140
 1073 -30 1073 -30 1098.5 -46.5 c 128,-1,141
 1124 -63 1124 -63 1120 -79.5 c 128,-1,142
 1116 -96 1116 -96 1100.5 -95 c 128,-1,143
 1085 -94 1085 -94 1004.5 -95.5 c 128,-1,144
 924 -97 924 -97 864 -96 c 1,145,146
 840 -78 840 -78 864.5 -70.5 c 128,-1,147
 889 -63 889 -63 901 -51 c 0,148,149
 923 -28 923 -28 920.5 -14.5 c 128,-1,150
 918 -1 918 -1 913.5 6.5 c 128,-1,151
 909 14 909 14 899 23 c 128,-1,152
 889 32 889 32 850.5 58.5 c 128,-1,153
 812 85 812 85 754 115 c 1,154,155
 703 138 703 138 673 152 c 128,-1,156
 643 166 643 166 577 183 c 1,157,158
 528 193 528 193 477 195.5 c 128,-1,159
 426 198 426 198 374 180 c 1,160,161
 337 164 337 164 322 152.5 c 128,-1,162
 307 141 307 141 289 114 c 0,163,164
 273 87 273 87 270.5 68.5 c 128,-1,165
 268 50 268 50 269 25 c 0,166,167
 270 0 270 0 275 -11 c 128,-1,168
 280 -22 280 -22 288 -33.5 c 128,-1,169
 296 -45 296 -45 308 -54.5 c 128,-1,170
 320 -64 320 -64 345 -68 c 128,-1,171
 370 -72 370 -72 394 -74 c 0,172,173
 404 -76 404 -76 407 -83 c 128,-1,174
 410 -90 410 -90 400 -96 c 1,114,115
EndSplineSet
EndChar

StartChar: at
Encoding: 64 64 28
Width: 1006
VWidth: 345
Flags: W
LayerCount: 2
Fore
SplineSet
805 883 m 1,0,-1
 813 850 l 2,1,2
 814 847 814 847 823 834 c 128,-1,3
 832 821 832 821 832 818 c 0,4,5
 832 815 832 815 817 811.5 c 128,-1,6
 802 808 802 808 797 808 c 2,7,-1
 743 808 l 2,8,9
 733 808 733 808 722.5 822.5 c 128,-1,10
 712 837 712 837 710 850 c 2,11,-1
 702 883 l 1,12,13
 597 883 597 883 509 891 c 128,-1,14
 421 899 421 899 384 905 c 0,15,16
 244 926 244 926 212 999 c 0,17,18
 205 1015 205 1015 186 1047 c 128,-1,19
 167 1079 167 1079 146.5 1111.5 c 128,-1,20
 126 1144 126 1144 107.5 1170 c 128,-1,21
 89 1196 89 1196 82 1199 c 0,22,23
 45 1211 45 1211 65 1225 c 1,24,25
 160 1233 160 1233 236 1227 c 0,26,27
 279 1225 279 1225 298 1180.5 c 128,-1,28
 317 1136 317 1136 336 1064 c 0,29,30
 354 992 354 992 382 966 c 128,-1,31
 410 940 410 940 477 923 c 0,32,33
 543 906 543 906 699 908 c 1,34,-1
 688 968 l 2,35,36
 687 972 687 972 679 979 c 128,-1,37
 671 986 671 986 671 990 c 0,38,39
 671 995 671 995 685.5 997 c 128,-1,40
 700 999 700 999 706 999 c 2,41,-1
 761 999 l 2,42,43
 771 999 771 999 780.5 985.5 c 128,-1,44
 790 972 790 972 793 957 c 2,45,-1
 803 909 l 1,46,47
 863 910 863 910 884.5 913 c 128,-1,48
 906 916 906 916 932 920 c 1,49,50
 958 917 958 917 939 897 c 0,51,52
 930 890 930 890 902 886.5 c 128,-1,53
 874 883 874 883 805 883 c 1,0,-1
805 553 m 1,54,-1
 813 521 l 2,55,56
 814 517 814 517 823 504 c 128,-1,57
 832 491 832 491 832 488 c 0,58,59
 832 485 832 485 817 482 c 128,-1,60
 802 479 802 479 797 479 c 2,61,-1
 743 479 l 2,62,63
 733 479 733 479 722.5 493.5 c 128,-1,64
 712 508 712 508 710 521 c 2,65,-1
 702 553 l 1,66,67
 597 553 597 553 509 561.5 c 128,-1,68
 421 570 421 570 384 575 c 0,69,70
 244 596 244 596 212 670 c 0,71,72
 205 686 205 686 186 718 c 128,-1,73
 167 750 167 750 146.5 782.5 c 128,-1,74
 126 815 126 815 107.5 840.5 c 128,-1,75
 89 866 89 866 82 869 c 0,76,77
 45 881 45 881 65 895 c 1,78,79
 160 903 160 903 236 898 c 0,80,81
 279 896 279 896 298 851 c 128,-1,82
 317 806 317 806 336 735 c 0,83,84
 354 663 354 663 382 636.5 c 128,-1,85
 410 610 410 610 477 594 c 0,86,87
 547 577 547 577 699 579 c 1,88,-1
 688 638 l 2,89,90
 687 642 687 642 679 649.5 c 128,-1,91
 671 657 671 657 671 660 c 0,92,93
 671 665 671 665 685.5 667 c 128,-1,94
 700 669 700 669 706 669 c 2,95,-1
 761 669 l 2,96,97
 771 669 771 669 780.5 655.5 c 128,-1,98
 790 642 790 642 793 627 c 2,99,-1
 803 579 l 1,100,101
 863 580 863 580 884.5 583.5 c 128,-1,102
 906 587 906 587 932 590 c 1,103,104
 959 587 959 587 939 568 c 0,105,106
 930 561 930 561 902 557 c 128,-1,107
 874 553 874 553 805 553 c 1,54,-1
805 224 m 1,108,-1
 813 192 l 2,109,110
 814 188 814 188 823 175 c 128,-1,111
 832 162 832 162 832 158 c 256,112,113
 832 155 832 155 817 152.5 c 128,-1,114
 802 150 802 150 797 150 c 2,115,-1
 743 150 l 2,116,117
 733 150 733 150 722.5 164 c 128,-1,118
 712 178 712 178 710 192 c 2,119,-1
 702 224 l 1,120,121
 597 224 597 224 509 232.5 c 128,-1,122
 421 241 421 241 384 246 c 0,123,124
 244 267 244 267 212 341 c 0,125,126
 205 357 205 357 186 388.5 c 128,-1,127
 167 420 167 420 146.5 453 c 128,-1,128
 126 486 126 486 107.5 511 c 128,-1,129
 89 536 89 536 82 540 c 0,130,131
 46 552 46 552 65 566 c 1,132,133
 110 569 110 569 151.5 570 c 128,-1,134
 193 571 193 571 236 568 c 0,135,136
 279 566 279 566 298 521.5 c 128,-1,137
 317 477 317 477 336 406 c 0,138,139
 354 333 354 333 382 307 c 128,-1,140
 410 281 410 281 477 264 c 0,141,142
 543 247 543 247 699 250 c 1,143,-1
 688 309 l 2,144,145
 687 313 687 313 679 320 c 128,-1,146
 671 327 671 327 671 331 c 0,147,148
 671 336 671 336 685.5 338 c 128,-1,149
 700 340 700 340 706 340 c 2,150,-1
 761 340 l 2,151,152
 771 340 771 340 780.5 326.5 c 128,-1,153
 790 313 790 313 793 298 c 2,154,-1
 803 250 l 1,155,156
 863 250 863 250 884.5 254 c 128,-1,157
 906 258 906 258 932 261 c 1,158,159
 942 260 942 260 943.5 252 c 128,-1,160
 945 244 945 244 939 239 c 0,161,162
 930 232 930 232 902 228 c 128,-1,163
 874 224 874 224 805 224 c 1,108,-1
EndSplineSet
EndChar

StartChar: dollar
Encoding: 36 36 29
Width: 0
VWidth: 345
Flags: W
LayerCount: 2
Fore
SplineSet
-1099 950 m 1,0,1
 -1099 985 -1099 985 -1098 1017 c 128,-1,2
 -1097 1049 -1097 1049 -1097 1088 c 0,3,4
 -1097 1101 -1097 1101 -1088 1102 c 0,5,6
 -1015 1102 -1015 1102 -940 1102.5 c 128,-1,7
 -865 1103 -865 1103 -792 1104 c 1,8,9
 -787 1098 -787 1098 -788 1087.5 c 128,-1,10
 -789 1077 -789 1077 -791 1071 c 1,11,12
 -807 1068 -807 1068 -890 1067.5 c 128,-1,13
 -973 1067 -973 1067 -1034 1067 c 1,14,15
 -1034 1019 -1034 1019 -1032.5 970 c 128,-1,16
 -1031 921 -1031 921 -1037 920 c 0,17,18
 -1046 919 -1046 919 -1053 917 c 128,-1,19
 -1060 915 -1060 915 -1098 917 c 0,20,21
 -1139 917 -1139 917 -1191 915.5 c 128,-1,22
 -1243 914 -1243 914 -1282 914 c 1,23,24
 -1282 866 -1282 866 -1280.5 816 c 128,-1,25
 -1279 766 -1279 766 -1285 766 c 0,26,27
 -1301 766 -1301 766 -1318 764 c 128,-1,28
 -1335 762 -1335 762 -1348 766 c 0,29,30
 -1349 766 -1349 766 -1349 776 c 1,31,32
 -1348.5 776.5 l 0,33,34
 -1348 777 -1348 777 -1348 778 c 0,35,36
 -1348 826 -1348 826 -1346.5 855.5 c 128,-1,37
 -1345 885 -1345 885 -1345 935 c 0,38,39
 -1345 947 -1345 947 -1335 949 c 0,40,41
 -1276 949 -1276 949 -1217.5 949.5 c 128,-1,42
 -1159 950 -1159 950 -1099 950 c 1,0,1
EndSplineSet
EndChar

StartChar: equal
Encoding: 61 61 30
Width: 1575
VWidth: 345
Flags: W
LayerCount: 2
Fore
SplineSet
176 -84 m 0,0,1
 326 -77 326 -77 529 -66 c 128,-1,2
 732 -55 732 -55 881 -60 c 0,3,4
 1010 -64 1010 -64 1130.5 -76 c 128,-1,5
 1251 -88 1251 -88 1314 -102 c 0,6,7
 1378 -117 1378 -117 1431 -151.5 c 128,-1,8
 1484 -186 1484 -186 1493 -221 c 0,9,10
 1501 -256 1501 -256 1494 -280 c 128,-1,11
 1487 -304 1487 -304 1416 -336 c 1,12,13
 1365 -347 1365 -347 1309.5 -350.5 c 128,-1,14
 1254 -354 1254 -354 1213 -353 c 1,15,16
 1196 -347 1196 -347 1210.5 -339 c 128,-1,17
 1225 -331 1225 -331 1250.5 -318.5 c 128,-1,18
 1276 -306 1276 -306 1303 -286.5 c 128,-1,19
 1330 -267 1330 -267 1338 -237 c 0,20,21
 1354 -182 1354 -182 1289.5 -153 c 128,-1,22
 1225 -124 1225 -124 1135.5 -111 c 128,-1,23
 1046 -98 1046 -98 959 -96.5 c 128,-1,24
 872 -95 872 -95 842 -93 c 0,25,26
 779 -90 779 -90 667 -94 c 128,-1,27
 555 -98 555 -98 445.5 -104.5 c 128,-1,28
 336 -111 336 -111 256 -116 c 0,29,-1
 176 -121 l 1,30,31
 160 -118 160 -118 160.5 -101.5 c 128,-1,32
 161 -85 161 -85 176 -84 c 0,0,1
746 -167 m 2,33,-1
 805 -167 l 2,34,35
 810 -167 810 -167 821.5 -167 c 128,-1,36
 833 -167 833 -167 835 -170 c 0,37,38
 839 -174 839 -174 833.5 -174.5 c 128,-1,39
 828 -175 828 -175 825 -197 c 2,40,-1
 819 -244 l 2,41,42
 815 -275 815 -275 791 -275 c 2,43,-1
 731 -275 l 2,44,45
 726 -275 726 -275 713.5 -274 c 128,-1,46
 701 -273 701 -273 700 -268 c 0,47,48
 699 -262 699 -262 704 -260.5 c 128,-1,49
 709 -259 709 -259 711 -244 c 2,50,-1
 718 -197 l 2,51,52
 722 -167 722 -167 746 -167 c 2,33,-1
863 180 m 0,53,54
 897 180 897 180 935 179.5 c 128,-1,55
 973 179 973 179 1003 175 c 1,56,57
 1024 175 1024 175 1043 124 c 128,-1,58
 1062 73 1062 73 1097 22 c 0,59,60
 1109 4 1109 4 1119 2 c 0,61,62
 1128 0 1128 0 1133 -6 c 128,-1,63
 1138 -12 1138 -12 1123 -17 c 1,64,65
 1088 -22 1088 -22 1052.5 -21 c 128,-1,66
 1017 -20 1017 -20 985 -17 c 1,67,68
 955 -7 955 -7 942 29.5 c 128,-1,69
 929 66 929 66 894 137 c 1,70,71
 883 154 883 154 860 157 c 0,72,73
 844 159 844 159 841.5 169.5 c 128,-1,74
 839 180 839 180 863 180 c 0,53,54
85 384 m 128,-1,76
 90 392 90 392 96.5 392.5 c 128,-1,77
 103 393 103 393 110 389 c 128,-1,78
 117 385 117 385 128 379.5 c 128,-1,79
 139 374 139 374 156 370.5 c 128,-1,80
 173 367 173 367 204 367 c 2,81,-1
 1228 367 l 2,82,83
 1256 367 1256 367 1279 362.5 c 128,-1,84
 1302 358 1302 358 1321 348 c 128,-1,85
 1340 338 1340 338 1350.5 330 c 128,-1,86
 1361 322 1361 322 1379 302.5 c 128,-1,87
 1397 283 1397 283 1410.5 265 c 128,-1,88
 1424 247 1424 247 1416 230 c 1,89,90
 1408 218 1408 218 1397.5 225 c 128,-1,91
 1387 232 1387 232 1373 237 c 128,-1,92
 1359 242 1359 242 1342.5 244 c 128,-1,93
 1326 246 1326 246 1291 246 c 2,94,-1
 282 246 l 2,95,96
 259 246 259 246 240 249 c 128,-1,97
 221 252 221 252 210.5 255.5 c 128,-1,98
 200 259 200 259 188 265 c 128,-1,99
 176 271 176 271 162.5 279.5 c 128,-1,100
 149 288 149 288 134 303.5 c 128,-1,101
 119 319 119 319 103.5 339.5 c 128,-1,102
 88 360 88 360 84 368 c 128,-1,75
 80 376 80 376 85 384 c 128,-1,76
EndSplineSet
EndChar

StartChar: quotesingle
Encoding: 39 39 31
Width: 4
VWidth: 345
Flags: W
LayerCount: 2
Fore
SplineSet
-556 671 m 0,0,1
 -556 628 -556 628 -603 628 c 0,2,3
 -650 628 -650 628 -650 671 c 0,4,5
 -650 710 -650 710 -603 710 c 0,6,7
 -556 710 -556 710 -556 671 c 0,0,1
-325 628 m 1,8,-1
 -354 628 l 1,9,10
 -357 720 -357 720 -436 779 c 128,-1,11
 -515 838 -515 838 -603 838 c 0,12,13
 -689 838 -689 838 -768 778.5 c 128,-1,14
 -847 719 -847 719 -851 628 c 1,15,-1
 -879 628 l 1,16,17
 -870 740 -870 740 -797 832 c 128,-1,18
 -724 924 -724 924 -603 924 c 0,19,20
 -482 924 -482 924 -407.5 832.5 c 128,-1,21
 -333 741 -333 741 -325 628 c 1,8,-1
EndSplineSet
EndChar

StartChar: quotedbl
Encoding: 34 34 32
Width: 0
VWidth: 345
Flags: W
LayerCount: 2
Fore
SplineSet
-295 724 m 0,0,1
 -295 681 -295 681 -341 681 c 0,2,3
 -389 681 -389 681 -389 724 c 0,4,5
 -389 763 -389 763 -341 763 c 0,6,7
 -295 763 -295 763 -295 724 c 0,0,1
-63 681 m 1,8,-1
 -92 681 l 1,9,10
 -96 773 -96 773 -174.5 832.5 c 128,-1,11
 -253 892 -253 892 -341 892 c 0,12,13
 -427 892 -427 892 -506 832 c 128,-1,14
 -585 772 -585 772 -590 681 c 1,15,-1
 -617 681 l 1,16,17
 -608 793 -608 793 -535 885 c 128,-1,18
 -462 977 -462 977 -341 977 c 0,19,20
 -220 977 -220 977 -145.5 885.5 c 128,-1,21
 -71 794 -71 794 -63 681 c 1,8,-1
EndSplineSet
EndChar

StartChar: n
Encoding: 110 110 33
Width: 692
VWidth: 345
Flags: W
LayerCount: 2
Fore
SplineSet
360 -197 m 1,0,1
 498 -197 498 -197 543.5 -186.5 c 0,2,-1
 589 -176 l 1,3,-1
 586 -151 l 2,4,5
 579 -101 579 -101 630 -103 c 0,6,7
 659 -104 659 -104 659 -145 c 128,-1,8
 659 -186 659 -186 618 -197 c 0,9,10
 570 -210 570 -210 549 -212 c 128,-1,11
 528 -214 528 -214 430 -222 c 1,12,-1
 430 -460 l 1,13,-1
 360 -460 l 1,14,-1
 360 -197 l 1,0,1
EndSplineSet
EndChar

StartChar: m
Encoding: 109 109 34
Width: 738
VWidth: 345
Flags: W
LayerCount: 2
Fore
SplineSet
703 -460 m 1,0,-1
 360 -460 l 1,1,-1
 541 -77 l 1,2,-1
 703 -460 l 1,0,-1
626 -415 m 1,3,-1
 525 -178 l 1,4,-1
 414 -415 l 1,5,-1
 626 -415 l 1,3,-1
EndSplineSet
EndChar

StartChar: comma
Encoding: 44 44 35
Width: 744
VWidth: 345
Flags: W
LayerCount: 2
Fore
SplineSet
686 -182 m 1,0,1
 661 -219 661 -219 634.5 -255.5 c 128,-1,2
 608 -292 608 -292 584 -329 c 1,3,4
 585 -372 585 -372 603 -400 c 1,5,6
 624 -430 624 -430 639.5 -432 c 128,-1,7
 655 -434 655 -434 679 -394 c 1,8,9
 693 -378 693 -378 706.5 -383.5 c 128,-1,10
 720 -389 720 -389 723 -399 c 0,11,12
 729 -420 729 -420 723 -434.5 c 128,-1,13
 717 -449 717 -449 712 -456 c 0,14,15
 707 -463 707 -463 693.5 -470.5 c 128,-1,16
 680 -478 680 -478 665 -477 c 0,17,18
 646 -476 646 -476 635 -470 c 0,19,20
 625 -465 625 -465 613 -449 c 0,21,22
 602 -435 602 -435 596 -425 c 128,-1,23
 590 -415 590 -415 587 -409 c 0,24,25
 584 -403 584 -403 579.5 -387 c 128,-1,26
 575 -371 575 -371 572 -347 c 1,27,-1
 493 -464 l 1,28,-1
 434 -464 l 1,29,30
 453 -436 453 -436 471 -412.5 c 128,-1,31
 489 -389 489 -389 511 -351 c 0,32,33
 517 -341 517 -341 517 -302.5 c 128,-1,34
 517 -264 517 -264 513 -252 c 0,35,36
 505 -227 505 -227 489 -227 c 0,37,38
 479 -227 479 -227 472 -232.5 c 128,-1,39
 465 -238 465 -238 450 -236 c 0,40,41
 440 -235 440 -235 435 -220.5 c 128,-1,42
 430 -206 430 -206 439 -191 c 0,43,44
 449 -173 449 -173 479 -174 c 0,45,46
 497 -174 497 -174 511 -188 c 0,47,48
 527 -204 527 -204 529 -227 c 0,49,50
 532 -251 532 -251 534 -272.5 c 128,-1,51
 536 -294 536 -294 532 -321 c 1,52,-1
 626 -182 l 1,53,-1
 686 -182 l 1,0,1
EndSplineSet
EndChar

StartChar: question
Encoding: 63 63 36
Width: 127
VWidth: 345
Flags: W
LayerCount: 2
Fore
SplineSet
-593 240 m 0,0,1
 -580 274 -580 274 -520 263 c 0,2,3
 -507 261 -507 261 -504 235 c 128,-1,4
 -501 209 -501 209 -522 180 c 0,5,6
 -538 159 -538 159 -535.5 136 c 128,-1,7
 -533 113 -533 113 -486 109 c 1,8,9
 -312 108 -312 108 -179 118.5 c 128,-1,10
 -46 129 -46 129 32 129 c 0,11,12
 73 129 73 129 97.5 91.5 c 128,-1,13
 122 54 122 54 117 13 c 0,14,15
 109 -57 109 -57 55 -51 c 0,16,17
 42 -50 42 -50 29.5 -32.5 c 128,-1,18
 17 -15 17 -15 28 9 c 0,19,20
 38 33 38 33 52.5 34 c 128,-1,21
 67 35 67 35 73 58 c 0,22,23
 83 97 83 97 35 94 c 0,24,25
 -112 86 -112 86 -209.5 67 c 128,-1,26
 -307 48 -307 48 -457 71 c 0,27,28
 -497 77 -497 77 -538.5 98.5 c 128,-1,29
 -580 120 -580 120 -594 166 c 0,30,31
 -606 207 -606 207 -593 240 c 0,0,1
EndSplineSet
EndChar

StartChar: less
Encoding: 60 60 37
Width: 6
VWidth: 345
Flags: W
LayerCount: 2
Fore
SplineSet
-160 416 m 0,0,1
 -187 428 -187 428 -214 408 c 128,-1,2
 -241 388 -241 388 -259 349 c 0,3,4
 -277 309 -277 309 -270.5 272.5 c 128,-1,5
 -264 236 -264 236 -237 224 c 1,6,7
 -203 212 -203 212 -172.5 226.5 c 128,-1,8
 -142 241 -142 241 -129 291 c 0,9,10
 -103 392 -103 392 -160 416 c 0,0,1
-98 394 m 1,11,-1
 -93 449 l 1,12,13
 -72 455 -72 455 -49 445 c 1,14,15
 -48 409 -48 409 -53 323 c 128,-1,16
 -58 237 -58 237 -62 -5 c 0,17,18
 -62 -18 -62 -18 -64.5 -31.5 c 128,-1,19
 -67 -45 -67 -45 -71 -48 c 0,20,21
 -91 -63 -91 -63 -115 -51 c 0,22,23
 -122 -48 -122 -48 -124.5 -32 c 128,-1,24
 -127 -16 -127 -16 -127 -5 c 0,25,26
 -127 30 -127 30 -123.5 42.5 c 128,-1,27
 -120 55 -120 55 -119 65 c 0,28,29
 -112 119 -112 119 -109 157 c 128,-1,30
 -106 195 -106 195 -103 249 c 1,31,32
 -142 196 -142 196 -219 203 c 0,33,34
 -273 208 -273 208 -302 247.5 c 128,-1,35
 -331 287 -331 287 -326 337 c 256,36,37
 -321 387 -321 387 -284 418 c 128,-1,38
 -247 449 -247 449 -193 444 c 0,39,40
 -126 437 -126 437 -98 394 c 1,11,-1
EndSplineSet
EndChar

StartChar: N
Encoding: 78 78 38
Width: 134
VWidth: 345
Flags: W
LayerCount: 2
Fore
SplineSet
-156 -4 m 1,0,1
 -160 -12 -160 -12 -188.5 -9.5 c 128,-1,2
 -217 -7 -217 -7 -248 12 c 128,-1,3
 -279 31 -279 31 -302 69.5 c 128,-1,4
 -325 108 -325 108 -317 174 c 0,5,6
 -305 279 -305 279 -313.5 346 c 128,-1,7
 -322 413 -322 413 -382 400 c 0,8,9
 -420 391 -420 391 -402 357.5 c 128,-1,10
 -384 324 -384 324 -425 311 c 0,11,12
 -443 305 -443 305 -458.5 318.5 c 128,-1,13
 -474 332 -474 332 -474 351 c 0,14,15
 -474 397 -474 397 -434 413 c 0,16,17
 -412 421 -412 421 -375 421 c 128,-1,18
 -338 421 -338 421 -311 403 c 0,19,20
 -256 367 -256 367 -240 323.5 c 128,-1,21
 -224 280 -224 280 -224 117 c 0,22,23
 -224 38 -224 38 -189 24.5 c 128,-1,24
 -154 11 -154 11 -156 -4 c 1,0,1
126 -4 m 1,25,26
 122 -12 122 -12 93.5 -9.5 c 128,-1,27
 65 -7 65 -7 33.5 12 c 128,-1,28
 2 31 2 31 -20.5 69.5 c 128,-1,29
 -43 108 -43 108 -36 174 c 0,30,31
 -24 279 -24 279 -32 346 c 128,-1,32
 -40 413 -40 413 -100 400 c 0,33,34
 -138 391 -138 391 -120 357.5 c 128,-1,35
 -102 324 -102 324 -143 311 c 0,36,37
 -161 305 -161 305 -176 318.5 c 128,-1,38
 -191 332 -191 332 -191 351 c 0,39,40
 -191 397 -191 397 -152 413 c 0,41,42
 -130 421 -130 421 -93 421 c 128,-1,43
 -56 421 -56 421 -28 403 c 0,44,45
 26 367 26 367 42 323.5 c 128,-1,46
 58 280 58 280 59 117 c 0,47,48
 59 38 59 38 93.5 24.5 c 128,-1,49
 128 11 128 11 126 -4 c 1,25,26
EndSplineSet
EndChar

StartChar: M
Encoding: 77 77 39
Width: 36
VWidth: 345
Flags: W
LayerCount: 2
Fore
SplineSet
-375 194 m 0,0,1
 -413 167 -413 167 -425 122 c 0,2,3
 -433 87 -433 87 -426 55 c 0,4,5
 -418 23 -418 23 -358 55 c 0,6,7
 -324 73 -324 73 -321 87 c 1,8,9
 -315 99 -315 99 -310 122 c 0,10,11
 -298 172 -298 172 -313 261 c 0,12,13
 -316 280 -316 280 -317 326 c 0,14,15
 -317 371 -317 371 -290 415 c 0,16,17
 -275 439 -275 439 -243 445 c 0,18,19
 -212 450 -212 450 -189 449 c 0,20,21
 -136 449 -136 449 -111 400 c 1,22,23
 -107 357 -107 357 -107 335 c 0,24,25
 -108 309 -108 309 -106 287 c 0,26,27
 -100 247 -100 247 -96 232 c 0,28,29
 -93 219 -93 219 -53 216 c 1,30,31
 -19 204 -19 204 -17 154 c 0,32,33
 -16 121 -16 121 -19 88.5 c 128,-1,34
 -22 56 -22 56 -17 24 c 0,35,36
 -16 13 -16 13 -9 -11 c 0,37,38
 -4 -26 -4 -26 26 -36 c 0,39,40
 35 -39 l 1,41,42
 35 -43 35 -43 -0.5 -38.5 c 128,-1,43
 -36 -34 -36 -34 -45 -30 c 0,44,45
 -86 -12 -86 -12 -96 36 c 0,46,47
 -102 66 -102 66 -100 97 c 128,-1,48
 -98 128 -98 128 -104 158 c 0,49,50
 -114 218 -114 218 -133 218 c 0,51,52
 -151 217 -151 217 -173 242 c 0,53,54
 -194 267 -194 267 -186 316 c 0,55,56
 -176 364 -176 364 -200 374 c 0,57,58
 -208 377 -208 377 -235 379 c 0,59,60
 -260 379 -260 379 -271 366 c 1,61,62
 -285 345 -285 345 -284 318 c 0,63,64
 -284 299 -284 299 -287 262 c 1,65,66
 -283 175 -283 175 -283 109 c 0,67,68
 -284 77 -284 77 -292 52 c 0,69,70
 -304 14 -304 14 -334 0 c 1,71,72
 -408 -41 -408 -41 -457 15 c 0,73,74
 -468 30 -468 30 -479 58 c 256,75,76
 -490 86 -490 86 -482 128 c 0,77,78
 -465 195 -465 195 -414 218 c 1,79,80
 -375 233 -375 233 -364 233 c 1,81,82
 -349 237 -349 237 -325 232 c 1,83,84
 -302 219 -302 219 -325 216 c 256,85,86
 -347 213 -347 213 -375 194 c 0,0,1
EndSplineSet
EndChar

StartChar: H
Encoding: 72 72 40
Width: 18
VWidth: 345
Flags: W
LayerCount: 2
Fore
SplineSet
-465 949 m 0,0,1
 -391 949 -391 949 -316.5 949.5 c 128,-1,2
 -242 950 -242 950 -169 951 c 1,3,4
 -164 944 -164 944 -165 933 c 128,-1,5
 -166 922 -166 922 -168 914 c 1,6,7
 -183 911 -183 911 -266.5 911 c 128,-1,8
 -350 911 -350 911 -412 911 c 1,9,10
 -412 859 -412 859 -409.5 805 c 128,-1,11
 -407 751 -407 751 -413 750 c 0,12,13
 -428 750 -428 750 -445.5 747.5 c 128,-1,14
 -463 745 -463 745 -476 750 c 0,15,16
 -477 750 -477 750 -478 760 c 0,17,18
 -477 761 l 0,19,-1
 -476 762 l 0,20,21
 -476 815 -476 815 -475.5 848 c 128,-1,22
 -475 881 -475 881 -475 933 c 0,23,24
 -475 948 -475 948 -465 949 c 0,0,1
-77 928 m 2,25,-1
 -34 928 l 2,26,27
 -31 928 -31 928 -23 927.5 c 128,-1,28
 -15 927 -15 927 -13 925 c 0,29,30
 -10 922 -10 922 -13.5 922 c 128,-1,31
 -17 922 -17 922 -20 906 c 2,32,-1
 -24 872 l 2,33,34
 -26 850 -26 850 -45 850 c 2,35,-1
 -87 850 l 2,36,37
 -91 850 -91 850 -100 850.5 c 128,-1,38
 -109 851 -109 851 -110 855 c 0,39,40
 -110 859 -110 859 -106.5 860.5 c 128,-1,41
 -103 862 -103 862 -102 872 c 2,42,-1
 -98 906 l 2,43,44
 -94 928 -94 928 -77 928 c 2,25,-1
EndSplineSet
EndChar

StartChar: G
Encoding: 71 71 41
Width: 402
VWidth: 345
Flags: W
LayerCount: 2
Fore
SplineSet
17 292 m 2,0,1
 18 292 18 292 18 291 c 256,2,3
 18 290 18 290 17 290 c 2,4,5
 17 290.5 l 0,6,-1
 17 291 l 2,7,8
 17 291.5 l 0,9,-1
 17 292 l 2,0,1
358 447 m 0,10,11
 381 447 381 447 380.5 433 c 128,-1,12
 380 419 380 419 364 417 c 0,13,14
 337 411 337 411 328 394 c 0,15,16
 292 308 292 308 272.5 243 c 128,-1,17
 253 178 253 178 223 166 c 1,18,19
 191 162 191 162 155.5 161 c 128,-1,20
 120 160 120 160 85 166 c 1,21,22
 70 172 70 172 75 179 c 128,-1,23
 80 186 80 186 90 189 c 0,24,25
 100 191 100 191 111 213 c 0,26,27
 146 275 146 275 169.5 353.5 c 128,-1,28
 193 432 193 432 219 441 c 0,29,30
 253 451 253 451 288 449 c 128,-1,31
 323 447 323 447 358 447 c 0,10,11
EndSplineSet
EndChar

StartChar: h
Encoding: 104 104 42
Width: 18
VWidth: 345
Flags: W
LayerCount: 2
Fore
SplineSet
-794 797 m 0,0,1
 -720 797 -720 797 -645.5 797.5 c 128,-1,2
 -571 798 -571 798 -498 799 c 1,3,4
 -493 792 -493 792 -494 781 c 128,-1,5
 -495 770 -495 770 -498 762 c 1,6,7
 -513 759 -513 759 -596 759 c 128,-1,8
 -679 759 -679 759 -741 759 c 1,9,10
 -741 708 -741 708 -738.5 642.5 c 128,-1,11
 -736 577 -736 577 -742 577 c 0,12,13
 -757 577 -757 577 -774.5 575 c 128,-1,14
 -792 573 -792 573 -805 577 c 0,15,16
 -807 577 -807 577 -807 587 c 0,17,18
 -806 588 l 0,19,-1
 -805 589 l 0,20,21
 -805 642 -805 642 -804.5 685 c 128,-1,22
 -804 728 -804 728 -804 782 c 0,23,24
 -804 795 -804 795 -794 797 c 0,0,1
-406 776 m 2,25,-1
 -363 776 l 2,26,27
 -359 776 -359 776 -351.5 775.5 c 128,-1,28
 -344 775 -344 775 -341 773 c 0,29,30
 -338 770 -338 770 -342 770 c 128,-1,31
 -346 770 -346 770 -349 754 c 2,32,-1
 -353 720 l 2,33,34
 -356 699 -356 699 -374 698 c 2,35,-1
 -416 698 l 2,36,37
 -419 698 -419 698 -428.5 698.5 c 128,-1,38
 -438 699 -438 699 -438 702 c 0,39,40
 -438 706 -438 706 -435 707.5 c 128,-1,41
 -432 709 -432 709 -431 720 c 2,42,-1
 -426 754 l 2,43,44
 -424 776 -424 776 -406 776 c 2,25,-1
EndSplineSet
EndChar

StartChar: g
Encoding: 103 103 43
Width: 0
VWidth: 345
Flags: W
LayerCount: 2
Fore
SplineSet
-55 725 m 1,0,1
 -55 760 -55 760 -54 792 c 128,-1,2
 -53 824 -53 824 -53 863 c 0,3,4
 -53 875 -53 875 -43 877 c 0,5,6
 30 878 30 878 104.5 878 c 128,-1,7
 179 878 179 878 253 879 c 1,8,9
 261 868 261 868 253 845 c 1,10,11
 238 842 238 842 154.5 842.5 c 128,-1,12
 71 843 71 843 10 843 c 1,13,14
 10 795 10 795 11.5 745.5 c 128,-1,15
 13 696 13 696 8 696 c 0,16,17
 -1 694 -1 694 -8.5 692.5 c 128,-1,18
 -16 691 -16 691 -54 692 c 1,19,20
 -95 691 -95 691 -147 690 c 128,-1,21
 -199 689 -199 689 -238 689 c 1,22,23
 -238 641 -238 641 -236.5 591 c 128,-1,24
 -235 541 -235 541 -240 541 c 0,25,26
 -256 541 -256 541 -273.5 539 c 128,-1,27
 -291 537 -291 537 -303 541 c 0,28,29
 -304 541 -304 541 -305 551 c 1,30,31
 -304 551.5 l 0,32,33
 -303 552 -303 552 -303 553 c 0,34,35
 -303 602 -303 602 -302 631 c 128,-1,36
 -301 660 -301 660 -301 710 c 0,37,38
 -301 722 -301 722 -291 723 c 0,39,40
 -232 723 -232 723 -173 724 c 128,-1,41
 -114 725 -114 725 -55 725 c 1,0,1
EndSplineSet
EndChar

StartChar: x
Encoding: 120 120 44
Width: 618
VWidth: 345
Flags: W
LayerCount: 2
Fore
SplineSet
288 619 m 0,0,1
 361 620 361 620 435.5 620 c 128,-1,2
 510 620 510 620 584 622 c 1,3,4
 589 615 589 615 588 604 c 128,-1,5
 587 593 587 593 584 585 c 1,6,7
 569 582 569 582 485.5 582 c 128,-1,8
 402 582 402 582 341 582 c 1,9,10
 341 531 341 531 343.5 466 c 128,-1,11
 346 401 346 401 340 400 c 0,12,13
 324 400 324 400 307 398 c 128,-1,14
 290 396 290 396 277 400 c 0,15,16
 275 400 275 400 275 410 c 0,17,18
 276 410.5 l 0,19,20
 277 411 277 411 277 412 c 0,21,22
 277 465 277 465 277.5 508 c 128,-1,23
 278 551 278 551 278 604 c 0,24,25
 278 618 278 618 288 619 c 0,0,1
519 315 m 1,26,27
 479 232 479 232 439 154 c 128,-1,28
 399 76 399 76 362 -9 c 1,29,30
 366 -58 366 -58 373 -95.5 c 128,-1,31
 380 -133 380 -133 396 -172 c 0,32,33
 420 -229 420 -229 443 -239.5 c 128,-1,34
 466 -250 466 -250 494 -239 c 1,35,36
 512 -228 512 -228 533.5 -226.5 c 128,-1,37
 555 -225 555 -225 566 -240 c 0,38,39
 579 -259 579 -259 576 -276 c 128,-1,40
 573 -293 573 -293 566 -307 c 0,41,42
 549 -341 549 -341 501 -339 c 0,43,44
 444 -337 444 -337 412 -282 c 0,45,46
 395 -255 395 -255 385 -230.5 c 128,-1,47
 375 -206 375 -206 371 -191 c 256,48,49
 367 -176 367 -176 356.5 -143.5 c 128,-1,50
 346 -111 346 -111 342 -58 c 1,51,52
 311 -124 311 -124 280 -190.5 c 128,-1,53
 249 -257 249 -257 218 -322 c 1,54,55
 195 -332 195 -332 165.5 -331.5 c 128,-1,56
 136 -331 136 -331 126 -323 c 0,57,58
 122 -320 122 -320 123 -315.5 c 128,-1,59
 124 -311 124 -311 124 -310 c 0,60,61
 152 -254 152 -254 197.5 -168.5 c 128,-1,62
 243 -83 243 -83 275 -9 c 0,63,64
 282 9 282 9 271.5 60.5 c 128,-1,65
 261 112 261 112 249 154 c 0,66,67
 243 175 243 175 234 199 c 128,-1,68
 225 223 225 223 208 223 c 0,69,70
 192 223 192 223 179 221.5 c 128,-1,71
 166 220 166 220 147 224 c 0,72,73
 134 226 134 226 127.5 246 c 128,-1,74
 121 266 121 266 129 287 c 0,75,76
 137 306 137 306 155.5 310.5 c 128,-1,77
 174 315 174 315 188 314 c 0,78,79
 204 313 204 313 217.5 300.5 c 128,-1,80
 231 288 231 288 237 277 c 0,81,82
 260 229 260 229 278 165 c 128,-1,83
 296 101 296 101 305 52 c 1,84,85
 342 130 342 130 365.5 183.5 c 128,-1,86
 389 237 389 237 426 315 c 1,87,88
 452 318 452 318 477.5 319 c 128,-1,89
 503 320 503 320 519 315 c 1,26,27
EndSplineSet
EndChar

StartChar: s
Encoding: 115 115 45
Width: 608
VWidth: 345
Flags: W
LayerCount: 2
Fore
SplineSet
519 315 m 1,0,1
 479 232 479 232 439 154 c 128,-1,2
 399 76 399 76 362 -9 c 1,3,4
 366 -58 366 -58 373 -95.5 c 128,-1,5
 380 -133 380 -133 396 -172 c 0,6,7
 420 -229 420 -229 443 -239.5 c 128,-1,8
 466 -250 466 -250 494 -239 c 1,9,10
 512 -228 512 -228 533.5 -226.5 c 128,-1,11
 555 -225 555 -225 566 -240 c 0,12,13
 579 -259 579 -259 576 -276 c 128,-1,14
 573 -293 573 -293 566 -307 c 0,15,16
 549 -341 549 -341 501 -339 c 0,17,18
 444 -337 444 -337 412 -282 c 0,19,20
 395 -255 395 -255 385 -230.5 c 128,-1,21
 375 -206 375 -206 371 -191 c 256,22,23
 367 -176 367 -176 356.5 -143.5 c 128,-1,24
 346 -111 346 -111 342 -58 c 1,25,26
 311 -124 311 -124 280 -190.5 c 128,-1,27
 249 -257 249 -257 218 -322 c 1,28,29
 195 -332 195 -332 165.5 -331.5 c 128,-1,30
 136 -331 136 -331 126 -323 c 0,31,32
 122 -320 122 -320 123 -315.5 c 128,-1,33
 124 -311 124 -311 124 -310 c 0,34,35
 152 -254 152 -254 197.5 -168.5 c 128,-1,36
 243 -83 243 -83 275 -9 c 0,37,38
 282 9 282 9 271.5 60.5 c 128,-1,39
 261 112 261 112 249 154 c 0,40,41
 243 175 243 175 234 199 c 128,-1,42
 225 223 225 223 208 223 c 0,43,44
 192 223 192 223 179 221.5 c 128,-1,45
 166 220 166 220 147 224 c 0,46,47
 134 226 134 226 127.5 246 c 128,-1,48
 121 266 121 266 129 287 c 0,49,50
 137 306 137 306 155.5 310.5 c 128,-1,51
 174 315 174 315 188 314 c 0,52,53
 204 313 204 313 217.5 300.5 c 128,-1,54
 231 288 231 288 237 277 c 0,55,56
 260 229 260 229 278 165 c 128,-1,57
 296 101 296 101 305 52 c 1,58,59
 342 130 342 130 365.5 183.5 c 128,-1,60
 389 237 389 237 426 315 c 1,61,62
 452 318 452 318 477.5 319 c 128,-1,63
 503 320 503 320 519 315 c 1,0,1
380 619 m 0,64,65
 389 618 389 618 389 604 c 0,66,67
 389 551 389 551 389.5 508 c 128,-1,68
 390 465 390 465 390 412 c 1,69,70
 392 408 392 408 392 410 c 1,71,72
 392 400 392 400 391 400 c 0,73,74
 378 396 378 396 360 398 c 128,-1,75
 342 400 342 400 328 400 c 0,76,77
 322 400 322 400 324 465.5 c 128,-1,78
 326 531 326 531 326 582 c 1,79,80
 264 582 264 582 181 582 c 128,-1,81
 98 582 98 582 83 585 c 1,82,83
 80 592 80 592 79 603.5 c 128,-1,84
 78 615 78 615 83 622 c 1,85,86
 156 621 156 621 231 620.5 c 128,-1,87
 306 620 306 620 380 619 c 0,64,65
EndSplineSet
EndChar

StartChar: X
Encoding: 88 88 46
Width: 826
VWidth: 345
Flags: W
LayerCount: 2
Fore
SplineSet
519 315 m 1,0,1
 479 232 479 232 439 154 c 128,-1,2
 399 76 399 76 362 -9 c 1,3,4
 366 -58 366 -58 373 -95.5 c 128,-1,5
 380 -133 380 -133 396 -172 c 0,6,7
 420 -229 420 -229 443 -239.5 c 128,-1,8
 466 -250 466 -250 494 -239 c 1,9,10
 512 -228 512 -228 533.5 -226.5 c 128,-1,11
 555 -225 555 -225 566 -240 c 0,12,13
 579 -259 579 -259 576 -276 c 128,-1,14
 573 -293 573 -293 566 -307 c 0,15,16
 549 -341 549 -341 501 -339 c 0,17,18
 444 -337 444 -337 412 -282 c 0,19,20
 395 -255 395 -255 385 -230.5 c 128,-1,21
 375 -206 375 -206 371 -191 c 256,22,23
 367 -176 367 -176 356.5 -143.5 c 128,-1,24
 346 -111 346 -111 342 -58 c 1,25,26
 311 -124 311 -124 280 -190.5 c 128,-1,27
 249 -257 249 -257 218 -322 c 1,28,29
 195 -332 195 -332 165.5 -331.5 c 128,-1,30
 136 -331 136 -331 126 -323 c 0,31,32
 122 -320 122 -320 123 -315.5 c 128,-1,33
 124 -311 124 -311 124 -310 c 0,34,35
 152 -254 152 -254 197.5 -168.5 c 128,-1,36
 243 -83 243 -83 275 -9 c 0,37,38
 282 9 282 9 271.5 60.5 c 128,-1,39
 261 112 261 112 249 154 c 0,40,41
 243 175 243 175 234 199 c 128,-1,42
 225 223 225 223 208 223 c 0,43,44
 192 223 192 223 179 221.5 c 128,-1,45
 166 220 166 220 147 224 c 0,46,47
 134 226 134 226 127.5 246 c 128,-1,48
 121 266 121 266 129 287 c 0,49,50
 137 306 137 306 155.5 310.5 c 128,-1,51
 174 315 174 315 188 314 c 0,52,53
 204 313 204 313 217.5 300.5 c 128,-1,54
 231 288 231 288 237 277 c 0,55,56
 260 229 260 229 278 165 c 128,-1,57
 296 101 296 101 305 52 c 1,58,59
 342 130 342 130 365.5 183.5 c 128,-1,60
 389 237 389 237 426 315 c 1,61,62
 452 318 452 318 477.5 319 c 128,-1,63
 503 320 503 320 519 315 c 1,0,1
480 564 m 1,64,65
 480 602 480 602 480.5 618.5 c 128,-1,66
 481 635 481 635 481 676 c 0,67,68
 481 689 481 689 490 691 c 0,69,70
 562 691 562 691 635 692.5 c 128,-1,71
 708 694 708 694 780 695 c 1,72,73
 787 685 787 685 780 663 c 1,74,75
 765 660 765 660 684 660 c 128,-1,76
 603 660 603 660 543 660 c 1,77,78
 543 609 543 609 542.5 595.5 c 128,-1,79
 542 582 542 582 542 531 c 1,80,81
 480 531 480 531 418.5 530.5 c 128,-1,82
 357 530 357 530 295 530 c 1,83,84
 295 479 295 479 294.5 462.5 c 128,-1,85
 294 446 294 446 294 394 c 1,86,87
 279 394 279 394 261.5 392 c 128,-1,88
 244 390 244 390 232 394 c 1,89,90
 232 450 232 450 232.5 470 c 128,-1,91
 233 490 233 490 233 546 c 0,92,93
 233 560 233 560 243 561 c 0,94,95
 303 561 303 561 361.5 562 c 128,-1,96
 420 563 420 563 480 564 c 1,64,65
EndSplineSet
EndChar

StartChar: S
Encoding: 83 83 47
Width: 766
VWidth: 345
Flags: W
LayerCount: 2
Fore
SplineSet
669 315 m 1,0,1
 629 232 629 232 589 154 c 128,-1,2
 549 76 549 76 513 -9 c 1,3,4
 517 -58 517 -58 523.5 -95.5 c 128,-1,5
 530 -133 530 -133 546 -172 c 0,6,7
 570 -229 570 -229 593.5 -239.5 c 128,-1,8
 617 -250 617 -250 645 -239 c 1,9,10
 663 -228 663 -228 684.5 -226.5 c 128,-1,11
 706 -225 706 -225 717 -240 c 0,12,13
 730 -259 730 -259 727 -276 c 128,-1,14
 724 -293 724 -293 716 -307 c 0,15,16
 699 -341 699 -341 652 -339 c 0,17,18
 595 -337 595 -337 562 -282 c 0,19,20
 545 -255 545 -255 535.5 -230.5 c 128,-1,21
 526 -206 526 -206 521 -191 c 256,22,23
 517 -176 517 -176 506.5 -143.5 c 128,-1,24
 496 -111 496 -111 493 -58 c 1,25,26
 434 -182 434 -182 368 -322 c 1,27,28
 344 -332 344 -332 315 -331.5 c 128,-1,29
 286 -331 286 -331 276 -323 c 0,30,31
 273 -320 273 -320 273.5 -315.5 c 128,-1,32
 274 -311 274 -311 274 -310 c 0,33,34
 302 -254 302 -254 347.5 -168.5 c 128,-1,35
 393 -83 393 -83 425 -9 c 0,36,37
 432 9 432 9 421.5 60.5 c 128,-1,38
 411 112 411 112 399 154 c 0,39,40
 393 175 393 175 384 199 c 128,-1,41
 375 223 375 223 358 223 c 0,42,43
 343 223 343 223 329 221.5 c 128,-1,44
 315 220 315 220 298 224 c 0,45,46
 285 226 285 226 278 246 c 128,-1,47
 271 266 271 266 279 287 c 0,48,49
 286 306 286 306 305 310.5 c 128,-1,50
 324 315 324 315 338 314 c 0,51,52
 354 313 354 313 367.5 300.5 c 128,-1,53
 381 288 381 288 387 277 c 0,54,55
 410 229 410 229 428 165 c 128,-1,56
 446 101 446 101 456 52 c 1,57,58
 493 130 493 130 516.5 183.5 c 128,-1,59
 540 237 540 237 577 315 c 1,60,61
 603 318 603 318 628 319 c 128,-1,62
 653 320 653 320 669 315 c 1,0,1
329 564 m 1,63,64
 388 563 388 563 447 562 c 128,-1,65
 506 561 506 561 566 561 c 0,66,67
 575 560 575 560 575 546 c 0,68,69
 575 490 575 490 576 470 c 128,-1,70
 577 450 577 450 577 394 c 1,71,72
 564 390 564 390 547 392 c 128,-1,73
 530 394 530 394 515 394 c 1,74,75
 515 445 515 445 514.5 462 c 128,-1,76
 514 479 514 479 514 530 c 1,77,78
 452 530 452 530 390 530.5 c 128,-1,79
 328 531 328 531 267 531 c 1,80,81
 267 582 267 582 266.5 595.5 c 128,-1,82
 266 609 266 609 266 660 c 1,83,84
 206 660 206 660 124.5 660 c 128,-1,85
 43 660 43 660 28 663 c 1,86,87
 21 684 21 684 28 695 c 1,88,89
 100 694 100 694 173 692.5 c 128,-1,90
 246 691 246 691 318 691 c 0,91,92
 327 690 327 690 328 676 c 0,93,94
 328 635 328 635 328.5 618.5 c 128,-1,95
 329 602 329 602 329 564 c 1,63,64
EndSplineSet
EndChar

StartChar: q
Encoding: 113 113 48
Width: 1236
VWidth: 345
Flags: W
LayerCount: 2
Fore
SplineSet
531 707 m 0,0,1
 561 707 561 707 594 706 c 128,-1,2
 627 705 627 705 653 700 c 1,3,4
 672 700 672 700 693 636 c 128,-1,5
 714 572 714 572 742 512 c 0,6,7
 751 491 751 491 761 488 c 0,8,9
 769 486 769 486 773.5 478 c 128,-1,10
 778 470 778 470 765 464 c 1,11,12
 734 458 734 458 703 459 c 128,-1,13
 672 460 672 460 645 464 c 1,14,15
 618 476 618 476 603 521.5 c 128,-1,16
 588 567 588 567 558 654 c 0,17,18
 555 659 555 659 546.5 669 c 128,-1,19
 538 679 538 679 528 681 c 0,20,21
 514 684 514 684 512 695.5 c 128,-1,22
 510 707 510 707 531 707 c 0,0,1
880 498 m 1,23,24
 918 512 918 512 1009 496 c 1,25,26
 1062 483 1062 483 1102.5 461 c 128,-1,27
 1143 439 1143 439 1165 384 c 1,28,29
 1180 331 1180 331 1175 299.5 c 128,-1,30
 1170 268 1170 268 1140 226 c 1,31,32
 1111 191 1111 191 1072.5 173.5 c 128,-1,33
 1034 156 1034 156 978 144 c 0,34,35
 922 133 922 133 887 133.5 c 128,-1,36
 852 134 852 134 811 135 c 0,37,38
 771 137 771 137 736.5 141.5 c 128,-1,39
 702 146 702 146 653 161 c 0,40,41
 572 183 572 183 493 222 c 0,42,43
 449 244 449 244 399.5 269.5 c 128,-1,44
 350 295 350 295 289 330 c 0,45,46
 261 347 261 347 227.5 366.5 c 128,-1,47
 194 386 194 386 156 406 c 1,48,49
 127 424 127 424 98.5 442 c 128,-1,50
 70 460 70 460 74.5 478.5 c 128,-1,51
 79 497 79 497 96 496 c 128,-1,52
 113 495 113 495 203 497 c 128,-1,53
 293 499 293 499 361 498 c 1,54,55
 388 478 388 478 360.5 469.5 c 128,-1,56
 333 461 333 461 319 448 c 0,57,58
 294 422 294 422 297 406.5 c 128,-1,59
 300 391 300 391 305.5 382.5 c 128,-1,60
 311 374 311 374 322 364.5 c 128,-1,61
 333 355 333 355 376 325 c 128,-1,62
 419 295 419 295 484 262 c 1,63,64
 542 237 542 237 575 221 c 128,-1,65
 608 205 608 205 682 185 c 1,66,67
 737 174 737 174 794 171.5 c 128,-1,68
 851 169 851 169 910 188 c 1,69,70
 951 206 951 206 967.5 219 c 128,-1,71
 984 232 984 232 1005 263 c 0,72,73
 1023 293 1023 293 1025.5 314 c 128,-1,74
 1028 335 1028 335 1026 362 c 0,75,76
 1025 390 1025 390 1019.5 402.5 c 128,-1,77
 1014 415 1014 415 1005.5 428 c 128,-1,78
 997 441 997 441 983.5 451.5 c 128,-1,79
 970 462 970 462 942 466 c 128,-1,80
 914 470 914 470 887 473 c 0,81,82
 875 475 875 475 871.5 483 c 128,-1,83
 868 491 868 491 880 498 c 1,23,24
543 1222 m 1,84,85
 559 1219 559 1219 557.5 1205.5 c 128,-1,86
 556 1192 556 1192 537 1190 c 1,87,88
 516 1183 516 1183 503.5 1137.5 c 128,-1,89
 491 1092 491 1092 476 1041 c 0,90,91
 442 922 442 922 414 848 c 128,-1,92
 386 774 386 774 361 744 c 128,-1,93
 336 714 336 714 301 699 c 0,94,95
 247 676 247 676 194.5 664.5 c 128,-1,96
 142 653 142 653 103 653 c 1,97,98
 122 608 122 608 167 590.5 c 128,-1,99
 212 573 212 573 193 553 c 0,100,101
 182 542 182 542 123.5 582 c 128,-1,102
 65 622 65 622 44 661 c 1,103,104
 44 686 44 686 64 682 c 128,-1,105
 84 678 84 678 108 676 c 256,106,107
 131 675 131 675 155.5 678.5 c 128,-1,108
 180 682 180 682 221 703 c 0,109,110
 241 713 241 713 259 748.5 c 128,-1,111
 277 784 277 784 291.5 827.5 c 128,-1,112
 306 871 306 871 316 913.5 c 128,-1,113
 326 956 326 956 342 1036 c 128,-1,114
 358 1116 358 1116 370 1143 c 128,-1,115
 382 1170 382 1170 403.5 1186.5 c 128,-1,116
 425 1203 425 1203 444.5 1208 c 128,-1,117
 464 1213 464 1213 487.5 1215.5 c 128,-1,118
 511 1218 511 1218 543 1222 c 1,84,85
1010 1343 m 1,119,120
 1025 1341 1025 1341 1023 1329.5 c 128,-1,121
 1021 1318 1021 1318 1004 1316 c 1,122,123
 985 1310 985 1310 973 1271.5 c 128,-1,124
 961 1233 961 1233 948 1190 c 0,125,126
 917 1089 917 1089 890.5 1027 c 128,-1,127
 864 965 864 965 841 940 c 128,-1,128
 818 915 818 915 786 902 c 0,129,130
 736 882 736 882 687 873 c 128,-1,131
 638 864 638 864 603 864 c 1,132,133
 621 825 621 825 662 810.5 c 128,-1,134
 703 796 703 796 686 779 c 0,135,136
 676 770 676 770 622 803.5 c 128,-1,137
 568 837 568 837 548 870 c 1,138,139
 548 891 548 891 566.5 887.5 c 128,-1,140
 585 884 585 884 607 883 c 0,141,142
 629 882 629 882 651.5 885 c 128,-1,143
 674 888 674 888 712 906 c 0,144,145
 731 915 731 915 747 944.5 c 128,-1,146
 763 974 763 974 776.5 1010.5 c 128,-1,147
 790 1047 790 1047 799.5 1082.5 c 128,-1,148
 809 1118 809 1118 823.5 1185.5 c 128,-1,149
 838 1253 838 1253 849 1276 c 128,-1,150
 860 1299 860 1299 880 1313 c 128,-1,151
 900 1327 900 1327 918 1331.5 c 128,-1,152
 936 1336 936 1336 958.5 1338 c 128,-1,153
 981 1340 981 1340 1010 1343 c 1,119,120
EndSplineSet
EndChar

StartChar: w
Encoding: 119 119 49
Width: 1360
VWidth: 345
Flags: W
LayerCount: 2
Fore
SplineSet
880 498 m 1,0,1
 918 512 918 512 1009 496 c 1,2,3
 1062 483 1062 483 1102.5 461 c 128,-1,4
 1143 439 1143 439 1165 384 c 1,5,6
 1180 331 1180 331 1175 299.5 c 128,-1,7
 1170 268 1170 268 1140 226 c 1,8,9
 1111 191 1111 191 1072.5 173.5 c 128,-1,10
 1034 156 1034 156 978 144 c 0,11,12
 922 133 922 133 887 133.5 c 128,-1,13
 852 134 852 134 811 135 c 0,14,15
 771 137 771 137 736.5 141.5 c 128,-1,16
 702 146 702 146 653 161 c 0,17,18
 572 183 572 183 493 222 c 0,19,20
 449 244 449 244 399.5 269.5 c 128,-1,21
 350 295 350 295 289 330 c 0,22,23
 261 347 261 347 227.5 366.5 c 128,-1,24
 194 386 194 386 156 406 c 1,25,26
 127 424 127 424 98.5 442 c 128,-1,27
 70 460 70 460 74.5 478.5 c 128,-1,28
 79 497 79 497 96 496 c 128,-1,29
 113 495 113 495 203 497 c 128,-1,30
 293 499 293 499 361 498 c 1,31,32
 388 478 388 478 360.5 469.5 c 128,-1,33
 333 461 333 461 319 448 c 0,34,35
 294 422 294 422 297 406.5 c 128,-1,36
 300 391 300 391 305.5 382.5 c 128,-1,37
 311 374 311 374 322 364.5 c 128,-1,38
 333 355 333 355 376 325 c 128,-1,39
 419 295 419 295 484 262 c 1,40,41
 542 237 542 237 575 221 c 128,-1,42
 608 205 608 205 682 185 c 1,43,44
 737 174 737 174 794 171.5 c 128,-1,45
 851 169 851 169 910 188 c 1,46,47
 951 206 951 206 967.5 219 c 128,-1,48
 984 232 984 232 1005 263 c 0,49,50
 1023 293 1023 293 1025.5 314 c 128,-1,51
 1028 335 1028 335 1026 362 c 0,52,53
 1025 390 1025 390 1019.5 402.5 c 128,-1,54
 1014 415 1014 415 1005.5 428 c 128,-1,55
 997 441 997 441 983.5 451.5 c 128,-1,56
 970 462 970 462 942 466 c 128,-1,57
 914 470 914 470 887 473 c 0,58,59
 875 475 875 475 871.5 483 c 128,-1,60
 868 491 868 491 880 498 c 1,0,1
1281 1222 m 1,61,62
 1297 1219 1297 1219 1295 1205.5 c 128,-1,63
 1293 1192 1293 1192 1274 1190 c 1,64,65
 1253 1183 1253 1183 1240.5 1137.5 c 128,-1,66
 1228 1092 1228 1092 1213 1041 c 0,67,68
 1179 922 1179 922 1151.5 848 c 128,-1,69
 1124 774 1124 774 1098.5 744 c 128,-1,70
 1073 714 1073 714 1038 699 c 0,71,72
 984 676 984 676 931.5 664.5 c 128,-1,73
 879 653 879 653 840 653 c 1,74,75
 859 608 859 608 904 590.5 c 128,-1,76
 949 573 949 573 930 553 c 0,77,78
 919 542 919 542 861 582 c 128,-1,79
 803 622 803 622 781 661 c 1,80,81
 781 686 781 686 801.5 682 c 128,-1,82
 822 678 822 678 845 676 c 256,83,84
 868 675 868 675 892.5 678.5 c 128,-1,85
 917 682 917 682 958 703 c 0,86,87
 978 713 978 713 996 748.5 c 128,-1,88
 1014 784 1014 784 1028.5 827.5 c 128,-1,89
 1043 871 1043 871 1053 913.5 c 128,-1,90
 1063 956 1063 956 1079.5 1036 c 128,-1,91
 1096 1116 1096 1116 1107.5 1143 c 128,-1,92
 1119 1170 1119 1170 1140.5 1186.5 c 128,-1,93
 1162 1203 1162 1203 1181.5 1208 c 128,-1,94
 1201 1213 1201 1213 1225 1215.5 c 128,-1,95
 1249 1218 1249 1218 1281 1222 c 1,61,62
905 1222 m 1,96,97
 921 1219 921 1219 919 1205.5 c 128,-1,98
 917 1192 917 1192 898 1190 c 1,99,100
 877 1183 877 1183 864.5 1137.5 c 128,-1,101
 852 1092 852 1092 837 1041 c 0,102,103
 803 922 803 922 775.5 848 c 128,-1,104
 748 774 748 774 722.5 744 c 128,-1,105
 697 714 697 714 662 699 c 0,106,107
 608 676 608 676 555.5 664.5 c 128,-1,108
 503 653 503 653 464 653 c 1,109,110
 483 608 483 608 528 590.5 c 128,-1,111
 573 573 573 573 554 553 c 0,112,113
 543 542 543 542 485 582 c 128,-1,114
 427 622 427 622 405 661 c 1,115,116
 405 686 405 686 425.5 682 c 128,-1,117
 446 678 446 678 469 676 c 256,118,119
 492 675 492 675 517 678.5 c 128,-1,120
 542 682 542 682 583 703 c 0,121,122
 603 713 603 713 620.5 748.5 c 128,-1,123
 638 784 638 784 652.5 827.5 c 128,-1,124
 667 871 667 871 677 913.5 c 128,-1,125
 687 956 687 956 703.5 1036 c 128,-1,126
 720 1116 720 1116 731.5 1143 c 128,-1,127
 743 1170 743 1170 764.5 1186.5 c 128,-1,128
 786 1203 786 1203 805.5 1208 c 128,-1,129
 825 1213 825 1213 849 1215.5 c 128,-1,130
 873 1218 873 1218 905 1222 c 1,96,97
543 1222 m 1,131,132
 559 1219 559 1219 557.5 1205.5 c 128,-1,133
 556 1192 556 1192 537 1190 c 1,134,135
 516 1183 516 1183 503.5 1137.5 c 128,-1,136
 491 1092 491 1092 476 1041 c 0,137,138
 442 922 442 922 414 848 c 128,-1,139
 386 774 386 774 361 744 c 128,-1,140
 336 714 336 714 301 699 c 0,141,142
 247 676 247 676 194.5 664.5 c 128,-1,143
 142 653 142 653 103 653 c 1,144,145
 122 608 122 608 167 590.5 c 128,-1,146
 212 573 212 573 193 553 c 0,147,148
 182 542 182 542 123.5 582 c 128,-1,149
 65 622 65 622 44 661 c 1,150,151
 44 686 44 686 64 682 c 128,-1,152
 84 678 84 678 108 676 c 256,153,154
 131 675 131 675 155.5 678.5 c 128,-1,155
 180 682 180 682 221 703 c 0,156,157
 241 713 241 713 259 748.5 c 128,-1,158
 277 784 277 784 291.5 827.5 c 128,-1,159
 306 871 306 871 316 913.5 c 128,-1,160
 326 956 326 956 342 1036 c 128,-1,161
 358 1116 358 1116 370 1143 c 128,-1,162
 382 1170 382 1170 403.5 1186.5 c 128,-1,163
 425 1203 425 1203 444.5 1208 c 128,-1,164
 464 1213 464 1213 487.5 1215.5 c 128,-1,165
 511 1218 511 1218 543 1222 c 1,131,132
EndSplineSet
EndChar

StartChar: e
Encoding: 101 101 50
Width: 1439
VWidth: 345
Flags: W
LayerCount: 2
Fore
SplineSet
606 707 m 0,0,1
 636 707 636 707 669 706 c 128,-1,2
 702 705 702 705 728 702 c 1,3,4
 747 702 747 702 768 653 c 128,-1,5
 789 604 789 604 817 557 c 0,6,7
 826 540 826 540 836 539 c 0,8,9
 843 537 843 537 848 531.5 c 128,-1,10
 853 526 853 526 840 521 c 1,11,12
 810 516 810 516 778.5 517 c 128,-1,13
 747 518 747 518 719 521 c 1,14,15
 693 530 693 530 678 565 c 128,-1,16
 663 600 663 600 632 666 c 0,17,18
 630 669 630 669 621.5 677.5 c 128,-1,19
 613 686 613 686 603 687 c 0,20,21
 588 689 588 689 586.5 698 c 128,-1,22
 585 707 585 707 606 707 c 0,0,1
336 707 m 0,23,24
 366 707 366 707 399 706 c 128,-1,25
 432 705 432 705 458 702 c 1,26,27
 477 702 477 702 498 653 c 128,-1,28
 519 604 519 604 547 557 c 0,29,30
 556 540 556 540 566 539 c 0,31,32
 574 537 574 537 578.5 531.5 c 128,-1,33
 583 526 583 526 570 521 c 1,34,35
 539 516 539 516 508 517 c 128,-1,36
 477 518 477 518 449 521 c 1,37,38
 423 530 423 530 408 565 c 128,-1,39
 393 600 393 600 362 666 c 0,40,41
 359 669 359 669 351 677.5 c 128,-1,42
 343 686 343 686 333 687 c 0,43,44
 319 689 319 689 317 698 c 128,-1,45
 315 707 315 707 336 707 c 0,23,24
880 498 m 1,46,47
 918 512 918 512 1009 496 c 1,48,49
 1062 483 1062 483 1102.5 461 c 128,-1,50
 1143 439 1143 439 1165 384 c 1,51,52
 1180 331 1180 331 1175 299.5 c 128,-1,53
 1170 268 1170 268 1140 226 c 1,54,55
 1111 191 1111 191 1072.5 173.5 c 128,-1,56
 1034 156 1034 156 978 144 c 0,57,58
 922 133 922 133 887 133.5 c 128,-1,59
 852 134 852 134 811 135 c 0,60,61
 771 137 771 137 736.5 141.5 c 128,-1,62
 702 146 702 146 653 161 c 0,63,64
 572 183 572 183 493 222 c 0,65,66
 449 244 449 244 399.5 269.5 c 128,-1,67
 350 295 350 295 289 330 c 0,68,69
 261 347 261 347 227.5 366.5 c 128,-1,70
 194 386 194 386 156 406 c 1,71,72
 127 424 127 424 98.5 442 c 128,-1,73
 70 460 70 460 74.5 478.5 c 128,-1,74
 79 497 79 497 96 496 c 128,-1,75
 113 495 113 495 203 497 c 128,-1,76
 293 499 293 499 361 498 c 1,77,78
 388 478 388 478 360.5 469.5 c 128,-1,79
 333 461 333 461 319 448 c 0,80,81
 294 422 294 422 297 406.5 c 128,-1,82
 300 391 300 391 305.5 382.5 c 128,-1,83
 311 374 311 374 322 364.5 c 128,-1,84
 333 355 333 355 376 325 c 128,-1,85
 419 295 419 295 484 262 c 1,86,87
 542 237 542 237 575 221 c 128,-1,88
 608 205 608 205 682 185 c 1,89,90
 737 174 737 174 794 171.5 c 128,-1,91
 851 169 851 169 910 188 c 1,92,93
 951 206 951 206 967.5 219 c 128,-1,94
 984 232 984 232 1005 263 c 0,95,96
 1023 293 1023 293 1025.5 314 c 128,-1,97
 1028 335 1028 335 1026 362 c 0,98,99
 1025 390 1025 390 1019.5 402.5 c 128,-1,100
 1014 415 1014 415 1005.5 428 c 128,-1,101
 997 441 997 441 983.5 451.5 c 128,-1,102
 970 462 970 462 942 466 c 128,-1,103
 914 470 914 470 887 473 c 0,104,105
 875 475 875 475 871.5 483 c 128,-1,106
 868 491 868 491 880 498 c 1,46,47
1354 1222 m 1,107,108
 1370 1219 1370 1219 1368 1205.5 c 128,-1,109
 1366 1192 1366 1192 1348 1190 c 1,110,111
 1327 1183 1327 1183 1314 1137.5 c 128,-1,112
 1301 1092 1301 1092 1287 1041 c 0,113,114
 1253 922 1253 922 1225 848 c 128,-1,115
 1197 774 1197 774 1171.5 744 c 128,-1,116
 1146 714 1146 714 1111 699 c 0,117,118
 1057 676 1057 676 1004.5 664.5 c 128,-1,119
 952 653 952 653 914 653 c 1,120,121
 933 608 933 608 977.5 590.5 c 128,-1,122
 1022 573 1022 573 1003 553 c 0,123,124
 992 542 992 542 934 582 c 128,-1,125
 876 622 876 622 854 661 c 1,126,127
 854 686 854 686 874.5 682 c 128,-1,128
 895 678 895 678 918 676 c 256,129,130
 941 675 941 675 966 678.5 c 128,-1,131
 991 682 991 682 1032 703 c 0,132,133
 1052 713 1052 713 1069.5 748.5 c 128,-1,134
 1087 784 1087 784 1101.5 827.5 c 128,-1,135
 1116 871 1116 871 1126 913.5 c 128,-1,136
 1136 956 1136 956 1152.5 1036 c 128,-1,137
 1169 1116 1169 1116 1180.5 1143 c 128,-1,138
 1192 1170 1192 1170 1213.5 1186.5 c 128,-1,139
 1235 1203 1235 1203 1254.5 1208 c 128,-1,140
 1274 1213 1274 1213 1298 1215.5 c 128,-1,141
 1322 1218 1322 1218 1354 1222 c 1,107,108
470 1222 m 1,142,143
 486 1219 486 1219 484 1205.5 c 128,-1,144
 482 1192 482 1192 464 1190 c 1,145,146
 443 1183 443 1183 430 1137.5 c 128,-1,147
 417 1092 417 1092 403 1041 c 0,148,149
 369 922 369 922 341 848 c 128,-1,150
 313 774 313 774 288 744 c 128,-1,151
 263 714 263 714 228 699 c 0,152,153
 174 676 174 676 121 664.5 c 128,-1,154
 68 653 68 653 30 653 c 1,155,156
 49 608 49 608 94 590.5 c 128,-1,157
 139 573 139 573 120 553 c 0,158,159
 109 542 109 542 50.5 582 c 128,-1,160
 -8 622 -8 622 -29 661 c 1,161,162
 -29 686 -29 686 -9 682 c 128,-1,163
 11 678 11 678 35 676 c 256,164,165
 58 675 58 675 82.5 678.5 c 128,-1,166
 107 682 107 682 148 703 c 0,167,168
 168 713 168 713 186 748.5 c 128,-1,169
 204 784 204 784 218 827.5 c 128,-1,170
 232 871 232 871 242 913.5 c 128,-1,171
 252 956 252 956 268.5 1036 c 128,-1,172
 285 1116 285 1116 297 1143 c 128,-1,173
 309 1170 309 1170 330.5 1186.5 c 128,-1,174
 352 1203 352 1203 371.5 1208 c 128,-1,175
 391 1213 391 1213 414.5 1215.5 c 128,-1,176
 438 1218 438 1218 470 1222 c 1,142,143
907 1348 m 1,177,178
 922 1346 922 1346 920 1334.5 c 128,-1,179
 918 1323 918 1323 901 1321 c 1,180,181
 882 1315 882 1315 870 1276.5 c 128,-1,182
 858 1238 858 1238 845 1195 c 0,183,184
 814 1094 814 1094 788 1032 c 128,-1,185
 762 970 762 970 738.5 945 c 128,-1,186
 715 920 715 920 683 907 c 0,187,188
 633 887 633 887 584.5 877.5 c 128,-1,189
 536 868 536 868 500 868 c 1,190,191
 518 829 518 829 559.5 815 c 128,-1,192
 601 801 601 801 583 783 c 0,193,194
 573 774 573 774 519 808 c 128,-1,195
 465 842 465 842 445 875 c 1,196,197
 445 896 445 896 464 892.5 c 128,-1,198
 483 889 483 889 504 887 c 0,199,200
 526 886 526 886 548.5 889.5 c 128,-1,201
 571 893 571 893 609 910 c 0,202,203
 628 919 628 919 644.5 949 c 128,-1,204
 661 979 661 979 674.5 1015.5 c 128,-1,205
 688 1052 688 1052 697 1087.5 c 128,-1,206
 706 1123 706 1123 721 1190.5 c 128,-1,207
 736 1258 736 1258 747 1281 c 128,-1,208
 758 1304 758 1304 777.5 1318 c 128,-1,209
 797 1332 797 1332 815 1336.5 c 128,-1,210
 833 1341 833 1341 855.5 1343 c 128,-1,211
 878 1345 878 1345 907 1348 c 1,177,178
EndSplineSet
EndChar

StartChar: r
Encoding: 114 114 51
Width: 1439
VWidth: 345
Flags: W
LayerCount: 2
Fore
SplineSet
486 707 m 0,0,1
 516 707 516 707 549 706 c 128,-1,2
 582 705 582 705 608 700 c 1,3,4
 627 700 627 700 648 636 c 128,-1,5
 669 572 669 572 697 512 c 0,6,7
 705 491 705 491 716 488 c 0,8,9
 723 486 723 486 728 478 c 128,-1,10
 733 470 733 470 720 464 c 1,11,12
 690 458 690 458 658.5 459 c 128,-1,13
 627 460 627 460 599 464 c 1,14,15
 573 476 573 476 558 521.5 c 128,-1,16
 543 567 543 567 512 654 c 0,17,18
 509 659 509 659 501 669 c 128,-1,19
 493 679 493 679 482 681 c 0,20,21
 468 684 468 684 466.5 695.5 c 128,-1,22
 465 707 465 707 486 707 c 0,0,1
880 498 m 1,23,24
 918 512 918 512 1009 496 c 1,25,26
 1062 483 1062 483 1102.5 461 c 128,-1,27
 1143 439 1143 439 1165 384 c 1,28,29
 1180 331 1180 331 1175 299.5 c 128,-1,30
 1170 268 1170 268 1140 226 c 1,31,32
 1111 191 1111 191 1072.5 173.5 c 128,-1,33
 1034 156 1034 156 978 144 c 0,34,35
 922 133 922 133 887 133.5 c 128,-1,36
 852 134 852 134 811 135 c 0,37,38
 771 137 771 137 736.5 141.5 c 128,-1,39
 702 146 702 146 653 161 c 0,40,41
 572 183 572 183 493 222 c 0,42,43
 449 244 449 244 399.5 269.5 c 128,-1,44
 350 295 350 295 289 330 c 0,45,46
 261 347 261 347 227.5 366.5 c 128,-1,47
 194 386 194 386 156 406 c 1,48,49
 127 424 127 424 98.5 442 c 128,-1,50
 70 460 70 460 74.5 478.5 c 128,-1,51
 79 497 79 497 96 496 c 128,-1,52
 113 495 113 495 203 497 c 128,-1,53
 293 499 293 499 361 498 c 1,54,55
 388 478 388 478 360.5 469.5 c 128,-1,56
 333 461 333 461 319 448 c 0,57,58
 294 422 294 422 297 406.5 c 128,-1,59
 300 391 300 391 305.5 382.5 c 128,-1,60
 311 374 311 374 322 364.5 c 128,-1,61
 333 355 333 355 376 325 c 128,-1,62
 419 295 419 295 484 262 c 1,63,64
 542 237 542 237 575 221 c 128,-1,65
 608 205 608 205 682 185 c 1,66,67
 737 174 737 174 794 171.5 c 128,-1,68
 851 169 851 169 910 188 c 1,69,70
 951 206 951 206 967.5 219 c 128,-1,71
 984 232 984 232 1005 263 c 0,72,73
 1023 293 1023 293 1025.5 314 c 128,-1,74
 1028 335 1028 335 1026 362 c 0,75,76
 1025 390 1025 390 1019.5 402.5 c 128,-1,77
 1014 415 1014 415 1005.5 428 c 128,-1,78
 997 441 997 441 983.5 451.5 c 128,-1,79
 970 462 970 462 942 466 c 128,-1,80
 914 470 914 470 887 473 c 0,81,82
 875 475 875 475 871.5 483 c 128,-1,83
 868 491 868 491 880 498 c 1,23,24
1354 1222 m 1,84,85
 1370 1219 1370 1219 1368 1205.5 c 128,-1,86
 1366 1192 1366 1192 1348 1190 c 1,87,88
 1327 1183 1327 1183 1314 1137.5 c 128,-1,89
 1301 1092 1301 1092 1287 1041 c 0,90,91
 1253 922 1253 922 1225 848 c 128,-1,92
 1197 774 1197 774 1171.5 744 c 128,-1,93
 1146 714 1146 714 1111 699 c 0,94,95
 1057 676 1057 676 1004.5 664.5 c 128,-1,96
 952 653 952 653 914 653 c 1,97,98
 933 608 933 608 977.5 590.5 c 128,-1,99
 1022 573 1022 573 1003 553 c 0,100,101
 992 542 992 542 934 582 c 128,-1,102
 876 622 876 622 854 661 c 1,103,104
 854 686 854 686 874.5 682 c 128,-1,105
 895 678 895 678 918 676 c 256,106,107
 941 675 941 675 966 678.5 c 128,-1,108
 991 682 991 682 1032 703 c 0,109,110
 1052 713 1052 713 1069.5 748.5 c 128,-1,111
 1087 784 1087 784 1101.5 827.5 c 128,-1,112
 1116 871 1116 871 1126 913.5 c 128,-1,113
 1136 956 1136 956 1152.5 1036 c 128,-1,114
 1169 1116 1169 1116 1180.5 1143 c 128,-1,115
 1192 1170 1192 1170 1213.5 1186.5 c 128,-1,116
 1235 1203 1235 1203 1254.5 1208 c 128,-1,117
 1274 1213 1274 1213 1298 1215.5 c 128,-1,118
 1322 1218 1322 1218 1354 1222 c 1,84,85
470 1222 m 1,119,120
 486 1219 486 1219 484 1205.5 c 128,-1,121
 482 1192 482 1192 464 1190 c 1,122,123
 443 1183 443 1183 430 1137.5 c 128,-1,124
 417 1092 417 1092 403 1041 c 0,125,126
 369 922 369 922 341 848 c 128,-1,127
 313 774 313 774 288 744 c 128,-1,128
 263 714 263 714 228 699 c 0,129,130
 174 676 174 676 121 664.5 c 128,-1,131
 68 653 68 653 30 653 c 1,132,133
 49 608 49 608 94 590.5 c 128,-1,134
 139 573 139 573 120 553 c 0,135,136
 109 542 109 542 50.5 582 c 128,-1,137
 -8 622 -8 622 -29 661 c 1,138,139
 -29 686 -29 686 -9 682 c 128,-1,140
 11 678 11 678 35 676 c 256,141,142
 58 675 58 675 82.5 678.5 c 128,-1,143
 107 682 107 682 148 703 c 0,144,145
 168 713 168 713 186 748.5 c 128,-1,146
 204 784 204 784 218 827.5 c 128,-1,147
 232 871 232 871 242 913.5 c 128,-1,148
 252 956 252 956 268.5 1036 c 128,-1,149
 285 1116 285 1116 297 1143 c 128,-1,150
 309 1170 309 1170 330.5 1186.5 c 128,-1,151
 352 1203 352 1203 371.5 1208 c 128,-1,152
 391 1213 391 1213 414.5 1215.5 c 128,-1,153
 438 1218 438 1218 470 1222 c 1,119,120
966 1348 m 1,154,155
 981 1346 981 1346 979 1334.5 c 128,-1,156
 977 1323 977 1323 960 1321 c 1,157,158
 941 1315 941 1315 929 1276.5 c 128,-1,159
 917 1238 917 1238 904 1195 c 0,160,161
 873 1094 873 1094 846.5 1032 c 128,-1,162
 820 970 820 970 797 945 c 128,-1,163
 774 920 774 920 742 907 c 0,164,165
 692 887 692 887 643 877.5 c 128,-1,166
 594 868 594 868 559 868 c 1,167,168
 577 829 577 829 618 815 c 128,-1,169
 659 801 659 801 642 783 c 0,170,171
 632 774 632 774 578 808 c 128,-1,172
 524 842 524 842 504 875 c 1,173,174
 504 896 504 896 523 892.5 c 128,-1,175
 542 889 542 889 563 887 c 0,176,177
 585 886 585 886 607.5 889.5 c 128,-1,178
 630 893 630 893 668 910 c 0,179,180
 687 919 687 919 703 949 c 128,-1,181
 719 979 719 979 732.5 1015.5 c 128,-1,182
 746 1052 746 1052 755.5 1087.5 c 128,-1,183
 765 1123 765 1123 779.5 1190.5 c 128,-1,184
 794 1258 794 1258 805 1281 c 128,-1,185
 816 1304 816 1304 836 1318 c 128,-1,186
 856 1332 856 1332 874 1336.5 c 128,-1,187
 892 1341 892 1341 914.5 1343 c 128,-1,188
 937 1345 937 1345 966 1348 c 1,154,155
EndSplineSet
EndChar

StartChar: Q
Encoding: 81 81 52
Width: 1236
VWidth: 345
Flags: W
LayerCount: 2
Fore
SplineSet
899 696 m 1,0,-1
 908 657 l 2,1,2
 908 653 908 653 918.5 638 c 128,-1,3
 929 623 929 623 929 619 c 128,-1,4
 929 615 929 615 912.5 611.5 c 128,-1,5
 896 608 896 608 890 608 c 2,6,-1
 829 608 l 2,7,8
 817 608 817 608 806.5 625 c 0,9,10
 796 641 796 641 793 657 c 2,11,-1
 785 696 l 1,12,13
 668 696 668 696 570 705 c 128,-1,14
 472 714 472 714 431 721 c 0,15,16
 355 733 355 733 305.5 763 c 128,-1,17
 256 793 256 793 240 831 c 0,18,19
 232 850 232 850 211 887.5 c 128,-1,20
 190 925 190 925 167 963 c 128,-1,21
 144 1001 144 1001 123.5 1031 c 128,-1,22
 103 1061 103 1061 95 1065 c 0,23,24
 53 1079 53 1079 77 1095 c 1,25,26
 127 1099 127 1099 173 1100.5 c 128,-1,27
 219 1102 219 1102 267 1098 c 0,28,29
 315 1095 315 1095 335.5 1043 c 128,-1,30
 356 991 356 991 377 907 c 0,31,32
 398 822 398 822 428.5 792 c 128,-1,33
 459 762 459 762 534 742 c 0,34,35
 610 721 610 721 781 725 c 1,36,-1
 769 794 l 2,37,38
 768 799 768 799 759 807.5 c 128,-1,39
 750 816 750 816 750 821 c 0,40,41
 750 827 750 827 766 829 c 128,-1,42
 782 831 782 831 789 831 c 2,43,-1
 850 831 l 2,44,45
 861 831 861 831 871.5 815.5 c 128,-1,46
 882 800 882 800 886 782 c 2,47,-1
 896 726 l 1,48,49
 963 727 963 727 987 730.5 c 128,-1,50
 1011 734 1011 734 1040 738 c 1,51,52
 1051 737 1051 737 1053 728 c 128,-1,53
 1055 719 1055 719 1048 712 c 0,54,55
 1038 704 1038 704 1007 700 c 128,-1,56
 976 696 976 696 899 696 c 1,0,-1
880 498 m 1,57,58
 918 512 918 512 1009 496 c 1,59,60
 1062 483 1062 483 1102.5 461 c 128,-1,61
 1143 439 1143 439 1165 384 c 1,62,63
 1180 331 1180 331 1175 299.5 c 128,-1,64
 1170 268 1170 268 1140 226 c 1,65,66
 1111 191 1111 191 1072.5 173.5 c 128,-1,67
 1034 156 1034 156 978 144 c 0,68,69
 922 133 922 133 887 133.5 c 128,-1,70
 852 134 852 134 811 135 c 0,71,72
 771 137 771 137 736.5 141.5 c 128,-1,73
 702 146 702 146 653 161 c 0,74,75
 572 183 572 183 493 222 c 0,76,77
 449 244 449 244 399.5 269.5 c 128,-1,78
 350 295 350 295 289 330 c 0,79,80
 261 347 261 347 227.5 366.5 c 128,-1,81
 194 386 194 386 156 406 c 1,82,83
 127 424 127 424 98.5 442 c 128,-1,84
 70 460 70 460 74.5 478.5 c 128,-1,85
 79 497 79 497 96 496 c 128,-1,86
 113 495 113 495 203 497 c 128,-1,87
 293 499 293 499 361 498 c 1,88,89
 388 478 388 478 360.5 469.5 c 128,-1,90
 333 461 333 461 319 448 c 0,91,92
 294 422 294 422 297 406.5 c 128,-1,93
 300 391 300 391 305.5 382.5 c 128,-1,94
 311 374 311 374 322 364.5 c 128,-1,95
 333 355 333 355 376 325 c 128,-1,96
 419 295 419 295 484 262 c 1,97,98
 542 237 542 237 575 221 c 128,-1,99
 608 205 608 205 682 185 c 1,100,101
 737 174 737 174 794 171.5 c 128,-1,102
 851 169 851 169 910 188 c 1,103,104
 951 206 951 206 967.5 219 c 128,-1,105
 984 232 984 232 1005 263 c 0,106,107
 1023 293 1023 293 1025.5 314 c 128,-1,108
 1028 335 1028 335 1026 362 c 0,109,110
 1025 390 1025 390 1019.5 402.5 c 128,-1,111
 1014 415 1014 415 1005.5 428 c 128,-1,112
 997 441 997 441 983.5 451.5 c 128,-1,113
 970 462 970 462 942 466 c 128,-1,114
 914 470 914 470 887 473 c 0,115,116
 875 475 875 475 871.5 483 c 128,-1,117
 868 491 868 491 880 498 c 1,57,58
EndSplineSet
EndChar

StartChar: W
Encoding: 87 87 53
Width: 1236
VWidth: 345
Flags: W
LayerCount: 2
Fore
SplineSet
592 320 m 1,0,1
 582 328 582 328 590.5 335 c 128,-1,2
 599 342 599 342 612 342 c 0,3,4
 627 342 627 342 653.5 368.5 c 128,-1,5
 680 395 680 395 688 433 c 0,6,7
 702 499 702 499 620 541 c 0,8,9
 589 556 589 556 540.5 568 c 128,-1,10
 492 580 492 580 445.5 589 c 128,-1,11
 399 598 399 598 363.5 603.5 c 128,-1,12
 328 609 328 609 322 612 c 0,13,14
 309 617 309 617 312 625.5 c 128,-1,15
 315 634 315 634 325 634 c 128,-1,16
 335 634 335 634 449 617.5 c 128,-1,17
 563 601 563 601 651 566 c 0,18,19
 704 545 704 545 736 524 c 128,-1,20
 768 503 768 503 794 469 c 0,21,22
 820 434 820 434 816 398.5 c 128,-1,23
 812 363 812 363 786 344 c 0,24,25
 762 326 762 326 730.5 319.5 c 128,-1,26
 699 313 699 313 671 313 c 256,27,28
 643 313 643 313 631.5 313 c 128,-1,29
 620 313 620 313 592 320 c 1,0,1
899 696 m 1,30,-1
 908 657 l 2,31,32
 908 653 908 653 918.5 638 c 128,-1,33
 929 623 929 623 929 619 c 128,-1,34
 929 615 929 615 912.5 611.5 c 128,-1,35
 896 608 896 608 890 608 c 2,36,-1
 829 608 l 2,37,38
 817 608 817 608 806.5 625 c 0,39,40
 796 641 796 641 793 657 c 2,41,-1
 785 696 l 1,42,43
 668 696 668 696 570 705 c 128,-1,44
 472 714 472 714 431 721 c 0,45,46
 355 733 355 733 305.5 763 c 128,-1,47
 256 793 256 793 240 831 c 0,48,49
 232 850 232 850 211 887.5 c 128,-1,50
 190 925 190 925 167 963 c 128,-1,51
 144 1001 144 1001 123.5 1031 c 128,-1,52
 103 1061 103 1061 95 1065 c 0,53,54
 53 1079 53 1079 77 1095 c 1,55,56
 127 1099 127 1099 173 1100.5 c 128,-1,57
 219 1102 219 1102 267 1098 c 0,58,59
 315 1095 315 1095 335.5 1043 c 128,-1,60
 356 991 356 991 377 907 c 0,61,62
 398 822 398 822 428.5 792 c 128,-1,63
 459 762 459 762 534 742 c 0,64,65
 610 721 610 721 781 725 c 1,66,-1
 769 794 l 2,67,68
 768 799 768 799 759 807.5 c 128,-1,69
 750 816 750 816 750 821 c 0,70,71
 750 827 750 827 766 829 c 128,-1,72
 782 831 782 831 789 831 c 2,73,-1
 850 831 l 2,74,75
 861 831 861 831 871.5 815.5 c 128,-1,76
 882 800 882 800 886 782 c 2,77,-1
 896 726 l 1,78,79
 963 727 963 727 987 730.5 c 128,-1,80
 1011 734 1011 734 1040 738 c 1,81,82
 1051 737 1051 737 1053 728 c 128,-1,83
 1055 719 1055 719 1048 712 c 0,84,85
 1038 704 1038 704 1007 700 c 128,-1,86
 976 696 976 696 899 696 c 1,30,-1
880 498 m 1,87,88
 918 512 918 512 1009 496 c 1,89,90
 1062 483 1062 483 1102.5 461 c 128,-1,91
 1143 439 1143 439 1165 384 c 1,92,93
 1180 331 1180 331 1175 299.5 c 128,-1,94
 1170 268 1170 268 1140 226 c 1,95,96
 1111 191 1111 191 1072.5 173.5 c 128,-1,97
 1034 156 1034 156 978 144 c 0,98,99
 922 133 922 133 887 133.5 c 128,-1,100
 852 134 852 134 811 135 c 0,101,102
 771 137 771 137 736.5 141.5 c 128,-1,103
 702 146 702 146 653 161 c 0,104,105
 572 183 572 183 493 222 c 0,106,107
 449 244 449 244 399.5 269.5 c 128,-1,108
 350 295 350 295 289 330 c 0,109,110
 261 347 261 347 227.5 366.5 c 128,-1,111
 194 386 194 386 156 406 c 1,112,113
 127 424 127 424 98.5 442 c 128,-1,114
 70 460 70 460 74.5 478.5 c 128,-1,115
 79 497 79 497 96 496 c 128,-1,116
 113 495 113 495 203 497 c 128,-1,117
 293 499 293 499 361 498 c 1,118,119
 388 478 388 478 360.5 469.5 c 128,-1,120
 333 461 333 461 319 448 c 0,121,122
 294 422 294 422 297 406.5 c 128,-1,123
 300 391 300 391 305.5 382.5 c 128,-1,124
 311 374 311 374 322 364.5 c 128,-1,125
 333 355 333 355 376 325 c 128,-1,126
 419 295 419 295 484 262 c 1,127,128
 542 237 542 237 575 221 c 128,-1,129
 608 205 608 205 682 185 c 1,130,131
 737 174 737 174 794 171.5 c 128,-1,132
 851 169 851 169 910 188 c 1,133,134
 951 206 951 206 967.5 219 c 128,-1,135
 984 232 984 232 1005 263 c 0,136,137
 1023 293 1023 293 1025.5 314 c 128,-1,138
 1028 335 1028 335 1026 362 c 0,139,140
 1025 390 1025 390 1019.5 402.5 c 128,-1,141
 1014 415 1014 415 1005.5 428 c 128,-1,142
 997 441 997 441 983.5 451.5 c 128,-1,143
 970 462 970 462 942 466 c 128,-1,144
 914 470 914 470 887 473 c 0,145,146
 875 475 875 475 871.5 483 c 128,-1,147
 868 491 868 491 880 498 c 1,87,88
EndSplineSet
EndChar

StartChar: E
Encoding: 69 69 54
Width: 1236
VWidth: 345
Flags: W
LayerCount: 2
Fore
SplineSet
899 966 m 1,0,-1
 908 928 l 2,1,2
 908 924 908 924 918.5 908.5 c 128,-1,3
 929 893 929 893 929 889 c 256,4,5
 929 885 929 885 912.5 882 c 128,-1,6
 896 879 896 879 890 879 c 2,7,-1
 829 879 l 2,8,9
 817 879 817 879 806.5 896 c 128,-1,10
 796 913 796 913 793 928 c 2,11,-1
 785 966 l 1,12,13
 668 966 668 966 570 975.5 c 128,-1,14
 472 985 472 985 431 991 c 0,15,16
 276 1015 276 1015 240 1101 c 0,17,18
 232 1120 232 1120 211 1157.5 c 128,-1,19
 190 1195 190 1195 167 1233 c 128,-1,20
 144 1271 144 1271 123.5 1301 c 128,-1,21
 103 1331 103 1331 95 1335 c 0,22,23
 54 1349 54 1349 77 1366 c 1,24,25
 181 1375 181 1375 267 1368 c 0,26,27
 315 1365 315 1365 335.5 1313.5 c 128,-1,28
 356 1262 356 1262 377 1178 c 0,29,30
 398 1094 398 1094 428.5 1063 c 128,-1,31
 459 1032 459 1032 534 1012 c 0,32,33
 608 992 608 992 781 996 c 1,34,-1
 769 1065 l 2,35,36
 768 1070 768 1070 759 1078 c 128,-1,37
 750 1086 750 1086 750 1091 c 0,38,39
 750 1097 750 1097 766 1099 c 128,-1,40
 782 1101 782 1101 789 1101 c 2,41,-1
 850 1101 l 2,42,43
 861 1101 861 1101 871.5 1085.5 c 128,-1,44
 882 1070 882 1070 886 1052 c 2,45,-1
 896 996 l 1,46,47
 963 996 963 996 987 1000.5 c 128,-1,48
 1011 1005 1011 1005 1040 1009 c 1,49,50
 1051 1008 1051 1008 1053 999 c 128,-1,51
 1055 990 1055 990 1048 982 c 0,52,53
 1038 973 1038 973 1007 969.5 c 128,-1,54
 976 966 976 966 899 966 c 1,0,-1
345 560 m 1,55,56
 307 546 307 546 217 562 c 1,57,58
 164 575 164 575 123.5 597 c 128,-1,59
 83 619 83 619 61 674 c 1,60,61
 46 727 46 727 51 758.5 c 128,-1,62
 56 790 56 790 86 832 c 1,63,64
 115 867 115 867 153.5 885 c 128,-1,65
 192 903 192 903 248 914 c 0,66,67
 304 925 304 925 339 925 c 128,-1,68
 374 925 374 925 415 923 c 0,69,70
 455 921 455 921 489 916.5 c 128,-1,71
 523 912 523 912 572 897 c 0,72,73
 653 875 653 875 732 836 c 0,74,75
 776 814 776 814 826 788.5 c 128,-1,76
 876 763 876 763 937 728 c 0,77,78
 965 711 965 711 998 692 c 128,-1,79
 1031 673 1031 673 1070 653 c 1,80,81
 1099 635 1099 635 1127 616.5 c 128,-1,82
 1155 598 1155 598 1150.5 579.5 c 128,-1,83
 1146 561 1146 561 1129 562 c 128,-1,84
 1112 563 1112 563 1022 561 c 128,-1,85
 932 559 932 559 865 560 c 1,86,87
 838 580 838 580 865.5 588.5 c 128,-1,88
 893 597 893 597 906 611 c 0,89,90
 931 637 931 637 928.5 652 c 128,-1,91
 926 667 926 667 920.5 675.5 c 128,-1,92
 915 684 915 684 904 693.5 c 128,-1,93
 893 703 893 703 849.5 733 c 128,-1,94
 806 763 806 763 742 796 c 1,95,96
 684 821 684 821 651 837 c 128,-1,97
 618 853 618 853 543 873 c 1,98,99
 488 884 488 884 431.5 886.5 c 128,-1,100
 375 889 375 889 316 870 c 1,101,102
 275 852 275 852 258 839 c 128,-1,103
 241 826 241 826 221 795 c 0,104,105
 203 765 203 765 200 744 c 128,-1,106
 197 723 197 723 199 696 c 0,107,108
 200 668 200 668 205.5 655.5 c 128,-1,109
 211 643 211 643 220 630 c 128,-1,110
 229 617 229 617 242.5 606.5 c 128,-1,111
 256 596 256 596 284 592 c 128,-1,112
 312 588 312 588 339 585 c 0,113,114
 351 583 351 583 354 575 c 128,-1,115
 357 567 357 567 345 560 c 1,55,56
880 498 m 1,116,117
 918 512 918 512 1009 496 c 1,118,119
 1062 483 1062 483 1102.5 461 c 128,-1,120
 1143 439 1143 439 1165 384 c 1,121,122
 1180 331 1180 331 1175 299.5 c 128,-1,123
 1170 268 1170 268 1140 226 c 1,124,125
 1111 191 1111 191 1072.5 173.5 c 128,-1,126
 1034 156 1034 156 978 144 c 0,127,128
 922 133 922 133 887 133.5 c 128,-1,129
 852 134 852 134 811 135 c 0,130,131
 771 137 771 137 736.5 141.5 c 128,-1,132
 702 146 702 146 653 161 c 0,133,134
 572 183 572 183 493 222 c 0,135,136
 449 244 449 244 399.5 269.5 c 128,-1,137
 350 295 350 295 289 330 c 0,138,139
 261 347 261 347 227.5 366.5 c 128,-1,140
 194 386 194 386 156 406 c 1,141,142
 127 424 127 424 98.5 442 c 128,-1,143
 70 460 70 460 74.5 478.5 c 128,-1,144
 79 497 79 497 96 496 c 128,-1,145
 113 495 113 495 203 497 c 128,-1,146
 293 499 293 499 361 498 c 1,147,148
 388 478 388 478 360.5 469.5 c 128,-1,149
 333 461 333 461 319 448 c 0,150,151
 294 422 294 422 297 406.5 c 128,-1,152
 300 391 300 391 305.5 382.5 c 128,-1,153
 311 374 311 374 322 364.5 c 128,-1,154
 333 355 333 355 376 325 c 128,-1,155
 419 295 419 295 484 262 c 1,156,157
 542 237 542 237 575 221 c 128,-1,158
 608 205 608 205 682 185 c 1,159,160
 737 174 737 174 794 171.5 c 128,-1,161
 851 169 851 169 910 188 c 1,162,163
 951 206 951 206 967.5 219 c 128,-1,164
 984 232 984 232 1005 263 c 0,165,166
 1023 293 1023 293 1025.5 314 c 128,-1,167
 1028 335 1028 335 1026 362 c 0,168,169
 1025 390 1025 390 1019.5 402.5 c 128,-1,170
 1014 415 1014 415 1005.5 428 c 128,-1,171
 997 441 997 441 983.5 451.5 c 128,-1,172
 970 462 970 462 942 466 c 128,-1,173
 914 470 914 470 887 473 c 0,174,175
 875 475 875 475 871.5 483 c 128,-1,176
 868 491 868 491 880 498 c 1,116,117
EndSplineSet
EndChar

StartChar: R
Encoding: 82 82 55
Width: 1236
VWidth: 345
Flags: W
LayerCount: 2
Fore
SplineSet
899 966 m 1,0,-1
 908 928 l 2,1,2
 908 924 908 924 918.5 908.5 c 128,-1,3
 929 893 929 893 929 889 c 256,4,5
 929 885 929 885 912.5 882 c 128,-1,6
 896 879 896 879 890 879 c 2,7,-1
 829 879 l 2,8,9
 817 879 817 879 806.5 896 c 128,-1,10
 796 913 796 913 793 928 c 2,11,-1
 785 966 l 1,12,13
 668 966 668 966 570 975.5 c 128,-1,14
 472 985 472 985 431 991 c 0,15,16
 276 1015 276 1015 240 1101 c 0,17,18
 232 1120 232 1120 211 1157.5 c 128,-1,19
 190 1195 190 1195 167 1233 c 128,-1,20
 144 1271 144 1271 123.5 1301 c 128,-1,21
 103 1331 103 1331 95 1335 c 0,22,23
 54 1349 54 1349 77 1366 c 1,24,25
 181 1375 181 1375 267 1368 c 0,26,27
 315 1365 315 1365 335.5 1313.5 c 128,-1,28
 356 1262 356 1262 377 1178 c 0,29,30
 398 1094 398 1094 428.5 1063 c 128,-1,31
 459 1032 459 1032 534 1012 c 0,32,33
 608 992 608 992 781 996 c 1,34,-1
 769 1065 l 2,35,36
 768 1070 768 1070 759 1078 c 128,-1,37
 750 1086 750 1086 750 1091 c 0,38,39
 750 1097 750 1097 766 1099 c 128,-1,40
 782 1101 782 1101 789 1101 c 2,41,-1
 850 1101 l 2,42,43
 861 1101 861 1101 871.5 1085.5 c 128,-1,44
 882 1070 882 1070 886 1052 c 2,45,-1
 896 996 l 1,46,47
 963 996 963 996 987 1000.5 c 128,-1,48
 1011 1005 1011 1005 1040 1009 c 1,49,50
 1051 1008 1051 1008 1053 999 c 128,-1,51
 1055 990 1055 990 1048 982 c 0,52,53
 1038 973 1038 973 1007 969.5 c 128,-1,54
 976 966 976 966 899 966 c 1,0,-1
562 470 m 1,55,56
 552 477 552 477 560.5 484.5 c 128,-1,57
 569 492 569 492 583 492 c 0,58,59
 598 492 598 492 624 518.5 c 128,-1,60
 650 545 650 545 658 583 c 0,61,62
 672 649 672 649 590 691 c 0,63,64
 559 706 559 706 510.5 718 c 128,-1,65
 462 730 462 730 415.5 739 c 128,-1,66
 369 748 369 748 333 754 c 128,-1,67
 297 760 297 760 292 762 c 0,68,69
 280 766 280 766 282.5 774.5 c 128,-1,70
 285 783 285 783 295 783 c 256,71,72
 305 783 305 783 419 767 c 128,-1,73
 533 751 533 751 622 716 c 0,74,75
 675 695 675 695 706.5 674.5 c 128,-1,76
 738 654 738 654 764 618 c 256,77,78
 790 583 790 583 786 547.5 c 128,-1,79
 782 512 782 512 755 493 c 0,80,81
 732 475 732 475 700.5 469 c 128,-1,82
 669 463 669 463 641 463 c 256,83,84
 613 463 613 463 601.5 463 c 128,-1,85
 590 463 590 463 562 470 c 1,55,56
345 560 m 1,86,87
 307 546 307 546 217 562 c 1,88,89
 164 575 164 575 123.5 597 c 128,-1,90
 83 619 83 619 61 674 c 1,91,92
 46 727 46 727 51 758.5 c 128,-1,93
 56 790 56 790 86 832 c 1,94,95
 115 867 115 867 153.5 885 c 128,-1,96
 192 903 192 903 248 914 c 0,97,98
 304 925 304 925 339 925 c 128,-1,99
 374 925 374 925 415 923 c 0,100,101
 455 921 455 921 489 916.5 c 128,-1,102
 523 912 523 912 572 897 c 0,103,104
 653 875 653 875 732 836 c 0,105,106
 776 814 776 814 826 788.5 c 128,-1,107
 876 763 876 763 937 728 c 0,108,109
 965 711 965 711 998 692 c 128,-1,110
 1031 673 1031 673 1070 653 c 1,111,112
 1099 635 1099 635 1127 616.5 c 128,-1,113
 1155 598 1155 598 1150.5 579.5 c 128,-1,114
 1146 561 1146 561 1129 562 c 128,-1,115
 1112 563 1112 563 1022 561 c 128,-1,116
 932 559 932 559 865 560 c 1,117,118
 838 580 838 580 865.5 588.5 c 128,-1,119
 893 597 893 597 906 611 c 0,120,121
 931 637 931 637 928.5 652 c 128,-1,122
 926 667 926 667 920.5 675.5 c 128,-1,123
 915 684 915 684 904 693.5 c 128,-1,124
 893 703 893 703 849.5 733 c 128,-1,125
 806 763 806 763 742 796 c 1,126,127
 684 821 684 821 651 837 c 128,-1,128
 618 853 618 853 543 873 c 1,129,130
 488 884 488 884 431.5 886.5 c 128,-1,131
 375 889 375 889 316 870 c 1,132,133
 275 852 275 852 258 839 c 128,-1,134
 241 826 241 826 221 795 c 0,135,136
 203 765 203 765 200 744 c 128,-1,137
 197 723 197 723 199 696 c 0,138,139
 200 668 200 668 205.5 655.5 c 128,-1,140
 211 643 211 643 220 630 c 128,-1,141
 229 617 229 617 242.5 606.5 c 128,-1,142
 256 596 256 596 284 592 c 128,-1,143
 312 588 312 588 339 585 c 0,144,145
 351 583 351 583 354 575 c 128,-1,146
 357 567 357 567 345 560 c 1,86,87
880 498 m 1,147,148
 918 512 918 512 1009 496 c 1,149,150
 1062 483 1062 483 1102.5 461 c 128,-1,151
 1143 439 1143 439 1165 384 c 1,152,153
 1180 331 1180 331 1175 299.5 c 128,-1,154
 1170 268 1170 268 1140 226 c 1,155,156
 1111 191 1111 191 1072.5 173.5 c 128,-1,157
 1034 156 1034 156 978 144 c 0,158,159
 922 133 922 133 887 133.5 c 128,-1,160
 852 134 852 134 811 135 c 0,161,162
 771 137 771 137 736.5 141.5 c 128,-1,163
 702 146 702 146 653 161 c 0,164,165
 572 183 572 183 493 222 c 0,166,167
 449 244 449 244 399.5 269.5 c 128,-1,168
 350 295 350 295 289 330 c 0,169,170
 261 347 261 347 227.5 366.5 c 128,-1,171
 194 386 194 386 156 406 c 1,172,173
 127 424 127 424 98.5 442 c 128,-1,174
 70 460 70 460 74.5 478.5 c 128,-1,175
 79 497 79 497 96 496 c 128,-1,176
 113 495 113 495 203 497 c 128,-1,177
 293 499 293 499 361 498 c 1,178,179
 388 478 388 478 360.5 469.5 c 128,-1,180
 333 461 333 461 319 448 c 0,181,182
 294 422 294 422 297 406.5 c 128,-1,183
 300 391 300 391 305.5 382.5 c 128,-1,184
 311 374 311 374 322 364.5 c 128,-1,185
 333 355 333 355 376 325 c 128,-1,186
 419 295 419 295 484 262 c 1,187,188
 542 237 542 237 575 221 c 128,-1,189
 608 205 608 205 682 185 c 1,190,191
 737 174 737 174 794 171.5 c 128,-1,192
 851 169 851 169 910 188 c 1,193,194
 951 206 951 206 967.5 219 c 128,-1,195
 984 232 984 232 1005 263 c 0,196,197
 1023 293 1023 293 1025.5 314 c 128,-1,198
 1028 335 1028 335 1026 362 c 0,199,200
 1025 390 1025 390 1019.5 402.5 c 128,-1,201
 1014 415 1014 415 1005.5 428 c 128,-1,202
 997 441 997 441 983.5 451.5 c 128,-1,203
 970 462 970 462 942 466 c 128,-1,204
 914 470 914 470 887 473 c 0,205,206
 875 475 875 475 871.5 483 c 128,-1,207
 868 491 868 491 880 498 c 1,147,148
EndSplineSet
EndChar

StartChar: O
Encoding: 79 79 56
Width: 1177
VWidth: 345
Flags: W
LayerCount: 2
Fore
SplineSet
868 -217 m 1,0,1
 857 -208 857 -208 867 -201 c 128,-1,2
 877 -194 877 -194 892 -194 c 0,3,4
 908 -194 908 -194 937.5 -164 c 128,-1,5
 967 -134 967 -134 976 -92 c 0,6,7
 991 -19 991 -19 899 28 c 0,8,9
 800 77 800 77 645 93 c 0,10,11
 619 95 619 95 586 95 c 128,-1,12
 553 95 553 95 549 96 c 0,13,14
 535 101 535 101 538.5 113 c 128,-1,15
 542 125 542 125 553 126 c 0,16,17
 564 127 564 127 607.5 124.5 c 128,-1,18
 651 122 651 122 702 115 c 0,19,20
 761 106 761 106 821.5 91 c 128,-1,21
 882 76 882 76 935 56 c 0,22,23
 994 33 994 33 1029 9.5 c 128,-1,24
 1064 -14 1064 -14 1093 -52 c 0,25,26
 1122 -92 1122 -92 1117.5 -131 c 128,-1,27
 1113 -170 1113 -170 1083 -192 c 0,28,29
 1057 -212 1057 -212 1022.5 -218.5 c 128,-1,30
 988 -225 988 -225 956 -225 c 256,31,32
 924 -225 924 -225 912 -224.5 c 128,-1,33
 900 -224 900 -224 868 -217 c 1,0,1
409 208 m 1,34,35
 398 217 398 217 408 224.5 c 128,-1,36
 418 232 418 232 433 232 c 0,37,38
 449 232 449 232 478.5 261 c 128,-1,39
 508 290 508 290 517 333 c 0,40,41
 532 406 532 406 440 453 c 0,42,43
 342 502 342 502 186 517 c 0,44,45
 159 520 159 520 127 519.5 c 128,-1,46
 95 519 95 519 90 521 c 0,47,48
 76 526 76 526 79.5 538 c 128,-1,49
 83 550 83 550 94 551 c 256,50,51
 105 552 105 552 148 549.5 c 128,-1,52
 191 547 191 547 243 540 c 0,53,54
 302 531 302 531 362.5 516 c 128,-1,55
 423 501 423 501 476 481 c 0,56,57
 535 458 535 458 570 434.5 c 128,-1,58
 605 411 605 411 634 372 c 0,59,60
 663 332 663 332 658.5 293.5 c 128,-1,61
 654 255 654 255 625 234 c 0,62,63
 599 214 599 214 564 207 c 128,-1,64
 529 200 529 200 497 200 c 0,65,66
 466 200 466 200 453.5 200 c 128,-1,67
 441 200 441 200 409 208 c 1,34,35
EndSplineSet
EndChar

StartChar: P
Encoding: 80 80 57
Width: 1277
VWidth: 345
Flags: W
LayerCount: 2
Fore
SplineSet
1144 -218 m 1,0,1
 1133 -209 1133 -209 1142.5 -201.5 c 128,-1,2
 1152 -194 1152 -194 1167 -194 c 0,3,4
 1183 -194 1183 -194 1212.5 -164.5 c 128,-1,5
 1242 -135 1242 -135 1251 -93 c 0,6,7
 1266 -20 1266 -20 1175 27 c 0,8,9
 1076 76 1076 76 920 92 c 0,10,11
 894 94 894 94 861.5 94 c 128,-1,12
 829 94 829 94 825 95 c 0,13,14
 811 100 811 100 814 112 c 128,-1,15
 817 124 817 124 829 126 c 0,16,17
 840 126 840 126 883 123.5 c 128,-1,18
 926 121 926 121 978 114 c 0,19,20
 1037 105 1037 105 1097.5 90 c 128,-1,21
 1158 75 1158 75 1210 55 c 0,22,23
 1269 32 1269 32 1304 8.5 c 128,-1,24
 1339 -15 1339 -15 1369 -53 c 0,25,26
 1398 -93 1398 -93 1393 -132 c 128,-1,27
 1388 -171 1388 -171 1359 -192 c 0,28,29
 1333 -212 1333 -212 1298 -219 c 128,-1,30
 1263 -226 1263 -226 1231 -226 c 256,31,32
 1199 -226 1199 -226 1187.5 -226 c 128,-1,33
 1176 -226 1176 -226 1144 -218 c 1,0,1
103 443 m 1,34,35
 65 512 65 512 82.5 561.5 c 128,-1,36
 100 611 100 611 145 614 c 0,37,38
 174 616 174 616 189.5 609.5 c 128,-1,39
 205 603 205 603 217 596.5 c 128,-1,40
 229 590 229 590 239.5 582.5 c 128,-1,41
 250 575 250 575 259 567 c 128,-1,42
 268 559 268 559 271.5 552.5 c 128,-1,43
 275 546 275 546 274.5 540.5 c 128,-1,44
 274 535 274 535 270.5 533 c 128,-1,45
 267 531 267 531 249.5 524 c 128,-1,46
 232 517 232 517 204 501.5 c 128,-1,47
 176 486 176 486 177 449 c 0,48,49
 177 411 177 411 256 377.5 c 128,-1,50
 335 344 335 344 491 350 c 2,51,-1
 938 369 l 2,52,53
 971 369 971 369 990.5 364.5 c 128,-1,54
 1010 360 1010 360 1026 353 c 128,-1,55
 1042 346 1042 346 1053 339.5 c 128,-1,56
 1064 333 1064 333 1079 319.5 c 128,-1,57
 1094 306 1094 306 1113.5 285 c 128,-1,58
 1133 264 1133 264 1139.5 254 c 128,-1,59
 1146 244 1146 244 1146 234.5 c 128,-1,60
 1146 225 1146 225 1139.5 222 c 128,-1,61
 1133 219 1133 219 1126 219 c 128,-1,62
 1119 219 1119 219 1111 222 c 128,-1,63
 1103 225 1103 225 1091.5 229 c 128,-1,64
 1080 233 1080 233 1066 237 c 128,-1,65
 1052 241 1052 241 1040 243 c 128,-1,66
 1028 245 1028 245 1007 246 c 2,67,-1
 900 252 l 1,68,69
 808 252 808 252 706.5 259.5 c 128,-1,70
 605 267 605 267 515 279 c 128,-1,71
 425 291 425 291 357 305 c 128,-1,72
 289 319 289 319 264 328 c 0,73,74
 221 346 221 346 187.5 363.5 c 128,-1,75
 154 381 154 381 103 443 c 1,34,35
EndSplineSet
EndChar

StartChar: plus
Encoding: 43 43 58
Width: 0
VWidth: 345
Flags: W
LayerCount: 2
Fore
SplineSet
-513 640 m 2,0,-1
 -470 640 l 2,1,2
 -467 640 -467 640 -459 639.5 c 128,-1,3
 -451 639 -451 639 -449 637 c 0,4,5
 -446 634 -446 634 -449.5 634 c 128,-1,6
 -453 634 -453 634 -456 618 c 2,7,-1
 -460 584 l 2,8,9
 -462 562 -462 562 -481 562 c 2,10,-1
 -523 562 l 2,11,12
 -527 562 -527 562 -536 562.5 c 128,-1,13
 -545 563 -545 563 -546 567 c 0,14,15
 -546 571 -546 571 -542.5 572.5 c 128,-1,16
 -539 574 -539 574 -538 584 c 2,17,-1
 -534 618 l 2,18,19
 -530 640 -530 640 -513 640 c 2,0,-1
-136 769 m 0,20,21
 -136 782 -136 782 -127 783 c 0,22,23
 -68 783 -68 783 -9 783.5 c 128,-1,24
 50 784 50 784 109 785 c 1,25,26
 109 821 109 821 109.5 832 c 128,-1,27
 110 843 110 843 110 884 c 0,28,29
 110 897 110 897 120 898 c 0,30,31
 193 898 193 898 267.5 898.5 c 128,-1,32
 342 899 342 899 416 901 c 1,33,34
 424 889 424 889 416 866 c 1,35,36
 401 863 401 863 317.5 862.5 c 128,-1,37
 234 862 234 862 173 862 c 1,38,39
 173 812 173 812 175.5 783.5 c 128,-1,40
 178 755 178 755 172 754 c 0,41,42
 163 753 163 753 155.5 751 c 128,-1,43
 148 749 148 749 110 751 c 1,44,45
 69 750 69 750 17 748.5 c 128,-1,46
 -35 747 -35 747 -73 747 c 1,47,48
 -74 740 -74 740 -73 735 c 1,49,-1
 -73 735 l 1,50,51
 -73 639 -73 639 -74 639 c 0,52,53
 -83 638 -83 638 -90.5 636 c 128,-1,54
 -98 634 -98 634 -136 636 c 1,55,56
 -177 635 -177 635 -229 633.5 c 128,-1,57
 -281 632 -281 632 -320 632 c 1,58,59
 -321 525 -321 525 -322 525 c 0,60,61
 -338 525 -338 525 -355.5 523 c 128,-1,62
 -373 521 -373 521 -385 525 c 0,63,64
 -386 525 -386 525 -387 535 c 1,65,66
 -386 535.5 l 0,67,68
 -385 536 -385 536 -385 537 c 0,69,70
 -385 588 -385 588 -384 595 c 128,-1,71
 -383 602 -383 602 -383 654 c 0,72,73
 -383 667 -383 667 -374 668 c 0,74,75
 -315 668 -315 668 -255.5 668.5 c 128,-1,76
 -196 669 -196 669 -137 670 c 1,77,78
 -137 694 -137 694 -136.5 719 c 128,-1,79
 -136 744 -136 744 -136 769 c 0,20,21
EndSplineSet
EndChar

StartChar: underscore
Encoding: 95 95 59
Width: 574
VWidth: 345
Flags: W
LayerCount: 2
Fore
SplineSet
340 725 m 1,0,1
 340 760 340 760 341.5 792 c 128,-1,2
 343 824 343 824 343 863 c 0,3,4
 343 875 343 875 352 877 c 0,5,6
 425 878 425 878 500 878 c 128,-1,7
 575 878 575 878 648 879 c 1,8,9
 656 868 656 868 648 845 c 1,10,11
 633 842 633 842 550 842.5 c 128,-1,12
 467 843 467 843 406 843 c 1,13,14
 406 795 406 795 407.5 745.5 c 128,-1,15
 409 696 409 696 403 696 c 0,16,17
 394 694 394 694 387 692.5 c 128,-1,18
 380 691 380 691 342 692 c 1,19,20
 301 691 301 691 249 690 c 128,-1,21
 197 689 197 689 158 689 c 1,22,23
 158 641 158 641 159.5 591 c 128,-1,24
 161 541 161 541 155 541 c 0,25,26
 139 541 139 541 122 539 c 128,-1,27
 105 537 105 537 92 541 c 0,28,29
 91 541 91 541 91 551 c 1,30,31
 92 551.5 l 0,32,33
 93 552 93 552 93 553 c 0,34,35
 93 602 93 602 94 631 c 128,-1,36
 95 660 95 660 95 710 c 0,37,38
 95 722 95 722 104 723 c 0,39,40
 163 723 163 723 222 724 c 128,-1,41
 281 725 281 725 340 725 c 1,0,1
-15 680 m 2,42,-1
 28 680 l 2,43,44
 31 680 31 680 39 680 c 128,-1,45
 47 680 47 680 49 678 c 0,46,47
 52 675 52 675 48 675 c 128,-1,48
 44 675 44 675 42 658 c 2,49,-1
 38 624 l 2,50,51
 35 602 35 602 17 602 c 2,52,-1
 -24 602 l 2,53,54
 -28 602 -28 602 -37.5 602.5 c 128,-1,55
 -47 603 -47 603 -47 607 c 128,-1,56
 -47 611 -47 611 -44 612.5 c 128,-1,57
 -41 614 -41 614 -40 624 c 2,58,-1
 -35 658 l 2,59,60
 -32 680 -32 680 -15 680 c 2,42,-1
358 447 m 0,61,62
 381 447 381 447 380.5 433 c 128,-1,63
 380 419 380 419 364 417 c 0,64,65
 337 411 337 411 328 394 c 0,66,67
 292 308 292 308 272.5 243 c 128,-1,68
 253 178 253 178 223 166 c 1,69,70
 191 162 191 162 155.5 161 c 128,-1,71
 120 160 120 160 85 166 c 1,72,73
 70 172 70 172 75 179 c 128,-1,74
 80 186 80 186 90 189 c 0,75,76
 100 191 100 191 111 213 c 0,77,78
 146 275 146 275 169.5 353.5 c 128,-1,79
 193 432 193 432 219 441 c 0,80,81
 253 451 253 451 288 449 c 128,-1,82
 323 447 323 447 358 447 c 0,61,62
EndSplineSet
EndChar

StartChar: bracketleft
Encoding: 91 91 60
Width: 587
VWidth: 345
Flags: W
LayerCount: 2
Fore
SplineSet
358 447 m 0,0,1
 381 447 381 447 380.5 433 c 128,-1,2
 380 419 380 419 364 417 c 0,3,4
 337 411 337 411 328 394 c 0,5,6
 292 308 292 308 272.5 243 c 128,-1,7
 253 178 253 178 223 166 c 1,8,9
 191 162 191 162 155.5 161 c 128,-1,10
 120 160 120 160 85 166 c 1,11,12
 70 172 70 172 75 179 c 128,-1,13
 80 186 80 186 90 189 c 0,14,15
 100 191 100 191 111 213 c 0,16,17
 146 275 146 275 169.5 353.5 c 128,-1,18
 193 432 193 432 219 441 c 0,19,20
 253 451 253 451 288 449 c 128,-1,21
 323 447 323 447 358 447 c 0,0,1
264 769 m 0,22,23
 264 782 264 782 273 783 c 0,24,25
 332 783 332 783 391.5 783.5 c 128,-1,26
 451 784 451 784 510 785 c 1,27,28
 510 821 510 821 510 832 c 128,-1,29
 510 843 510 843 510 884 c 0,30,31
 510 897 510 897 520 898 c 0,32,33
 593 898 593 898 668 898.5 c 128,-1,34
 743 899 743 899 816 901 c 1,35,36
 824 889 824 889 816 866 c 1,37,38
 801 863 801 863 717.5 862.5 c 128,-1,39
 634 862 634 862 573 862 c 1,40,41
 573 812 573 812 575.5 783.5 c 128,-1,42
 578 755 578 755 573 754 c 0,43,44
 564 753 564 753 556.5 751 c 128,-1,45
 549 749 549 749 511 751 c 1,46,47
 470 750 470 750 418 748.5 c 128,-1,48
 366 747 366 747 327 747 c 1,49,50
 326 740 326 740 327 735 c 1,51,-1
 327 735 l 1,52,53
 327 639 327 639 326 639 c 0,54,55
 317 638 317 638 309.5 636 c 128,-1,56
 302 634 302 634 264 636 c 1,57,58
 223 635 223 635 171 633.5 c 128,-1,59
 119 632 119 632 81 632 c 1,60,61
 80 525 80 525 78 525 c 0,62,63
 62 525 62 525 44.5 523 c 128,-1,64
 27 521 27 521 15 525 c 0,65,66
 14 525 14 525 14 535 c 1,67,68
 14.5 535.5 l 0,69,70
 15 536 15 536 15 537 c 0,71,72
 15 588 15 588 16.5 595 c 128,-1,73
 18 602 18 602 18 654 c 0,74,75
 18 667 18 667 27 668 c 0,76,77
 86 668 86 668 145 668.5 c 128,-1,78
 204 669 204 669 263 670 c 1,79,80
 263 694 263 694 263.5 719 c 128,-1,81
 264 744 264 744 264 769 c 0,22,23
EndSplineSet
EndChar

StartChar: bracketright
Encoding: 93 93 61
Width: 523
VWidth: 345
Flags: W
LayerCount: 2
Fore
SplineSet
358 447 m 0,0,1
 381 447 381 447 380.5 433 c 128,-1,2
 380 419 380 419 364 417 c 0,3,4
 337 411 337 411 328 394 c 0,5,6
 292 308 292 308 272.5 243 c 128,-1,7
 253 178 253 178 223 166 c 1,8,9
 191 162 191 162 155.5 161 c 128,-1,10
 120 160 120 160 85 166 c 1,11,12
 70 172 70 172 75 179 c 128,-1,13
 80 186 80 186 90 189 c 0,14,15
 100 191 100 191 111 213 c 0,16,17
 146 275 146 275 169.5 353.5 c 128,-1,18
 193 432 193 432 219 441 c 0,19,20
 253 451 253 451 288 449 c 128,-1,21
 323 447 323 447 358 447 c 0,0,1
197 785 m 0,22,23
 270 785 270 785 345 786 c 128,-1,24
 420 787 420 787 493 788 c 1,25,26
 498 781 498 781 497 770 c 128,-1,27
 496 759 496 759 494 751 c 1,28,29
 479 748 479 748 395.5 748 c 128,-1,30
 312 748 312 748 250 748 c 1,31,32
 250 696 250 696 252.5 631.5 c 128,-1,33
 255 567 255 567 250 566 c 0,34,35
 234 566 234 566 216.5 564 c 128,-1,36
 199 562 199 562 187 566 c 0,37,38
 186 566 186 566 185 576 c 0,39,40
 186 576.5 l 0,41,42
 187 577 187 577 187 578 c 0,43,44
 187 631 187 631 187.5 674.5 c 128,-1,45
 188 718 188 718 188 770 c 0,46,47
 188 784 188 784 197 785 c 0,22,23
62 748 m 2,48,-1
 104 748 l 2,49,50
 107 748 107 748 115.5 747.5 c 128,-1,51
 124 747 124 747 126 745 c 0,52,53
 129 742 129 742 125 742 c 128,-1,54
 121 742 121 742 119 726 c 2,55,-1
 114 692 l 2,56,57
 111 671 111 671 94 670 c 2,58,-1
 51 670 l 2,59,60
 47 670 47 670 38 670.5 c 128,-1,61
 29 671 29 671 29 675 c 128,-1,62
 29 679 29 679 32 680 c 128,-1,63
 35 681 35 681 37 692 c 2,64,-1
 41 726 l 2,65,66
 45 748 45 748 62 748 c 2,48,-1
EndSplineSet
EndChar

StartChar: braceright
Encoding: 125 125 62
Width: 571
VWidth: 345
Flags: W
LayerCount: 2
Fore
SplineSet
358 447 m 0,0,1
 381 447 381 447 380.5 433 c 128,-1,2
 380 419 380 419 364 417 c 0,3,4
 337 411 337 411 328 394 c 0,5,6
 292 308 292 308 272.5 243 c 128,-1,7
 253 178 253 178 223 166 c 1,8,9
 191 162 191 162 155.5 161 c 128,-1,10
 120 160 120 160 85 166 c 1,11,12
 70 172 70 172 75 179 c 128,-1,13
 80 186 80 186 90 189 c 0,14,15
 100 191 100 191 111 213 c 0,16,17
 146 275 146 275 169.5 353.5 c 128,-1,18
 193 432 193 432 219 441 c 0,19,20
 253 451 253 451 288 449 c 128,-1,21
 323 447 323 447 358 447 c 0,0,1
197 785 m 0,22,23
 270 785 270 785 345 786 c 128,-1,24
 420 787 420 787 493 788 c 1,25,26
 498 781 498 781 497 770 c 128,-1,27
 496 759 496 759 494 751 c 1,28,29
 479 748 479 748 395.5 748 c 128,-1,30
 312 748 312 748 250 748 c 1,31,32
 250 696 250 696 252.5 631.5 c 128,-1,33
 255 567 255 567 250 566 c 0,34,35
 234 566 234 566 216.5 564 c 128,-1,36
 199 562 199 562 187 566 c 0,37,38
 186 566 186 566 185 576 c 0,39,40
 186 576.5 l 0,41,42
 187 577 187 577 187 578 c 0,43,44
 187 631 187 631 187.5 674.5 c 128,-1,45
 188 718 188 718 188 770 c 0,46,47
 188 784 188 784 197 785 c 0,22,23
585 759 m 2,48,-1
 628 759 l 2,49,50
 631 759 631 759 639 758.5 c 128,-1,51
 647 758 647 758 650 756 c 0,52,53
 653 753 653 753 649 753 c 128,-1,54
 645 753 645 753 643 737 c 2,55,-1
 638 703 l 2,56,57
 635 681 635 681 618 681 c 2,58,-1
 575 681 l 2,59,60
 571 681 571 681 562 681.5 c 128,-1,61
 553 682 553 682 553 686 c 0,62,63
 552 690 552 690 555.5 691.5 c 128,-1,64
 559 693 559 693 561 703 c 2,65,-1
 565 737 l 2,66,67
 568 759 568 759 585 759 c 2,48,-1
EndSplineSet
EndChar

StartChar: five
Encoding: 53 53 63
Width: 1627
VWidth: 345
Flags: W
LayerCount: 2
Fore
SplineSet
1149 671 m 0,0,1
 1179 671 1179 671 1212 670 c 128,-1,2
 1245 669 1245 669 1271 664 c 1,3,4
 1290 664 1290 664 1314 613 c 128,-1,5
 1338 562 1338 562 1367 501 c 0,6,7
 1375 480 1375 480 1386 477 c 0,8,9
 1393 474 1393 474 1397.5 466.5 c 128,-1,10
 1402 459 1402 459 1389 453 c 1,11,12
 1359 447 1359 447 1327.5 448 c 128,-1,13
 1296 449 1296 449 1269 453 c 1,14,15
 1243 465 1243 465 1224.5 498 c 128,-1,16
 1206 531 1206 531 1175 617 c 0,17,18
 1172 622 1172 622 1164 632.5 c 128,-1,19
 1156 643 1156 643 1146 645 c 0,20,21
 1132 647 1132 647 1130 659 c 128,-1,22
 1128 671 1128 671 1149 671 c 0,0,1
879 671 m 0,23,24
 909 671 909 671 942 670 c 128,-1,25
 975 669 975 669 1001 664 c 1,26,27
 1020 664 1020 664 1044 613 c 128,-1,28
 1068 562 1068 562 1096 501 c 0,29,30
 1105 480 1105 480 1115 477 c 0,31,32
 1123 474 1123 474 1127.5 466.5 c 128,-1,33
 1132 459 1132 459 1119 453 c 1,34,35
 1088 447 1088 447 1057 448 c 128,-1,36
 1026 449 1026 449 998 453 c 1,37,38
 972 465 972 465 954 498 c 128,-1,39
 936 531 936 531 905 617 c 0,40,41
 902 622 902 622 894 632.5 c 128,-1,42
 886 643 886 643 875 645 c 0,43,44
 861 647 861 647 859.5 659 c 128,-1,45
 858 671 858 671 879 671 c 0,23,24
561 720 m 0,46,47
 584 719 584 719 582.5 707.5 c 128,-1,48
 581 696 581 696 564 693 c 0,49,50
 551 691 551 691 542 683.5 c 128,-1,51
 533 676 533 676 531 671 c 0,52,53
 495 593 495 593 475.5 535 c 128,-1,54
 456 477 456 477 426 467 c 1,55,56
 394 464 394 464 358 462.5 c 128,-1,57
 322 461 322 461 288 467 c 1,58,59
 273 472 273 472 278 478.5 c 128,-1,60
 283 485 283 485 292 488 c 0,61,62
 302 491 302 491 314 509 c 0,63,64
 349 565 349 565 374 639 c 128,-1,65
 399 713 399 713 421 713 c 1,66,67
 451 717 451 717 488.5 718.5 c 128,-1,68
 526 720 526 720 561 720 c 0,46,47
346 955 m 1,69,70
 418 955 418 955 490 956.5 c 128,-1,71
 562 958 562 958 635 959 c 1,72,73
 642 950 642 950 635 930 c 1,74,75
 620 927 620 927 539 927.5 c 128,-1,76
 458 928 458 928 398 928 c 1,77,78
 398 882 398 882 398 847 c 128,-1,79
 398 812 398 812 398 766 c 1,80,81
 382 766 382 766 365.5 764 c 128,-1,82
 349 762 349 762 336 766 c 1,83,84
 336 816 336 816 336 853.5 c 128,-1,85
 336 891 336 891 336 942 c 0,86,87
 337 953 337 953 346 955 c 1,69,70
80 384 m 128,-1,89
 85 392 85 392 91.5 392.5 c 128,-1,90
 98 393 98 393 105 389 c 128,-1,91
 112 385 112 385 123 379.5 c 128,-1,92
 134 374 134 374 151 370.5 c 128,-1,93
 168 367 168 367 199 367 c 2,94,-1
 1345 367 l 2,95,96
 1373 367 1373 367 1396 362.5 c 128,-1,97
 1419 358 1419 358 1438 348 c 128,-1,98
 1457 338 1457 338 1467.5 330 c 128,-1,99
 1478 322 1478 322 1496.5 302.5 c 128,-1,100
 1515 283 1515 283 1528 265 c 128,-1,101
 1541 247 1541 247 1533 230 c 1,102,103
 1525 218 1525 218 1514.5 225 c 128,-1,104
 1504 232 1504 232 1490 237 c 128,-1,105
 1476 242 1476 242 1459.5 244 c 128,-1,106
 1443 246 1443 246 1408 246 c 2,107,-1
 277 246 l 2,108,109
 254 246 254 246 235 249 c 128,-1,110
 216 252 216 252 205.5 255.5 c 128,-1,111
 195 259 195 259 183 265 c 128,-1,112
 171 271 171 271 158 279.5 c 128,-1,113
 145 288 145 288 129.5 303.5 c 128,-1,114
 114 319 114 319 98.5 339.5 c 128,-1,115
 83 360 83 360 79 368 c 128,-1,88
 75 376 75 376 80 384 c 128,-1,89
EndSplineSet
EndChar

StartChar: six
Encoding: 54 54 64
Width: 1627
VWidth: 345
Flags: W
LayerCount: 2
Fore
SplineSet
1149 671 m 0,0,1
 1179 671 1179 671 1212 670 c 128,-1,2
 1245 669 1245 669 1271 664 c 1,3,4
 1290 664 1290 664 1314 613 c 128,-1,5
 1338 562 1338 562 1367 501 c 0,6,7
 1375 480 1375 480 1386 477 c 0,8,9
 1393 474 1393 474 1397.5 466.5 c 128,-1,10
 1402 459 1402 459 1389 453 c 1,11,12
 1359 447 1359 447 1327.5 448 c 128,-1,13
 1296 449 1296 449 1269 453 c 1,14,15
 1243 465 1243 465 1224.5 498 c 128,-1,16
 1206 531 1206 531 1175 617 c 0,17,18
 1172 622 1172 622 1164 632.5 c 128,-1,19
 1156 643 1156 643 1146 645 c 0,20,21
 1132 647 1132 647 1130 659 c 128,-1,22
 1128 671 1128 671 1149 671 c 0,0,1
879 671 m 0,23,24
 909 671 909 671 942 670 c 128,-1,25
 975 669 975 669 1001 664 c 1,26,27
 1020 664 1020 664 1044 613 c 128,-1,28
 1068 562 1068 562 1096 501 c 0,29,30
 1105 480 1105 480 1115 477 c 0,31,32
 1123 474 1123 474 1127.5 466.5 c 128,-1,33
 1132 459 1132 459 1119 453 c 1,34,35
 1088 447 1088 447 1057 448 c 128,-1,36
 1026 449 1026 449 998 453 c 1,37,38
 972 465 972 465 954 498 c 128,-1,39
 936 531 936 531 905 617 c 0,40,41
 902 622 902 622 894 632.5 c 128,-1,42
 886 643 886 643 875 645 c 0,43,44
 861 647 861 647 859.5 659 c 128,-1,45
 858 671 858 671 879 671 c 0,23,24
561 720 m 0,46,47
 584 719 584 719 582.5 707.5 c 128,-1,48
 581 696 581 696 564 693 c 0,49,50
 551 691 551 691 542 683.5 c 128,-1,51
 533 676 533 676 531 671 c 0,52,53
 495 593 495 593 475.5 535 c 128,-1,54
 456 477 456 477 426 467 c 1,55,56
 394 464 394 464 358 462.5 c 128,-1,57
 322 461 322 461 288 467 c 1,58,59
 273 472 273 472 278 478.5 c 128,-1,60
 283 485 283 485 292 488 c 0,61,62
 302 491 302 491 314 509 c 0,63,64
 349 565 349 565 374 639 c 128,-1,65
 399 713 399 713 421 713 c 1,66,67
 451 717 451 717 488.5 718.5 c 128,-1,68
 526 720 526 720 561 720 c 0,46,47
346 955 m 1,69,70
 418 955 418 955 490 956.5 c 128,-1,71
 562 958 562 958 635 959 c 1,72,73
 642 950 642 950 635 930 c 1,74,75
 620 927 620 927 539 927.5 c 128,-1,76
 458 928 458 928 398 928 c 1,77,78
 398 882 398 882 398 847 c 128,-1,79
 398 812 398 812 398 766 c 1,80,81
 382 766 382 766 365.5 764 c 128,-1,82
 349 762 349 762 336 766 c 1,83,84
 336 816 336 816 336 853.5 c 128,-1,85
 336 891 336 891 336 942 c 0,86,87
 337 953 337 953 346 955 c 1,69,70
210 925 m 2,88,-1
 252 925 l 2,89,90
 255 925 255 925 263 925 c 128,-1,91
 271 925 271 925 274 922 c 0,92,93
 276 919 276 919 272.5 919 c 128,-1,94
 269 919 269 919 267 903 c 2,95,-1
 263 869 l 2,96,97
 259 847 259 847 242 847 c 2,98,-1
 200 847 l 2,99,100
 196 847 196 847 186.5 847.5 c 128,-1,101
 177 848 177 848 177 852 c 0,102,103
 176 856 176 856 180 857.5 c 128,-1,104
 184 859 184 859 185 869 c 2,105,-1
 189 903 l 2,106,107
 192 925 192 925 210 925 c 2,88,-1
80 384 m 128,-1,109
 85 392 85 392 91.5 392.5 c 128,-1,110
 98 393 98 393 105 389 c 128,-1,111
 112 385 112 385 123 379.5 c 128,-1,112
 134 374 134 374 151 370.5 c 128,-1,113
 168 367 168 367 199 367 c 2,114,-1
 1345 367 l 2,115,116
 1373 367 1373 367 1396 362.5 c 128,-1,117
 1419 358 1419 358 1438 348 c 128,-1,118
 1457 338 1457 338 1467.5 330 c 128,-1,119
 1478 322 1478 322 1496.5 302.5 c 128,-1,120
 1515 283 1515 283 1528 265 c 128,-1,121
 1541 247 1541 247 1533 230 c 1,122,123
 1525 218 1525 218 1514.5 225 c 128,-1,124
 1504 232 1504 232 1490 237 c 128,-1,125
 1476 242 1476 242 1459.5 244 c 128,-1,126
 1443 246 1443 246 1408 246 c 2,127,-1
 277 246 l 2,128,129
 254 246 254 246 235 249 c 128,-1,130
 216 252 216 252 205.5 255.5 c 128,-1,131
 195 259 195 259 183 265 c 128,-1,132
 171 271 171 271 158 279.5 c 128,-1,133
 145 288 145 288 129.5 303.5 c 128,-1,134
 114 319 114 319 98.5 339.5 c 128,-1,135
 83 360 83 360 79 368 c 128,-1,108
 75 376 75 376 80 384 c 128,-1,109
EndSplineSet
EndChar

StartChar: seven
Encoding: 55 55 65
Width: 1627
VWidth: 345
Flags: W
LayerCount: 2
Fore
SplineSet
1149 671 m 0,0,1
 1179 671 1179 671 1212 670 c 128,-1,2
 1245 669 1245 669 1271 664 c 1,3,4
 1290 664 1290 664 1314 613 c 128,-1,5
 1338 562 1338 562 1367 501 c 0,6,7
 1375 480 1375 480 1386 477 c 0,8,9
 1393 474 1393 474 1397.5 466.5 c 128,-1,10
 1402 459 1402 459 1389 453 c 1,11,12
 1359 447 1359 447 1327.5 448 c 128,-1,13
 1296 449 1296 449 1269 453 c 1,14,15
 1243 465 1243 465 1224.5 498 c 128,-1,16
 1206 531 1206 531 1175 617 c 0,17,18
 1172 622 1172 622 1164 632.5 c 128,-1,19
 1156 643 1156 643 1146 645 c 0,20,21
 1132 647 1132 647 1130 659 c 128,-1,22
 1128 671 1128 671 1149 671 c 0,0,1
879 671 m 0,23,24
 909 671 909 671 942 670 c 128,-1,25
 975 669 975 669 1001 664 c 1,26,27
 1020 664 1020 664 1044 613 c 128,-1,28
 1068 562 1068 562 1096 501 c 0,29,30
 1105 480 1105 480 1115 477 c 0,31,32
 1123 474 1123 474 1127.5 466.5 c 128,-1,33
 1132 459 1132 459 1119 453 c 1,34,35
 1088 447 1088 447 1057 448 c 128,-1,36
 1026 449 1026 449 998 453 c 1,37,38
 972 465 972 465 954 498 c 128,-1,39
 936 531 936 531 905 617 c 0,40,41
 902 622 902 622 894 632.5 c 128,-1,42
 886 643 886 643 875 645 c 0,43,44
 861 647 861 647 859.5 659 c 128,-1,45
 858 671 858 671 879 671 c 0,23,24
561 720 m 0,46,47
 584 719 584 719 582.5 707.5 c 128,-1,48
 581 696 581 696 564 693 c 0,49,50
 551 691 551 691 542 683.5 c 128,-1,51
 533 676 533 676 531 671 c 0,52,53
 495 593 495 593 475.5 535 c 128,-1,54
 456 477 456 477 426 467 c 1,55,56
 394 464 394 464 358 462.5 c 128,-1,57
 322 461 322 461 288 467 c 1,58,59
 273 472 273 472 278 478.5 c 128,-1,60
 283 485 283 485 292 488 c 0,61,62
 302 491 302 491 314 509 c 0,63,64
 349 565 349 565 374 639 c 128,-1,65
 399 713 399 713 421 713 c 1,66,67
 451 717 451 717 488.5 718.5 c 128,-1,68
 526 720 526 720 561 720 c 0,46,47
346 955 m 1,69,70
 418 955 418 955 490 956.5 c 128,-1,71
 562 958 562 958 635 959 c 1,72,73
 642 950 642 950 635 930 c 1,74,75
 620 927 620 927 539 927.5 c 128,-1,76
 458 928 458 928 398 928 c 1,77,78
 398 882 398 882 398 847 c 128,-1,79
 398 812 398 812 398 766 c 1,80,81
 382 766 382 766 365.5 764 c 128,-1,82
 349 762 349 762 336 766 c 1,83,84
 336 816 336 816 336 853.5 c 128,-1,85
 336 891 336 891 336 942 c 0,86,87
 337 953 337 953 346 955 c 1,69,70
734 936 m 2,88,-1
 777 936 l 2,89,90
 780 936 780 936 788 935.5 c 128,-1,91
 796 935 796 935 798 933 c 0,92,93
 801 930 801 930 797 930 c 128,-1,94
 793 930 793 930 791 914 c 2,95,-1
 787 880 l 2,96,97
 784 858 784 858 766 858 c 2,98,-1
 724 858 l 2,99,100
 720 858 720 858 710.5 858.5 c 128,-1,101
 701 859 701 859 701 863 c 0,102,103
 701 867 701 867 704.5 868.5 c 128,-1,104
 708 870 708 870 709 880 c 2,105,-1
 713 914 l 2,106,107
 717 936 717 936 734 936 c 2,88,-1
80 384 m 128,-1,109
 85 392 85 392 91.5 392.5 c 128,-1,110
 98 393 98 393 105 389 c 128,-1,111
 112 385 112 385 123 379.5 c 128,-1,112
 134 374 134 374 151 370.5 c 128,-1,113
 168 367 168 367 199 367 c 2,114,-1
 1345 367 l 2,115,116
 1373 367 1373 367 1396 362.5 c 128,-1,117
 1419 358 1419 358 1438 348 c 128,-1,118
 1457 338 1457 338 1467.5 330 c 128,-1,119
 1478 322 1478 322 1496.5 302.5 c 128,-1,120
 1515 283 1515 283 1528 265 c 128,-1,121
 1541 247 1541 247 1533 230 c 1,122,123
 1525 218 1525 218 1514.5 225 c 128,-1,124
 1504 232 1504 232 1490 237 c 128,-1,125
 1476 242 1476 242 1459.5 244 c 128,-1,126
 1443 246 1443 246 1408 246 c 2,127,-1
 277 246 l 2,128,129
 254 246 254 246 235 249 c 128,-1,130
 216 252 216 252 205.5 255.5 c 128,-1,131
 195 259 195 259 183 265 c 128,-1,132
 171 271 171 271 158 279.5 c 128,-1,133
 145 288 145 288 129.5 303.5 c 128,-1,134
 114 319 114 319 98.5 339.5 c 128,-1,135
 83 360 83 360 79 368 c 128,-1,108
 75 376 75 376 80 384 c 128,-1,109
EndSplineSet
EndChar

StartChar: eight
Encoding: 56 56 66
Width: 1627
VWidth: 345
Flags: W
LayerCount: 2
Fore
SplineSet
1149 671 m 0,0,1
 1179 671 1179 671 1212 670 c 128,-1,2
 1245 669 1245 669 1271 664 c 1,3,4
 1290 664 1290 664 1314 613 c 128,-1,5
 1338 562 1338 562 1367 501 c 0,6,7
 1375 480 1375 480 1386 477 c 0,8,9
 1393 474 1393 474 1397.5 466.5 c 128,-1,10
 1402 459 1402 459 1389 453 c 1,11,12
 1359 447 1359 447 1327.5 448 c 128,-1,13
 1296 449 1296 449 1269 453 c 1,14,15
 1243 465 1243 465 1224.5 498 c 128,-1,16
 1206 531 1206 531 1175 617 c 0,17,18
 1172 622 1172 622 1164 632.5 c 128,-1,19
 1156 643 1156 643 1146 645 c 0,20,21
 1132 647 1132 647 1130 659 c 128,-1,22
 1128 671 1128 671 1149 671 c 0,0,1
879 671 m 0,23,24
 909 671 909 671 942 670 c 128,-1,25
 975 669 975 669 1001 664 c 1,26,27
 1020 664 1020 664 1044 613 c 128,-1,28
 1068 562 1068 562 1096 501 c 0,29,30
 1105 480 1105 480 1115 477 c 0,31,32
 1123 474 1123 474 1127.5 466.5 c 128,-1,33
 1132 459 1132 459 1119 453 c 1,34,35
 1088 447 1088 447 1057 448 c 128,-1,36
 1026 449 1026 449 998 453 c 1,37,38
 972 465 972 465 954 498 c 128,-1,39
 936 531 936 531 905 617 c 0,40,41
 902 622 902 622 894 632.5 c 128,-1,42
 886 643 886 643 875 645 c 0,43,44
 861 647 861 647 859.5 659 c 128,-1,45
 858 671 858 671 879 671 c 0,23,24
561 720 m 0,46,47
 584 719 584 719 582.5 707.5 c 128,-1,48
 581 696 581 696 564 693 c 0,49,50
 551 691 551 691 542 683.5 c 128,-1,51
 533 676 533 676 531 671 c 0,52,53
 495 593 495 593 475.5 535 c 128,-1,54
 456 477 456 477 426 467 c 1,55,56
 394 464 394 464 358 462.5 c 128,-1,57
 322 461 322 461 288 467 c 1,58,59
 273 472 273 472 278 478.5 c 128,-1,60
 283 485 283 485 292 488 c 0,61,62
 302 491 302 491 314 509 c 0,63,64
 349 565 349 565 374 639 c 128,-1,65
 399 713 399 713 421 713 c 1,66,67
 451 717 451 717 488.5 718.5 c 128,-1,68
 526 720 526 720 561 720 c 0,46,47
522 950 m 1,69,70
 522 985 522 985 523 1017 c 128,-1,71
 524 1049 524 1049 524 1088 c 0,72,73
 524 1101 524 1101 533 1102 c 0,74,75
 606 1102 606 1102 681 1102.5 c 128,-1,76
 756 1103 756 1103 830 1104 c 1,77,78
 835 1098 835 1098 833.5 1087.5 c 128,-1,79
 832 1077 832 1077 830 1071 c 1,80,81
 814 1068 814 1068 731 1067.5 c 128,-1,82
 648 1067 648 1067 587 1067 c 1,83,84
 587 1019 587 1019 588.5 970 c 128,-1,85
 590 921 590 921 584 920 c 0,86,87
 575 919 575 919 568 917 c 128,-1,88
 561 915 561 915 523 917 c 0,89,90
 482 917 482 917 430 915.5 c 128,-1,91
 378 914 378 914 339 914 c 1,92,93
 339 866 339 866 340.5 816 c 128,-1,94
 342 766 342 766 336 766 c 0,95,96
 320 766 320 766 303 764 c 128,-1,97
 286 762 286 762 273 766 c 0,98,99
 272 766 272 766 272 776 c 1,100,101
 272.5 776.5 l 0,102,103
 273 777 273 777 273 778 c 0,104,105
 273 826 273 826 274.5 855.5 c 128,-1,106
 276 885 276 885 276 935 c 0,107,108
 276 947 276 947 286 949 c 0,109,110
 345 949 345 949 403.5 949.5 c 128,-1,111
 462 950 462 950 522 950 c 1,69,70
80 384 m 128,-1,113
 85 392 85 392 91.5 392.5 c 128,-1,114
 98 393 98 393 105 389 c 128,-1,115
 112 385 112 385 123 379.5 c 128,-1,116
 134 374 134 374 151 370.5 c 128,-1,117
 168 367 168 367 199 367 c 2,118,-1
 1345 367 l 2,119,120
 1373 367 1373 367 1396 362.5 c 128,-1,121
 1419 358 1419 358 1438 348 c 128,-1,122
 1457 338 1457 338 1467.5 330 c 128,-1,123
 1478 322 1478 322 1496.5 302.5 c 128,-1,124
 1515 283 1515 283 1528 265 c 128,-1,125
 1541 247 1541 247 1533 230 c 1,126,127
 1525 218 1525 218 1514.5 225 c 128,-1,128
 1504 232 1504 232 1490 237 c 128,-1,129
 1476 242 1476 242 1459.5 244 c 128,-1,130
 1443 246 1443 246 1408 246 c 2,131,-1
 277 246 l 2,132,133
 254 246 254 246 235 249 c 128,-1,134
 216 252 216 252 205.5 255.5 c 128,-1,135
 195 259 195 259 183 265 c 128,-1,136
 171 271 171 271 158 279.5 c 128,-1,137
 145 288 145 288 129.5 303.5 c 128,-1,138
 114 319 114 319 98.5 339.5 c 128,-1,139
 83 360 83 360 79 368 c 128,-1,112
 75 376 75 376 80 384 c 128,-1,113
EndSplineSet
EndChar

StartChar: nine
Encoding: 57 57 67
Width: 1627
VWidth: 345
Flags: W
LayerCount: 2
Fore
SplineSet
1149 671 m 0,0,1
 1179 671 1179 671 1212 670 c 128,-1,2
 1245 669 1245 669 1271 664 c 1,3,4
 1290 664 1290 664 1314 613 c 128,-1,5
 1338 562 1338 562 1367 501 c 0,6,7
 1375 480 1375 480 1386 477 c 0,8,9
 1393 474 1393 474 1397.5 466.5 c 128,-1,10
 1402 459 1402 459 1389 453 c 1,11,12
 1359 447 1359 447 1327.5 448 c 128,-1,13
 1296 449 1296 449 1269 453 c 1,14,15
 1243 465 1243 465 1224.5 498 c 128,-1,16
 1206 531 1206 531 1175 617 c 0,17,18
 1172 622 1172 622 1164 632.5 c 128,-1,19
 1156 643 1156 643 1146 645 c 0,20,21
 1132 647 1132 647 1130 659 c 128,-1,22
 1128 671 1128 671 1149 671 c 0,0,1
879 671 m 0,23,24
 909 671 909 671 942 670 c 128,-1,25
 975 669 975 669 1001 664 c 1,26,27
 1020 664 1020 664 1044 613 c 128,-1,28
 1068 562 1068 562 1096 501 c 0,29,30
 1105 480 1105 480 1115 477 c 0,31,32
 1123 474 1123 474 1127.5 466.5 c 128,-1,33
 1132 459 1132 459 1119 453 c 1,34,35
 1088 447 1088 447 1057 448 c 128,-1,36
 1026 449 1026 449 998 453 c 1,37,38
 972 465 972 465 954 498 c 128,-1,39
 936 531 936 531 905 617 c 0,40,41
 902 622 902 622 894 632.5 c 128,-1,42
 886 643 886 643 875 645 c 0,43,44
 861 647 861 647 859.5 659 c 128,-1,45
 858 671 858 671 879 671 c 0,23,24
561 720 m 0,46,47
 584 719 584 719 582.5 707.5 c 128,-1,48
 581 696 581 696 564 693 c 0,49,50
 551 691 551 691 542 683.5 c 128,-1,51
 533 676 533 676 531 671 c 0,52,53
 495 593 495 593 475.5 535 c 128,-1,54
 456 477 456 477 426 467 c 1,55,56
 394 464 394 464 358 462.5 c 128,-1,57
 322 461 322 461 288 467 c 1,58,59
 273 472 273 472 278 478.5 c 128,-1,60
 283 485 283 485 292 488 c 0,61,62
 302 491 302 491 314 509 c 0,63,64
 349 565 349 565 374 639 c 128,-1,65
 399 713 399 713 421 713 c 1,66,67
 451 717 451 717 488.5 718.5 c 128,-1,68
 526 720 526 720 561 720 c 0,46,47
522 950 m 1,69,70
 522 985 522 985 523 1017 c 128,-1,71
 524 1049 524 1049 524 1088 c 0,72,73
 524 1101 524 1101 533 1102 c 0,74,75
 606 1102 606 1102 681 1102.5 c 128,-1,76
 756 1103 756 1103 830 1104 c 1,77,78
 835 1098 835 1098 833.5 1087.5 c 128,-1,79
 832 1077 832 1077 830 1071 c 1,80,81
 814 1068 814 1068 731 1067.5 c 128,-1,82
 648 1067 648 1067 587 1067 c 1,83,84
 587 1019 587 1019 588.5 970 c 128,-1,85
 590 921 590 921 584 920 c 0,86,87
 575 919 575 919 568 917 c 128,-1,88
 561 915 561 915 523 917 c 0,89,90
 482 917 482 917 430 915.5 c 128,-1,91
 378 914 378 914 339 914 c 1,92,93
 339 866 339 866 340.5 816 c 128,-1,94
 342 766 342 766 336 766 c 0,95,96
 320 766 320 766 303 764 c 128,-1,97
 286 762 286 762 273 766 c 0,98,99
 272 766 272 766 272 776 c 1,100,101
 272.5 776.5 l 0,102,103
 273 777 273 777 273 778 c 0,104,105
 273 826 273 826 274.5 855.5 c 128,-1,106
 276 885 276 885 276 935 c 0,107,108
 276 947 276 947 286 949 c 0,109,110
 345 949 345 949 403.5 949.5 c 128,-1,111
 462 950 462 950 522 950 c 1,69,70
167 905 m 2,112,-1
 209 905 l 2,113,114
 212 905 212 905 220 905 c 128,-1,115
 228 905 228 905 230 903 c 0,116,117
 233 900 233 900 229.5 899.5 c 128,-1,118
 226 899 226 899 223 883 c 2,119,-1
 219 849 l 2,120,121
 216 827 216 827 198 827 c 2,122,-1
 156 827 l 2,123,124
 152 827 152 827 142.5 827.5 c 128,-1,125
 133 828 133 828 133 832 c 128,-1,126
 133 836 133 836 136.5 837.5 c 128,-1,127
 140 839 140 839 141 849 c 2,128,-1
 146 883 l 2,129,130
 149 905 149 905 167 905 c 2,112,-1
80 384 m 128,-1,132
 85 392 85 392 91.5 392.5 c 128,-1,133
 98 393 98 393 105 389 c 128,-1,134
 112 385 112 385 123 379.5 c 128,-1,135
 134 374 134 374 151 370.5 c 128,-1,136
 168 367 168 367 199 367 c 2,137,-1
 1345 367 l 2,138,139
 1373 367 1373 367 1396 362.5 c 128,-1,140
 1419 358 1419 358 1438 348 c 128,-1,141
 1457 338 1457 338 1467.5 330 c 128,-1,142
 1478 322 1478 322 1496.5 302.5 c 128,-1,143
 1515 283 1515 283 1528 265 c 128,-1,144
 1541 247 1541 247 1533 230 c 1,145,146
 1525 218 1525 218 1514.5 225 c 128,-1,147
 1504 232 1504 232 1490 237 c 128,-1,148
 1476 242 1476 242 1459.5 244 c 128,-1,149
 1443 246 1443 246 1408 246 c 2,150,-1
 277 246 l 2,151,152
 254 246 254 246 235 249 c 128,-1,153
 216 252 216 252 205.5 255.5 c 128,-1,154
 195 259 195 259 183 265 c 128,-1,155
 171 271 171 271 158 279.5 c 128,-1,156
 145 288 145 288 129.5 303.5 c 128,-1,157
 114 319 114 319 98.5 339.5 c 128,-1,158
 83 360 83 360 79 368 c 128,-1,131
 75 376 75 376 80 384 c 128,-1,132
EndSplineSet
EndChar

StartChar: T
Encoding: 84 84 68
Width: 1627
VWidth: 345
Flags: W
LayerCount: 2
Fore
SplineSet
443 1010 m 0,0,1
 443 1023 443 1023 453 1024 c 0,2,3
 512 1024 512 1024 571 1024.5 c 128,-1,4
 630 1025 630 1025 688 1026 c 1,5,6
 688 1062 688 1062 688.5 1073 c 128,-1,7
 689 1084 689 1084 689 1124 c 0,8,9
 689 1137 689 1137 699 1139 c 0,10,11
 772 1139 772 1139 846.5 1139.5 c 128,-1,12
 921 1140 921 1140 995 1141 c 1,13,14
 1000 1135 1000 1135 999 1124.5 c 128,-1,15
 998 1114 998 1114 996 1106 c 1,16,17
 981 1103 981 1103 897 1103 c 128,-1,18
 813 1103 813 1103 752 1103 c 1,19,20
 752 1053 752 1053 754.5 1024 c 128,-1,21
 757 995 757 995 751 995 c 0,22,23
 742 993 742 993 735 991.5 c 128,-1,24
 728 990 728 990 690 991 c 1,25,26
 649 990 649 990 597 989 c 128,-1,27
 545 988 545 988 506 988 c 1,28,29
 506 985 506 985 506 981.5 c 128,-1,30
 506 978 506 978 506 975 c 1,31,-1
 506 975 l 1,32,33
 506 880 506 880 505 880 c 0,34,35
 496 879 496 879 488.5 877 c 128,-1,36
 481 875 481 875 443 876 c 0,37,38
 402 876 402 876 350 874.5 c 128,-1,39
 298 873 298 873 259 873 c 1,40,41
 258 766 258 766 257 766 c 0,42,43
 241 766 241 766 224 764 c 128,-1,44
 207 762 207 762 194 766 c 0,45,46
 193 766 193 766 193 776 c 1,47,48
 193.5 776.5 l 0,49,50
 194 777 194 777 194 778 c 0,51,52
 194 829 194 829 195.5 836.5 c 128,-1,53
 197 844 197 844 197 895 c 0,54,55
 197 908 197 908 206 909 c 0,56,57
 265 909 265 909 324 909.5 c 128,-1,58
 383 910 383 910 442 910 c 1,59,60
 442 935 442 935 442.5 960 c 128,-1,61
 443 985 443 985 443 1010 c 0,0,1
1149 671 m 0,62,63
 1179 671 1179 671 1212 670 c 128,-1,64
 1245 669 1245 669 1271 664 c 1,65,66
 1290 664 1290 664 1314 613 c 128,-1,67
 1338 562 1338 562 1367 501 c 0,68,69
 1375 480 1375 480 1386 477 c 0,70,71
 1393 474 1393 474 1397.5 466.5 c 128,-1,72
 1402 459 1402 459 1389 453 c 1,73,74
 1359 447 1359 447 1327.5 448 c 128,-1,75
 1296 449 1296 449 1269 453 c 1,76,77
 1243 465 1243 465 1224.5 498 c 128,-1,78
 1206 531 1206 531 1175 617 c 0,79,80
 1172 622 1172 622 1164 632.5 c 128,-1,81
 1156 643 1156 643 1146 645 c 0,82,83
 1132 647 1132 647 1130 659 c 128,-1,84
 1128 671 1128 671 1149 671 c 0,62,63
879 671 m 0,85,86
 909 671 909 671 942 670 c 128,-1,87
 975 669 975 669 1001 664 c 1,88,89
 1020 664 1020 664 1044 613 c 128,-1,90
 1068 562 1068 562 1096 501 c 0,91,92
 1105 480 1105 480 1115 477 c 0,93,94
 1123 474 1123 474 1127.5 466.5 c 128,-1,95
 1132 459 1132 459 1119 453 c 1,96,97
 1088 447 1088 447 1057 448 c 128,-1,98
 1026 449 1026 449 998 453 c 1,99,100
 972 465 972 465 954 498 c 128,-1,101
 936 531 936 531 905 617 c 0,102,103
 902 622 902 622 894 632.5 c 128,-1,104
 886 643 886 643 875 645 c 0,105,106
 861 647 861 647 859.5 659 c 128,-1,107
 858 671 858 671 879 671 c 0,85,86
561 720 m 0,108,109
 584 719 584 719 582.5 707.5 c 128,-1,110
 581 696 581 696 564 693 c 0,111,112
 551 691 551 691 542 683.5 c 128,-1,113
 533 676 533 676 531 671 c 0,114,115
 495 593 495 593 475.5 535 c 128,-1,116
 456 477 456 477 426 467 c 1,117,118
 394 464 394 464 358 462.5 c 128,-1,119
 322 461 322 461 288 467 c 1,120,121
 273 472 273 472 278 478.5 c 128,-1,122
 283 485 283 485 292 488 c 0,123,124
 302 491 302 491 314 509 c 0,125,126
 349 565 349 565 374 639 c 128,-1,127
 399 713 399 713 421 713 c 1,128,129
 451 717 451 717 488.5 718.5 c 128,-1,130
 526 720 526 720 561 720 c 0,108,109
80 384 m 128,-1,132
 85 392 85 392 91.5 392.5 c 128,-1,133
 98 393 98 393 105 389 c 128,-1,134
 112 385 112 385 123 379.5 c 128,-1,135
 134 374 134 374 151 370.5 c 128,-1,136
 168 367 168 367 199 367 c 2,137,-1
 1345 367 l 2,138,139
 1373 367 1373 367 1396 362.5 c 128,-1,140
 1419 358 1419 358 1438 348 c 128,-1,141
 1457 338 1457 338 1467.5 330 c 128,-1,142
 1478 322 1478 322 1496.5 302.5 c 128,-1,143
 1515 283 1515 283 1528 265 c 128,-1,144
 1541 247 1541 247 1533 230 c 1,145,146
 1525 218 1525 218 1514.5 225 c 128,-1,147
 1504 232 1504 232 1490 237 c 128,-1,148
 1476 242 1476 242 1459.5 244 c 128,-1,149
 1443 246 1443 246 1408 246 c 2,150,-1
 277 246 l 2,151,152
 254 246 254 246 235 249 c 128,-1,153
 216 252 216 252 205.5 255.5 c 128,-1,154
 195 259 195 259 183 265 c 128,-1,155
 171 271 171 271 158 279.5 c 128,-1,156
 145 288 145 288 129.5 303.5 c 128,-1,157
 114 319 114 319 98.5 339.5 c 128,-1,158
 83 360 83 360 79 368 c 128,-1,131
 75 376 75 376 80 384 c 128,-1,132
EndSplineSet
EndChar

StartChar: Y
Encoding: 89 89 69
Width: 1627
VWidth: 345
Flags: W
LayerCount: 2
Fore
SplineSet
66 881 m 2,0,-1
 109 881 l 2,1,2
 112 881 112 881 120 880.5 c 128,-1,3
 128 880 128 880 130 878 c 0,4,5
 133 875 133 875 129 875 c 128,-1,6
 125 875 125 875 123 859 c 2,7,-1
 119 825 l 2,8,9
 116 803 116 803 98 803 c 2,10,-1
 56 803 l 2,11,12
 52 803 52 803 42.5 803.5 c 128,-1,13
 33 804 33 804 33 808 c 128,-1,14
 33 812 33 812 36.5 813.5 c 128,-1,15
 40 815 40 815 41 825 c 2,16,-1
 45 859 l 2,17,18
 48 881 48 881 66 881 c 2,0,-1
443 1010 m 0,19,20
 443 1023 443 1023 453 1024 c 0,21,22
 512 1024 512 1024 571 1024.5 c 128,-1,23
 630 1025 630 1025 688 1026 c 1,24,25
 688 1062 688 1062 688.5 1073 c 128,-1,26
 689 1084 689 1084 689 1124 c 0,27,28
 689 1137 689 1137 699 1139 c 0,29,30
 772 1139 772 1139 846.5 1139.5 c 128,-1,31
 921 1140 921 1140 995 1141 c 1,32,33
 1000 1135 1000 1135 999 1124.5 c 128,-1,34
 998 1114 998 1114 996 1106 c 1,35,36
 981 1103 981 1103 897 1103 c 128,-1,37
 813 1103 813 1103 752 1103 c 1,38,39
 752 1053 752 1053 754.5 1024 c 128,-1,40
 757 995 757 995 751 995 c 0,41,42
 742 993 742 993 735 991.5 c 128,-1,43
 728 990 728 990 690 991 c 1,44,45
 649 990 649 990 597 989 c 128,-1,46
 545 988 545 988 506 988 c 1,47,48
 506 985 506 985 506 981.5 c 128,-1,49
 506 978 506 978 506 975 c 1,50,-1
 506 975 l 1,51,52
 506 880 506 880 505 880 c 0,53,54
 496 879 496 879 488.5 877 c 128,-1,55
 481 875 481 875 443 876 c 0,56,57
 402 876 402 876 350 874.5 c 128,-1,58
 298 873 298 873 259 873 c 1,59,60
 258 766 258 766 257 766 c 0,61,62
 241 766 241 766 224 764 c 128,-1,63
 207 762 207 762 194 766 c 0,64,65
 193 766 193 766 193 776 c 1,66,-1
 193.5 776.5 l 0,67,68
 194 777 194 777 194 778 c 0,69,70
 194 829 194 829 195.5 836.5 c 128,-1,71
 197 844 197 844 197 895 c 0,72,73
 197 908 197 908 206 909 c 0,74,75
 265 909 265 909 324 909.5 c 128,-1,76
 383 910 383 910 442 910 c 1,77,78
 442 935 442 935 442.5 960 c 128,-1,79
 443 985 443 985 443 1010 c 0,19,20
1149 671 m 0,80,81
 1179 671 1179 671 1212 670 c 128,-1,82
 1245 669 1245 669 1271 664 c 1,83,84
 1290 664 1290 664 1314 613 c 128,-1,85
 1338 562 1338 562 1367 501 c 0,86,87
 1375 480 1375 480 1386 477 c 0,88,89
 1393 474 1393 474 1397.5 466.5 c 128,-1,90
 1402 459 1402 459 1389 453 c 1,91,92
 1359 447 1359 447 1327.5 448 c 128,-1,93
 1296 449 1296 449 1269 453 c 1,94,95
 1243 465 1243 465 1224.5 498 c 128,-1,96
 1206 531 1206 531 1175 617 c 0,97,98
 1172 622 1172 622 1164 632.5 c 128,-1,99
 1156 643 1156 643 1146 645 c 0,100,101
 1132 647 1132 647 1130 659 c 128,-1,102
 1128 671 1128 671 1149 671 c 0,80,81
879 671 m 0,103,104
 909 671 909 671 942 670 c 128,-1,105
 975 669 975 669 1001 664 c 1,106,107
 1020 664 1020 664 1044 613 c 128,-1,108
 1068 562 1068 562 1096 501 c 0,109,110
 1105 480 1105 480 1115 477 c 0,111,112
 1123 474 1123 474 1127.5 466.5 c 128,-1,113
 1132 459 1132 459 1119 453 c 1,114,115
 1088 447 1088 447 1057 448 c 128,-1,116
 1026 449 1026 449 998 453 c 1,117,118
 972 465 972 465 954 498 c 128,-1,119
 936 531 936 531 905 617 c 0,120,121
 902 622 902 622 894 632.5 c 128,-1,122
 886 643 886 643 875 645 c 0,123,124
 861 647 861 647 859.5 659 c 128,-1,125
 858 671 858 671 879 671 c 0,103,104
561 720 m 0,126,127
 584 719 584 719 582.5 707.5 c 128,-1,128
 581 696 581 696 564 693 c 0,129,130
 551 691 551 691 542 683.5 c 128,-1,131
 533 676 533 676 531 671 c 0,132,133
 495 593 495 593 475.5 535 c 128,-1,134
 456 477 456 477 426 467 c 1,135,136
 394 464 394 464 358 462.5 c 128,-1,137
 322 461 322 461 288 467 c 1,138,139
 273 472 273 472 278 478.5 c 128,-1,140
 283 485 283 485 292 488 c 0,141,142
 302 491 302 491 314 509 c 0,143,144
 349 565 349 565 374 639 c 128,-1,145
 399 713 399 713 421 713 c 1,146,147
 451 717 451 717 488.5 718.5 c 128,-1,148
 526 720 526 720 561 720 c 0,126,127
80 384 m 128,-1,150
 85 392 85 392 91.5 392.5 c 128,-1,151
 98 393 98 393 105 389 c 128,-1,152
 112 385 112 385 123 379.5 c 128,-1,153
 134 374 134 374 151 370.5 c 128,-1,154
 168 367 168 367 199 367 c 2,155,-1
 1345 367 l 2,156,157
 1373 367 1373 367 1396 362.5 c 128,-1,158
 1419 358 1419 358 1438 348 c 128,-1,159
 1457 338 1457 338 1467.5 330 c 128,-1,160
 1478 322 1478 322 1496.5 302.5 c 128,-1,161
 1515 283 1515 283 1528 265 c 128,-1,162
 1541 247 1541 247 1533 230 c 1,163,164
 1525 218 1525 218 1514.5 225 c 128,-1,165
 1504 232 1504 232 1490 237 c 128,-1,166
 1476 242 1476 242 1459.5 244 c 128,-1,167
 1443 246 1443 246 1408 246 c 2,168,-1
 277 246 l 2,169,170
 254 246 254 246 235 249 c 128,-1,171
 216 252 216 252 205.5 255.5 c 128,-1,172
 195 259 195 259 183 265 c 128,-1,173
 171 271 171 271 158 279.5 c 128,-1,174
 145 288 145 288 129.5 303.5 c 128,-1,175
 114 319 114 319 98.5 339.5 c 128,-1,176
 83 360 83 360 79 368 c 128,-1,149
 75 376 75 376 80 384 c 128,-1,150
EndSplineSet
EndChar

StartChar: y
Encoding: 121 121 70
Width: 2201
VWidth: 345
Flags: W
LayerCount: 2
Fore
SplineSet
244 462 m 1,0,1
 234 469 234 469 242.5 476 c 128,-1,2
 251 483 251 483 264 483 c 0,3,4
 278 483 278 483 303 508 c 128,-1,5
 328 533 328 533 336 570 c 0,6,7
 349 632 349 632 271 672 c 0,8,9
 212 701 212 701 111.5 717 c 128,-1,10
 11 733 11 733 0 737 c 256,11,12
 -11 741 -11 741 -8 749.5 c 128,-1,13
 -5 758 -5 758 3 758 c 0,14,15
 12 758 12 758 114.5 743 c 128,-1,16
 217 728 217 728 301 696 c 0,17,18
 351 676 351 676 381 656.5 c 128,-1,19
 411 637 411 637 437 603 c 0,20,21
 462 569 462 569 457.5 536 c 128,-1,22
 453 503 453 503 428 485 c 0,23,24
 405 468 405 468 375.5 462 c 128,-1,25
 346 456 346 456 319 456 c 0,26,27
 292 456 292 456 281.5 456 c 128,-1,28
 271 456 271 456 244 462 c 1,0,1
1515 671 m 0,29,30
 1545 671 1545 671 1578 670 c 128,-1,31
 1611 669 1611 669 1637 664 c 1,32,33
 1656 664 1656 664 1680.5 613 c 128,-1,34
 1705 562 1705 562 1733 501 c 0,35,36
 1742 480 1742 480 1752 477 c 0,37,38
 1759 474 1759 474 1764 466.5 c 128,-1,39
 1769 459 1769 459 1755 453 c 1,40,41
 1725 447 1725 447 1694 448 c 128,-1,42
 1663 449 1663 449 1635 453 c 1,43,44
 1609 465 1609 465 1590.5 498 c 128,-1,45
 1572 531 1572 531 1542 617 c 0,46,47
 1540 622 1540 622 1531 632.5 c 128,-1,48
 1522 643 1522 643 1512 645 c 0,49,50
 1498 647 1498 647 1496 659 c 128,-1,51
 1494 671 1494 671 1515 671 c 0,29,30
1786 671 m 0,52,53
 1816 671 1816 671 1848.5 670 c 128,-1,54
 1881 669 1881 669 1908 664 c 1,55,56
 1927 664 1927 664 1951 613 c 128,-1,57
 1975 562 1975 562 2003 501 c 0,58,59
 2012 480 2012 480 2022 477 c 0,60,61
 2030 474 2030 474 2034.5 466.5 c 128,-1,62
 2039 459 2039 459 2026 453 c 1,63,64
 1995 447 1995 447 1964 448 c 128,-1,65
 1933 449 1933 449 1905 453 c 1,66,67
 1878 465 1878 465 1860.5 498 c 128,-1,68
 1843 531 1843 531 1812 617 c 0,69,70
 1809 622 1809 622 1800.5 632.5 c 128,-1,71
 1792 643 1792 643 1782 645 c 0,72,73
 1768 647 1768 647 1766.5 659 c 128,-1,74
 1765 671 1765 671 1786 671 c 0,52,53
265.5 384 m 128,-1,76
 271 392 271 392 277 392.5 c 128,-1,77
 283 393 283 393 290.5 389 c 128,-1,78
 298 385 298 385 308.5 379.5 c 128,-1,79
 319 374 319 374 336.5 370.5 c 128,-1,80
 354 367 354 367 384 367 c 2,81,-1
 1892 367 l 2,82,83
 1920 367 1920 367 1943 362.5 c 128,-1,84
 1966 358 1966 358 1985 348 c 128,-1,85
 2004 338 2004 338 2014.5 330 c 128,-1,86
 2025 322 2025 322 2043.5 302.5 c 128,-1,87
 2062 283 2062 283 2075 265 c 128,-1,88
 2088 247 2088 247 2080 230 c 1,89,90
 2072 218 2072 218 2061.5 225 c 128,-1,91
 2051 232 2051 232 2037 237 c 128,-1,92
 2023 242 2023 242 2006.5 244 c 128,-1,93
 1990 246 1990 246 1955 246 c 2,94,-1
 462 246 l 2,95,96
 439 246 439 246 420.5 249 c 128,-1,97
 402 252 402 252 391 255.5 c 128,-1,98
 380 259 380 259 368.5 265 c 128,-1,99
 357 271 357 271 343.5 279.5 c 128,-1,100
 330 288 330 288 315 303.5 c 128,-1,101
 300 319 300 319 284.5 339.5 c 128,-1,102
 269 360 269 360 264.5 368 c 128,-1,75
 260 376 260 376 265.5 384 c 128,-1,76
732 465 m 1,103,104
 698 452 698 452 617 467 c 1,105,106
 570 479 570 479 533.5 498.5 c 128,-1,107
 497 518 497 518 478 567 c 1,108,109
 465 614 465 614 469 642.5 c 128,-1,110
 473 671 473 671 500 708 c 1,111,112
 526 739 526 739 560.5 755 c 128,-1,113
 595 771 595 771 645 782 c 0,114,115
 695 792 695 792 726 791.5 c 128,-1,116
 757 791 757 791 793 789 c 256,117,118
 829 788 829 788 860 784 c 128,-1,119
 891 780 891 780 935 766 c 0,120,121
 1008 746 1008 746 1078 711 c 0,122,123
 1118 691 1118 691 1162 668.5 c 128,-1,124
 1206 646 1206 646 1261 616 c 0,125,126
 1286 601 1286 601 1315.5 583.5 c 128,-1,127
 1345 566 1345 566 1379 548 c 1,128,129
 1405 532 1405 532 1430.5 515.5 c 128,-1,130
 1456 499 1456 499 1452 482.5 c 128,-1,131
 1448 466 1448 466 1432.5 467 c 128,-1,132
 1417 468 1417 468 1336.5 466 c 128,-1,133
 1256 464 1256 464 1196 465 c 1,134,135
 1172 483 1172 483 1196.5 490.5 c 128,-1,136
 1221 498 1221 498 1233 510 c 0,137,138
 1255 533 1255 533 1252.5 546.5 c 128,-1,139
 1250 560 1250 560 1245.5 567.5 c 128,-1,140
 1241 575 1241 575 1231 584 c 128,-1,141
 1221 593 1221 593 1182.5 619.5 c 128,-1,142
 1144 646 1144 646 1086 676 c 1,143,144
 1035 699 1035 699 1005 713 c 128,-1,145
 975 727 975 727 909 745 c 1,146,147
 860 755 860 755 809 757 c 128,-1,148
 758 759 758 759 706 742 c 1,149,150
 669 726 669 726 654 714.5 c 128,-1,151
 639 703 639 703 621 675 c 0,152,153
 605 648 605 648 602.5 629.5 c 128,-1,154
 600 611 600 611 601 587 c 0,155,156
 602 562 602 562 607 550.5 c 128,-1,157
 612 539 612 539 620 527.5 c 128,-1,158
 628 516 628 516 640 507 c 128,-1,159
 652 498 652 498 677 494 c 128,-1,160
 702 490 702 490 726 487 c 0,161,162
 736 485 736 485 739 478 c 128,-1,163
 742 471 742 471 732 465 c 1,103,104
EndSplineSet
EndChar

StartChar: t
Encoding: 116 116 71
Width: 1627
VWidth: 345
Flags: W
LayerCount: 2
Fore
SplineSet
1149 671 m 0,0,1
 1179 671 1179 671 1212 670 c 128,-1,2
 1245 669 1245 669 1271 664 c 1,3,4
 1290 664 1290 664 1314 613 c 128,-1,5
 1338 562 1338 562 1367 501 c 0,6,7
 1375 480 1375 480 1386 477 c 0,8,9
 1393 474 1393 474 1397.5 466.5 c 128,-1,10
 1402 459 1402 459 1389 453 c 1,11,12
 1359 447 1359 447 1327.5 448 c 128,-1,13
 1296 449 1296 449 1269 453 c 1,14,15
 1243 465 1243 465 1224.5 498 c 128,-1,16
 1206 531 1206 531 1175 617 c 0,17,18
 1172 622 1172 622 1164 632.5 c 128,-1,19
 1156 643 1156 643 1146 645 c 0,20,21
 1132 647 1132 647 1130 659 c 128,-1,22
 1128 671 1128 671 1149 671 c 0,0,1
879 671 m 0,23,24
 909 671 909 671 942 670 c 128,-1,25
 975 669 975 669 1001 664 c 1,26,27
 1020 664 1020 664 1044 613 c 128,-1,28
 1068 562 1068 562 1096 501 c 0,29,30
 1105 480 1105 480 1115 477 c 0,31,32
 1123 474 1123 474 1127.5 466.5 c 128,-1,33
 1132 459 1132 459 1119 453 c 1,34,35
 1088 447 1088 447 1057 448 c 128,-1,36
 1026 449 1026 449 998 453 c 1,37,38
 972 465 972 465 954 498 c 128,-1,39
 936 531 936 531 905 617 c 0,40,41
 902 622 902 622 894 632.5 c 128,-1,42
 886 643 886 643 875 645 c 0,43,44
 861 647 861 647 859.5 659 c 128,-1,45
 858 671 858 671 879 671 c 0,23,24
561 720 m 0,46,47
 584 719 584 719 582.5 707.5 c 128,-1,48
 581 696 581 696 564 693 c 0,49,50
 551 691 551 691 542 683.5 c 128,-1,51
 533 676 533 676 531 671 c 0,52,53
 495 593 495 593 475.5 535 c 128,-1,54
 456 477 456 477 426 467 c 1,55,56
 394 464 394 464 358 462.5 c 128,-1,57
 322 461 322 461 288 467 c 1,58,59
 273 472 273 472 278 478.5 c 128,-1,60
 283 485 283 485 292 488 c 0,61,62
 302 491 302 491 314 509 c 0,63,64
 349 565 349 565 374 639 c 128,-1,65
 399 713 399 713 421 713 c 1,66,67
 451 717 451 717 488.5 718.5 c 128,-1,68
 526 720 526 720 561 720 c 0,46,47
80 384 m 128,-1,70
 85 392 85 392 91.5 392.5 c 128,-1,71
 98 393 98 393 105 389 c 128,-1,72
 112 385 112 385 123 379.5 c 128,-1,73
 134 374 134 374 151 370.5 c 128,-1,74
 168 367 168 367 199 367 c 2,75,-1
 1345 367 l 2,76,77
 1373 367 1373 367 1396 362.5 c 128,-1,78
 1419 358 1419 358 1438 348 c 128,-1,79
 1457 338 1457 338 1467.5 330 c 128,-1,80
 1478 322 1478 322 1496.5 302.5 c 128,-1,81
 1515 283 1515 283 1528 265 c 128,-1,82
 1541 247 1541 247 1533 230 c 1,83,84
 1525 218 1525 218 1514.5 225 c 128,-1,85
 1504 232 1504 232 1490 237 c 128,-1,86
 1476 242 1476 242 1459.5 244 c 128,-1,87
 1443 246 1443 246 1408 246 c 2,88,-1
 277 246 l 2,89,90
 254 246 254 246 235 249 c 128,-1,91
 216 252 216 252 205.5 255.5 c 128,-1,92
 195 259 195 259 183 265 c 128,-1,93
 171 271 171 271 158 279.5 c 128,-1,94
 145 288 145 288 129.5 303.5 c 128,-1,95
 114 319 114 319 98.5 339.5 c 128,-1,96
 83 360 83 360 79 368 c 128,-1,69
 75 376 75 376 80 384 c 128,-1,70
EndSplineSet
EndChar

StartChar: I
Encoding: 73 73 72
Width: 1627
VWidth: 345
Flags: W
LayerCount: 2
Fore
SplineSet
1149 671 m 0,0,1
 1179 671 1179 671 1212 670 c 128,-1,2
 1245 669 1245 669 1271 664 c 1,3,4
 1290 664 1290 664 1314 613 c 128,-1,5
 1338 562 1338 562 1367 501 c 0,6,7
 1375 480 1375 480 1386 477 c 0,8,9
 1393 474 1393 474 1397.5 466.5 c 128,-1,10
 1402 459 1402 459 1389 453 c 1,11,12
 1359 447 1359 447 1327.5 448 c 128,-1,13
 1296 449 1296 449 1269 453 c 1,14,15
 1243 465 1243 465 1224.5 498 c 128,-1,16
 1206 531 1206 531 1175 617 c 0,17,18
 1172 622 1172 622 1164 632.5 c 128,-1,19
 1156 643 1156 643 1146 645 c 0,20,21
 1132 647 1132 647 1130 659 c 128,-1,22
 1128 671 1128 671 1149 671 c 0,0,1
879 671 m 0,23,24
 909 671 909 671 942 670 c 128,-1,25
 975 669 975 669 1001 664 c 1,26,27
 1020 664 1020 664 1044 613 c 128,-1,28
 1068 562 1068 562 1096 501 c 0,29,30
 1105 480 1105 480 1115 477 c 0,31,32
 1123 474 1123 474 1127.5 466.5 c 128,-1,33
 1132 459 1132 459 1119 453 c 1,34,35
 1088 447 1088 447 1057 448 c 128,-1,36
 1026 449 1026 449 998 453 c 1,37,38
 972 465 972 465 954 498 c 128,-1,39
 936 531 936 531 905 617 c 0,40,41
 902 622 902 622 894 632.5 c 128,-1,42
 886 643 886 643 875 645 c 0,43,44
 861 647 861 647 859.5 659 c 128,-1,45
 858 671 858 671 879 671 c 0,23,24
561 720 m 0,46,47
 584 719 584 719 582.5 707.5 c 128,-1,48
 581 696 581 696 564 693 c 0,49,50
 551 691 551 691 542 683.5 c 128,-1,51
 533 676 533 676 531 671 c 0,52,53
 495 593 495 593 475.5 535 c 128,-1,54
 456 477 456 477 426 467 c 1,55,56
 394 464 394 464 358 462.5 c 128,-1,57
 322 461 322 461 288 467 c 1,58,59
 273 472 273 472 278 478.5 c 128,-1,60
 283 485 283 485 292 488 c 0,61,62
 302 491 302 491 314 509 c 0,63,64
 349 565 349 565 374 639 c 128,-1,65
 399 713 399 713 421 713 c 1,66,67
 451 717 451 717 488.5 718.5 c 128,-1,68
 526 720 526 720 561 720 c 0,46,47
522 950 m 1,69,70
 522 985 522 985 523 1017 c 128,-1,71
 524 1049 524 1049 524 1088 c 0,72,73
 524 1101 524 1101 533 1102 c 0,74,75
 606 1102 606 1102 681 1102.5 c 128,-1,76
 756 1103 756 1103 830 1104 c 1,77,78
 835 1098 835 1098 833.5 1087.5 c 128,-1,79
 832 1077 832 1077 830 1071 c 1,80,81
 814 1068 814 1068 731 1067.5 c 128,-1,82
 648 1067 648 1067 587 1067 c 1,83,84
 587 1019 587 1019 588.5 970 c 128,-1,85
 590 921 590 921 584 920 c 0,86,87
 575 919 575 919 568 917 c 128,-1,88
 561 915 561 915 523 917 c 0,89,90
 482 917 482 917 430 915.5 c 128,-1,91
 378 914 378 914 339 914 c 1,92,93
 339 866 339 866 340.5 816 c 128,-1,94
 342 766 342 766 336 766 c 0,95,96
 320 766 320 766 303 764 c 128,-1,97
 286 762 286 762 273 766 c 0,98,99
 272 766 272 766 272 776 c 1,100,101
 272.5 776.5 l 0,102,103
 273 777 273 777 273 778 c 0,104,105
 273 826 273 826 274.5 855.5 c 128,-1,106
 276 885 276 885 276 935 c 0,107,108
 276 947 276 947 286 949 c 0,109,110
 345 949 345 949 403.5 949.5 c 128,-1,111
 462 950 462 950 522 950 c 1,69,70
921 1084 m 2,112,-1
 964 1084 l 2,113,114
 967 1084 967 1084 975 1083.5 c 128,-1,115
 983 1083 983 1083 986 1081 c 0,116,117
 989 1078 989 1078 984.5 1077.5 c 128,-1,118
 980 1077 980 1077 979 1061 c 2,119,-1
 974 1028 l 2,120,121
 971 1006 971 1006 954 1006 c 2,122,-1
 911 1006 l 2,123,124
 907 1006 907 1006 898 1006.5 c 128,-1,125
 889 1007 889 1007 889 1011 c 128,-1,126
 889 1015 889 1015 892 1016 c 128,-1,127
 895 1017 895 1017 896 1028 c 2,128,-1
 901 1061 l 2,129,130
 904 1084 904 1084 921 1084 c 2,112,-1
80 384 m 128,-1,132
 85 392 85 392 91.5 392.5 c 128,-1,133
 98 393 98 393 105 389 c 128,-1,134
 112 385 112 385 123 379.5 c 128,-1,135
 134 374 134 374 151 370.5 c 128,-1,136
 168 367 168 367 199 367 c 2,137,-1
 1345 367 l 2,138,139
 1373 367 1373 367 1396 362.5 c 128,-1,140
 1419 358 1419 358 1438 348 c 128,-1,141
 1457 338 1457 338 1467.5 330 c 128,-1,142
 1478 322 1478 322 1496.5 302.5 c 128,-1,143
 1515 283 1515 283 1528 265 c 128,-1,144
 1541 247 1541 247 1533 230 c 1,145,146
 1525 218 1525 218 1514.5 225 c 128,-1,147
 1504 232 1504 232 1490 237 c 128,-1,148
 1476 242 1476 242 1459.5 244 c 128,-1,149
 1443 246 1443 246 1408 246 c 2,150,-1
 277 246 l 2,151,152
 254 246 254 246 235 249 c 128,-1,153
 216 252 216 252 205.5 255.5 c 128,-1,154
 195 259 195 259 183 265 c 128,-1,155
 171 271 171 271 158 279.5 c 128,-1,156
 145 288 145 288 129.5 303.5 c 128,-1,157
 114 319 114 319 98.5 339.5 c 128,-1,158
 83 360 83 360 79 368 c 128,-1,131
 75 376 75 376 80 384 c 128,-1,132
EndSplineSet
EndChar

StartChar: U
Encoding: 85 85 73
Width: 1627
VWidth: 345
Flags: W
LayerCount: 2
Fore
SplineSet
443 1010 m 0,0,1
 443 1023 443 1023 453 1024 c 0,2,3
 512 1024 512 1024 571 1024.5 c 128,-1,4
 630 1025 630 1025 688 1026 c 1,5,6
 688 1062 688 1062 688.5 1073 c 128,-1,7
 689 1084 689 1084 689 1124 c 0,8,9
 689 1137 689 1137 699 1139 c 0,10,11
 772 1139 772 1139 846.5 1139.5 c 128,-1,12
 921 1140 921 1140 995 1141 c 1,13,14
 1000 1135 1000 1135 999 1124.5 c 128,-1,15
 998 1114 998 1114 996 1106 c 1,16,17
 981 1103 981 1103 897 1103 c 128,-1,18
 813 1103 813 1103 752 1103 c 1,19,20
 752 1053 752 1053 754.5 1024 c 128,-1,21
 757 995 757 995 751 995 c 0,22,23
 742 993 742 993 735 991.5 c 128,-1,24
 728 990 728 990 690 991 c 1,25,26
 649 990 649 990 597 989 c 128,-1,27
 545 988 545 988 506 988 c 1,28,29
 506 985 506 985 506 981.5 c 128,-1,30
 506 978 506 978 506 975 c 1,31,-1
 506 975 l 1,32,33
 506 880 506 880 505 880 c 0,34,35
 496 879 496 879 488.5 877 c 128,-1,36
 481 875 481 875 443 876 c 0,37,38
 402 876 402 876 350 874.5 c 128,-1,39
 298 873 298 873 259 873 c 1,40,41
 258 766 258 766 257 766 c 0,42,43
 241 766 241 766 224 764 c 128,-1,44
 207 762 207 762 194 766 c 0,45,46
 193 766 193 766 193 776 c 1,47,48
 193.5 776.5 l 0,49,50
 194 777 194 777 194 778 c 0,51,52
 194 829 194 829 195.5 836.5 c 128,-1,53
 197 844 197 844 197 895 c 0,54,55
 197 908 197 908 206 909 c 0,56,57
 265 909 265 909 324 909.5 c 128,-1,58
 383 910 383 910 442 910 c 1,59,60
 442 935 442 935 442.5 960 c 128,-1,61
 443 985 443 985 443 1010 c 0,0,1
1149 671 m 0,62,63
 1179 671 1179 671 1212 670 c 128,-1,64
 1245 669 1245 669 1271 664 c 1,65,66
 1290 664 1290 664 1314 613 c 128,-1,67
 1338 562 1338 562 1367 501 c 0,68,69
 1375 480 1375 480 1386 477 c 0,70,71
 1393 474 1393 474 1397.5 466.5 c 128,-1,72
 1402 459 1402 459 1389 453 c 1,73,74
 1359 447 1359 447 1327.5 448 c 128,-1,75
 1296 449 1296 449 1269 453 c 1,76,77
 1243 465 1243 465 1224.5 498 c 128,-1,78
 1206 531 1206 531 1175 617 c 0,79,80
 1172 622 1172 622 1164 632.5 c 128,-1,81
 1156 643 1156 643 1146 645 c 0,82,83
 1132 647 1132 647 1130 659 c 128,-1,84
 1128 671 1128 671 1149 671 c 0,62,63
879 671 m 0,85,86
 909 671 909 671 942 670 c 128,-1,87
 975 669 975 669 1001 664 c 1,88,89
 1020 664 1020 664 1044 613 c 128,-1,90
 1068 562 1068 562 1096 501 c 0,91,92
 1105 480 1105 480 1115 477 c 0,93,94
 1123 474 1123 474 1127.5 466.5 c 128,-1,95
 1132 459 1132 459 1119 453 c 1,96,97
 1088 447 1088 447 1057 448 c 128,-1,98
 1026 449 1026 449 998 453 c 1,99,100
 972 465 972 465 954 498 c 128,-1,101
 936 531 936 531 905 617 c 0,102,103
 902 622 902 622 894 632.5 c 128,-1,104
 886 643 886 643 875 645 c 0,105,106
 861 647 861 647 859.5 659 c 128,-1,107
 858 671 858 671 879 671 c 0,85,86
561 720 m 0,108,109
 584 719 584 719 582.5 707.5 c 128,-1,110
 581 696 581 696 564 693 c 0,111,112
 551 691 551 691 542 683.5 c 128,-1,113
 533 676 533 676 531 671 c 0,114,115
 495 593 495 593 475.5 535 c 128,-1,116
 456 477 456 477 426 467 c 1,117,118
 394 464 394 464 358 462.5 c 128,-1,119
 322 461 322 461 288 467 c 1,120,121
 273 472 273 472 278 478.5 c 128,-1,122
 283 485 283 485 292 488 c 0,123,124
 302 491 302 491 314 509 c 0,125,126
 349 565 349 565 374 639 c 128,-1,127
 399 713 399 713 421 713 c 1,128,129
 451 717 451 717 488.5 718.5 c 128,-1,130
 526 720 526 720 561 720 c 0,108,109
1087 1120 m 2,131,-1
 1130 1120 l 2,132,133
 1133 1120 1133 1120 1141 1119.5 c 128,-1,134
 1149 1119 1149 1119 1151 1117 c 0,135,136
 1154 1114 1154 1114 1150 1114 c 128,-1,137
 1146 1114 1146 1114 1144 1098 c 2,138,-1
 1140 1064 l 2,139,140
 1137 1043 1137 1043 1119 1042 c 2,141,-1
 1077 1042 l 2,142,143
 1073 1042 1073 1042 1064 1042.5 c 128,-1,144
 1055 1043 1055 1043 1055 1047 c 0,145,146
 1054 1051 1054 1051 1057.5 1052 c 0,147,148
 1060 1053 1060 1053 1062 1064 c 2,149,-1
 1067 1098 l 2,150,151
 1069 1120 1069 1120 1087 1120 c 2,131,-1
80 384 m 128,-1,153
 85 392 85 392 91.5 392.5 c 128,-1,154
 98 393 98 393 105 389 c 128,-1,155
 112 385 112 385 123 379.5 c 128,-1,156
 134 374 134 374 151 370.5 c 128,-1,157
 168 367 168 367 199 367 c 2,158,-1
 1345 367 l 2,159,160
 1373 367 1373 367 1396 362.5 c 128,-1,161
 1419 358 1419 358 1438 348 c 128,-1,162
 1457 338 1457 338 1467.5 330 c 128,-1,163
 1478 322 1478 322 1496.5 302.5 c 128,-1,164
 1515 283 1515 283 1528 265 c 128,-1,165
 1541 247 1541 247 1533 230 c 1,166,167
 1525 218 1525 218 1514.5 225 c 128,-1,168
 1504 232 1504 232 1490 237 c 128,-1,169
 1476 242 1476 242 1459.5 244 c 128,-1,170
 1443 246 1443 246 1408 246 c 2,171,-1
 277 246 l 2,172,173
 254 246 254 246 235 249 c 128,-1,174
 216 252 216 252 205.5 255.5 c 128,-1,175
 195 259 195 259 183 265 c 128,-1,176
 171 271 171 271 158 279.5 c 128,-1,177
 145 288 145 288 129.5 303.5 c 128,-1,178
 114 319 114 319 98.5 339.5 c 128,-1,179
 83 360 83 360 79 368 c 128,-1,152
 75 376 75 376 80 384 c 128,-1,153
EndSplineSet
EndChar

